<svg width="559" height="158" viewBox="0 0 559 158" fill="none" xmlns="http://www.w3.org/2000/svg">
<g clip-path="url(#clip0_2005_446)">
<path d="M173.422 69.968L158.383 15.1096H165.433L177.26 62.1423L190.733 15.1096H198.017L211.098 62.1423L223.082 15.1096H230.131L214.779 69.8898H207.26L194.179 24.657L180.785 69.8898L173.422 69.968Z" fill="#1E1E1E"/>
<path d="M249.01 70.8289C245.302 70.8289 242.012 69.9941 239.141 68.3244C236.268 66.603 233.997 64.2289 232.326 61.203C230.707 58.1772 229.897 54.6034 229.897 50.4818C229.897 46.4125 230.707 42.8649 232.326 39.8389C233.945 36.7608 236.19 34.387 239.062 32.7175C241.986 30.9958 245.354 30.135 249.166 30.135C252.926 30.135 256.163 30.9958 258.879 32.7175C261.646 34.387 263.761 36.6042 265.223 39.3694C266.686 42.1344 267.417 45.1082 267.417 48.2908C267.417 48.8648 267.391 49.4383 267.338 50.0122C267.338 50.5862 267.338 51.2384 267.338 51.9689H236.399C236.556 54.9426 237.234 57.4206 238.435 59.4033C239.689 61.3335 241.229 62.7945 243.057 63.7858C244.936 64.7768 246.921 65.2724 249.01 65.2724C251.725 65.2724 253.996 64.6463 255.824 63.3945C257.652 62.1422 258.983 60.4464 259.819 58.3076H266.32C265.276 61.9074 263.265 64.9072 260.289 67.3074C257.364 69.6549 253.605 70.8289 249.01 70.8289ZM249.01 35.6913C245.876 35.6913 243.083 36.6564 240.628 38.5868C238.227 40.465 236.843 43.2301 236.477 46.8821H260.915C260.759 43.3866 259.558 40.6475 257.312 38.665C255.067 36.6825 252.299 35.6913 249.01 35.6913Z" fill="#1E1E1E"/>
<path d="M294.936 70.8289C291.751 70.8289 288.905 70.1767 286.398 68.8723C283.944 67.5683 282.064 65.742 280.759 63.3945L280.132 69.8897H274.179V13.5444H280.759V37.4912C282.012 35.613 283.787 33.9174 286.085 32.4045C288.435 30.8915 291.411 30.135 295.015 30.135C298.879 30.135 302.247 31.0219 305.118 32.7957C307.991 34.5696 310.21 36.9955 311.777 40.0737C313.395 43.1518 314.205 46.6473 314.205 50.5601C314.205 54.473 313.395 57.9684 311.777 61.0465C310.21 64.0723 307.965 66.4725 305.04 68.2461C302.168 69.968 298.8 70.8289 294.936 70.8289ZM294.231 65.1159C296.842 65.1159 299.139 64.5159 301.124 63.3162C303.108 62.064 304.675 60.3421 305.824 58.1511C306.972 55.9601 307.547 53.4033 307.547 50.4818C307.547 47.5603 306.972 45.0039 305.824 42.8127C304.675 40.6215 303.108 38.9259 301.124 37.7259C299.139 36.4738 296.842 35.8478 294.231 35.8478C291.62 35.8478 289.323 36.4738 287.338 37.7259C285.354 38.9259 283.787 40.6215 282.639 42.8127C281.49 45.0039 280.916 47.5603 280.916 50.4818C280.916 53.4033 281.49 55.9601 282.639 58.1511C283.787 60.3421 285.354 62.064 287.338 63.3162C289.323 64.5159 291.62 65.1159 294.231 65.1159Z" fill="#1E1E1E"/>
<path d="M338.872 70.8288C335.374 70.8288 332.215 70.2027 329.395 68.9504C326.575 67.6464 324.303 65.7158 322.58 63.1596C320.909 60.6029 320.021 57.4205 319.917 53.6119H326.575C326.627 56.7421 327.724 59.4554 329.865 61.7508C332.006 63.994 335.008 65.1158 338.872 65.1158C342.736 65.1158 345.635 64.0461 347.567 61.9073C349.551 59.7685 350.543 57.1857 350.543 54.1598C350.543 51.6035 349.917 49.5164 348.664 47.8994C347.462 46.2819 345.817 45.082 343.729 44.2995C341.692 43.5169 339.447 43.1256 336.993 43.1256H332.919V37.5693H336.993C340.543 37.5693 343.311 36.7607 345.295 35.1433C347.332 33.526 348.35 31.2566 348.35 28.3349C348.35 25.8829 347.54 23.8743 345.922 22.3092C344.355 20.6918 342.005 19.8832 338.872 19.8832C335.844 19.8832 333.415 20.7962 331.588 22.6222C329.76 24.396 328.742 26.6394 328.533 29.3523H321.875C322.032 26.3785 322.815 23.7439 324.225 21.4483C325.687 19.1528 327.672 17.3789 330.178 16.1268C332.685 14.8225 335.582 14.1704 338.872 14.1704C342.423 14.1704 345.373 14.7965 347.724 16.0485C350.125 17.3007 351.927 18.9702 353.128 21.057C354.381 23.1439 355.008 25.4394 355.008 27.9437C355.008 30.7088 354.251 33.2391 352.736 35.5346C351.222 37.778 348.951 39.291 345.922 40.0735C349.159 40.7518 351.848 42.2908 353.989 44.6907C356.13 47.0906 357.201 50.2469 357.201 54.1598C357.201 57.1857 356.496 59.9772 355.086 62.5334C353.729 65.0375 351.692 67.0464 348.977 68.5591C346.261 70.0722 342.893 70.8288 338.872 70.8288Z" fill="#1E1E1E"/>
<path d="M365.887 69.8898V15.1096H372.466V64.6463H398.001V69.8898H365.887Z" fill="#1E1E1E"/>
<path d="M417.614 70.8289C414.377 70.8289 411.687 70.2811 409.546 69.1853C407.405 68.0896 405.813 66.6291 404.768 64.8028C403.724 62.9771 403.202 60.9943 403.202 58.8555C403.202 54.8904 404.716 51.8385 407.744 49.6992C410.773 47.5603 414.899 46.4908 420.12 46.4908H430.616V46.0212C430.616 42.6301 429.729 40.0737 427.953 38.352C426.178 36.5782 423.802 35.6913 420.826 35.6913C418.267 35.6913 416.047 36.3434 414.167 37.6477C412.34 38.8998 411.191 40.7519 410.721 43.204H403.985C404.246 40.3867 405.186 38.0129 406.805 36.0826C408.476 34.1522 410.539 32.6914 412.993 31.7001C415.447 30.6567 418.058 30.135 420.826 30.135C426.256 30.135 430.329 31.5958 433.044 34.5174C435.812 37.3868 437.196 41.2214 437.196 46.0212V69.8897H431.321L430.93 62.9249C429.833 65.1159 428.214 66.9943 426.073 68.5592C423.985 70.0724 421.165 70.8289 417.614 70.8289ZM418.632 65.2724C421.139 65.2724 423.28 64.6202 425.055 63.3162C426.883 62.0118 428.267 60.316 429.206 58.2293C430.146 56.1427 430.616 53.9512 430.616 51.6558V51.5776H420.669C416.804 51.5776 414.063 52.2559 412.444 53.6121C410.878 54.9165 410.095 56.5596 410.095 58.5424C410.095 60.5769 410.825 62.2205 412.288 63.4728C413.802 64.6724 415.917 65.2724 418.632 65.2724Z" fill="#1E1E1E"/>
<path d="M460.46 57.6815C458.267 57.6815 456.257 57.3945 454.429 56.8205L450.512 60.4986C451.087 60.916 451.792 61.2813 452.627 61.5944C453.515 61.8553 454.768 62.1161 456.387 62.377C458.006 62.5857 460.278 62.8205 463.202 63.0814C468.423 63.4467 472.159 64.6463 474.404 66.6813C476.65 68.7157 477.772 71.3768 477.772 74.6636C477.772 76.9068 477.144 79.0456 475.89 81.0805C474.689 83.115 472.811 84.7847 470.249 86.0892C467.743 87.3931 464.507 88.0454 460.538 88.0454C457.04 88.0454 453.933 87.5758 451.218 86.6366C448.502 85.75 446.387 84.3673 444.873 82.4893C443.359 80.6631 442.602 78.3417 442.602 75.524C442.602 74.0635 442.993 72.4721 443.776 70.7507C444.559 69.081 446.022 67.49 448.163 65.9769C447.014 65.5073 446.022 65.0116 445.186 64.4898C444.403 63.9163 443.672 63.2901 442.993 62.6118V60.8117L449.651 54.2382C446.57 51.6298 445.029 48.1865 445.029 43.9083C445.029 41.3519 445.63 39.0302 446.831 36.9434C448.032 34.8565 449.781 33.2131 452.079 32.0132C454.377 30.7611 457.17 30.135 460.46 30.135C462.706 30.135 464.742 30.448 466.569 31.0741H480.903V36.0043L473.617 36.3173C475.136 38.5085 475.89 41.0388 475.89 43.9083C475.89 46.4647 475.266 48.7865 474.013 50.8732C472.811 52.9598 471.06 54.6295 468.763 55.8818C466.518 57.0814 463.75 57.6815 460.46 57.6815ZM460.46 52.282C463.228 52.282 465.421 51.5776 467.04 50.1688C468.712 48.7083 469.546 46.6212 469.546 43.9083C469.546 41.2475 468.712 39.2128 467.04 37.8042C465.421 36.3434 463.228 35.613 460.46 35.613C457.641 35.613 455.395 36.3434 453.724 37.8042C452.105 39.2128 451.296 41.2475 451.296 43.9083C451.296 46.6212 452.105 48.7083 453.724 50.1688C455.395 51.5776 457.641 52.282 460.46 52.282ZM449.024 74.8984C449.024 77.5068 450.121 79.4369 452.314 80.6892C454.507 81.9937 457.249 82.6454 460.538 82.6454C463.776 82.6454 466.36 81.9415 468.293 80.5327C470.277 79.1239 471.269 77.2459 471.269 74.8984C471.269 73.2287 470.589 71.7677 469.234 70.5159C467.873 69.3158 465.369 68.6114 461.713 68.4027C458.841 68.194 456.361 67.9331 454.272 67.6205C452.131 68.7679 450.722 69.9941 450.043 71.2985C449.364 72.6547 449.024 73.8548 449.024 74.8984Z" fill="#1E1E1E"/>
<path d="M502.541 70.8289C498.884 70.8289 495.595 69.9941 492.67 68.3244C489.744 66.6552 487.425 64.3072 485.701 61.2813C484.029 58.2033 483.195 54.6034 483.195 50.4818C483.195 46.3603 484.057 42.7866 485.776 39.7606C487.499 36.6825 489.824 34.3087 492.749 32.6392C495.726 30.9697 499.042 30.135 502.695 30.135C506.351 30.135 509.64 30.9697 512.566 32.6392C515.491 34.3087 517.788 36.6825 519.46 39.7606C521.184 42.7866 522.045 46.3603 522.045 50.4818C522.045 54.6034 521.184 58.2033 519.46 61.2813C517.736 64.3072 515.384 66.6552 512.407 68.3244C509.486 69.9941 506.193 70.8289 502.541 70.8289ZM502.541 65.1942C504.786 65.1942 506.873 64.6463 508.806 63.551C510.74 62.4553 512.305 60.8117 513.507 58.6207C514.708 56.4297 515.309 53.7164 515.309 50.4818C515.309 47.2473 514.708 44.5343 513.507 42.3431C512.356 40.1519 510.819 38.5085 508.886 37.4129C506.952 36.3173 504.889 35.7695 502.695 35.7695C500.449 35.7695 498.362 36.3173 496.429 37.4129C494.501 38.5085 492.931 40.1519 491.729 42.3431C490.532 44.5343 489.931 47.2473 489.931 50.4818C489.931 53.7164 490.532 56.4297 491.729 58.6207C492.931 60.8117 494.473 62.4553 496.35 63.551C498.283 64.6463 500.347 65.1942 502.541 65.1942Z" fill="#1E1E1E"/>
<path d="M544.116 70.8289C539.467 70.8289 535.606 69.6549 532.522 67.3074C529.443 64.9594 527.64 61.777 527.118 57.7597H533.854C534.273 59.7947 535.345 61.5683 537.068 63.0814C538.843 64.542 541.219 65.2724 544.196 65.2724C546.963 65.2724 548.998 64.6985 550.303 63.551C551.612 62.3509 552.264 60.9421 552.264 59.3251C552.264 56.9771 551.402 55.4122 549.678 54.6295C548.006 53.8469 545.63 53.1425 542.551 52.5168C540.46 52.0994 538.373 51.4993 536.281 50.7166C534.194 49.934 532.447 48.8387 531.036 47.4299C529.624 45.969 528.921 44.0648 528.921 41.7171C528.921 38.3259 530.174 35.5608 532.68 33.4218C535.238 31.2306 538.685 30.135 543.022 30.135C547.144 30.135 550.512 31.1784 553.126 33.2653C555.786 35.3 557.327 38.2216 557.747 42.0301H551.244C550.983 40.0476 550.121 38.5085 548.658 37.4129C547.251 36.2651 545.342 35.6913 542.943 35.6913C540.59 35.6913 538.764 36.1869 537.46 37.1782C536.207 38.1694 535.578 39.4737 535.578 41.091C535.578 42.6562 536.388 43.8822 538.005 44.7691C539.677 45.656 541.922 46.4125 544.741 47.0386C547.144 47.5603 549.418 48.2126 551.556 48.9952C553.75 49.7253 555.525 50.8471 556.885 52.3602C558.292 53.8208 559 55.9601 559 58.7772C559.051 62.2727 557.719 65.1681 555.003 67.4639C552.338 69.7071 548.71 70.8289 544.116 70.8289Z" fill="#1E1E1E"/>
<path d="M186.19 157.034C180.811 157.034 176.164 155.86 172.248 153.513C168.384 151.113 165.381 147.8 163.24 143.574C161.099 139.296 160.028 134.339 160.028 128.705C160.028 123.123 161.099 118.218 163.24 113.993C165.381 109.715 168.384 106.376 172.248 103.976C176.164 101.576 180.811 100.376 186.19 100.376C192.456 100.376 197.547 101.889 201.464 104.915C205.432 107.888 207.965 112.062 209.061 117.436H201.777C200.942 114.045 199.218 111.332 196.607 109.297C194.049 107.21 190.576 106.167 186.19 106.167C182.273 106.167 178.853 107.08 175.929 108.906C173.005 110.679 170.733 113.262 169.114 116.653C167.548 119.992 166.765 124.01 166.765 128.705C166.765 133.4 167.548 137.444 169.114 140.835C170.733 144.174 173.005 146.756 175.929 148.582C178.853 150.356 182.273 151.243 186.19 151.243C190.576 151.243 194.049 150.252 196.607 148.269C199.218 146.235 200.942 143.548 201.777 140.209H209.061C207.965 145.478 205.432 149.6 201.464 152.573C197.547 155.547 192.456 157.034 186.19 157.034Z" fill="#1E1E1E"/>
<path d="M233.87 157.034C230.215 157.034 226.925 156.199 224.001 154.53C221.076 152.86 218.753 150.513 217.03 147.487C215.359 144.408 214.523 140.809 214.523 136.687C214.523 132.566 215.385 128.992 217.108 125.966C218.831 122.888 221.155 120.514 224.079 118.844C227.056 117.175 230.372 116.34 234.027 116.34C237.682 116.34 240.972 117.175 243.896 118.844C246.82 120.514 249.118 122.888 250.789 125.966C252.512 128.992 253.373 132.566 253.373 136.687C253.373 140.809 252.512 144.408 250.789 147.487C249.065 150.513 246.716 152.86 243.74 154.53C240.815 156.199 237.525 157.034 233.87 157.034ZM233.87 151.4C236.115 151.4 238.204 150.852 240.136 149.756C242.068 148.66 243.635 147.017 244.836 144.826C246.037 142.635 246.637 139.922 246.637 136.687C246.637 133.452 246.037 130.74 244.836 128.549C243.687 126.357 242.147 124.714 240.215 123.618C238.282 122.523 236.22 121.975 234.027 121.975C231.781 121.975 229.692 122.523 227.761 123.618C225.828 124.714 224.262 126.357 223.061 128.549C221.86 130.74 221.259 133.452 221.259 136.687C221.259 139.922 221.86 142.635 223.061 144.826C224.262 147.017 225.802 148.66 227.682 149.756C229.614 150.852 231.677 151.4 233.87 151.4Z" fill="#1E1E1E"/>
<path d="M260.564 156.095V117.28H266.517L266.908 124.244C268.162 121.792 269.963 119.862 272.313 118.453C274.663 117.045 277.326 116.34 280.302 116.34C284.898 116.34 288.553 117.749 291.268 120.566C294.036 123.331 295.419 127.609 295.419 133.4V156.095H288.84V134.105C288.84 126.018 285.498 121.975 278.814 121.975C275.472 121.975 272.678 123.201 270.433 125.653C268.24 128.053 267.143 131.496 267.143 135.983V156.095H260.564Z" fill="#1E1E1E"/>
<path d="M305.545 156.095V122.835H299.67V117.279H305.545V110.549C305.545 106.793 306.484 104.054 308.364 102.332C310.244 100.61 312.986 99.7495 316.589 99.7495H320.505V105.384H317.607C315.622 105.384 314.213 105.802 313.377 106.637C312.542 107.419 312.124 108.775 312.124 110.706V117.279H321.68V122.835H312.124V156.095H305.545Z" fill="#1E1E1E"/>
<path d="M343.493 157.034C339.785 157.034 336.495 156.199 333.623 154.53C330.752 152.808 328.48 150.434 326.809 147.409C325.19 144.382 324.381 140.809 324.381 136.687C324.381 132.618 325.19 129.07 326.809 126.044C328.428 122.966 330.673 120.592 333.545 118.923C336.469 117.201 339.837 116.34 343.65 116.34C347.409 116.34 350.647 117.201 353.362 118.923C356.13 120.592 358.245 122.809 359.706 125.574C361.169 128.34 361.9 131.314 361.9 134.496C361.9 135.07 361.873 135.644 361.821 136.218C361.821 136.791 361.821 137.444 361.821 138.174H330.882C331.039 141.148 331.717 143.626 332.919 145.608C334.172 147.539 335.712 149 337.54 149.991C339.42 150.982 341.404 151.478 343.493 151.478C346.208 151.478 348.48 150.852 350.307 149.6C352.135 148.347 353.467 146.652 354.302 144.513H360.803C359.759 148.113 357.749 151.113 354.772 153.513C351.848 155.86 348.088 157.034 343.493 157.034ZM343.493 121.896C340.359 121.896 337.566 122.862 335.112 124.792C332.709 126.67 331.326 129.435 330.96 133.087H355.398C355.242 129.592 354.041 126.853 351.796 124.871C349.55 122.888 346.782 121.896 343.493 121.896Z" fill="#1E1E1E"/>
<path d="M368.662 156.095V117.28H374.615L375.163 124.714C376.365 122.157 378.192 120.123 380.647 118.61C383.101 117.097 386.129 116.34 389.733 116.34V123.227H387.931C385.633 123.227 383.518 123.644 381.586 124.479C379.654 125.262 378.114 126.618 376.965 128.549C375.816 130.479 375.242 133.139 375.242 136.531V156.095H368.662Z" fill="#1E1E1E"/>
<path d="M411.172 157.034C407.465 157.034 404.175 156.199 401.303 154.53C398.431 152.808 396.16 150.434 394.488 147.409C392.87 144.382 392.061 140.809 392.061 136.687C392.061 132.618 392.87 129.07 394.488 126.044C396.107 122.966 398.353 120.592 401.225 118.923C404.149 117.201 407.517 116.34 411.329 116.34C415.089 116.34 418.327 117.201 421.042 118.923C423.809 120.592 425.924 122.809 427.387 125.574C428.848 128.34 429.58 131.314 429.58 134.496C429.58 135.07 429.554 135.644 429.501 136.218C429.501 136.791 429.501 137.444 429.501 138.174H398.562C398.718 141.148 399.397 143.626 400.598 145.608C401.851 147.539 403.392 149 405.219 149.991C407.1 150.982 409.084 151.478 411.172 151.478C413.888 151.478 416.16 150.852 417.987 149.6C419.814 148.347 421.146 146.652 421.982 144.513H428.483C427.439 148.113 425.428 151.113 422.452 153.513C419.527 155.86 415.768 157.034 411.172 157.034ZM411.172 121.896C408.04 121.896 405.245 122.862 402.791 124.792C400.389 126.67 399.006 129.435 398.64 133.087H423.079C422.922 129.592 421.721 126.853 419.475 124.871C417.23 122.888 414.462 121.896 411.172 121.896Z" fill="#1E1E1E"/>
<path d="M436.342 156.095V117.28H442.295L442.686 124.244C443.94 121.792 445.741 119.862 448.091 118.453C450.441 117.045 453.104 116.34 456.081 116.34C460.676 116.34 464.331 117.749 467.044 120.566C469.816 123.331 471.2 127.609 471.2 133.4V156.095H464.618V134.105C464.618 126.018 461.276 121.975 454.593 121.975C451.25 121.975 448.457 123.201 446.211 125.653C444.018 128.053 442.922 131.496 442.922 135.983V156.095H436.342Z" fill="#1E1E1E"/>
<path d="M497.067 157.034C493.359 157.034 490.019 156.199 487.043 154.53C484.117 152.808 481.793 150.434 480.069 147.409C478.397 144.33 477.563 140.756 477.563 136.687C477.563 132.618 478.397 129.07 480.069 126.044C481.793 122.966 484.117 120.592 487.043 118.923C490.019 117.201 493.359 116.34 497.067 116.34C501.661 116.34 505.527 117.54 508.657 119.94C511.844 122.34 513.856 125.548 514.69 129.566H507.954C507.432 127.166 506.151 125.314 504.115 124.01C502.08 122.653 499.704 121.975 496.988 121.975C494.794 121.975 492.73 122.523 490.802 123.618C488.869 124.714 487.304 126.357 486.102 128.549C484.9 130.74 484.299 133.452 484.299 136.687C484.299 139.922 484.9 142.635 486.102 144.826C487.304 147.017 488.869 148.687 490.802 149.834C492.73 150.93 494.794 151.478 496.988 151.478C499.704 151.478 502.08 150.826 504.115 149.521C506.151 148.165 507.432 146.261 507.954 143.809H514.69C513.907 147.722 511.923 150.904 508.737 153.356C505.55 155.808 501.661 157.034 497.067 157.034Z" fill="#1E1E1E"/>
<path d="M539.389 157.034C535.681 157.034 532.392 156.199 529.518 154.53C526.648 152.808 524.375 150.434 522.707 147.409C521.086 144.382 520.275 140.809 520.275 136.687C520.275 132.618 521.086 129.07 522.707 126.044C524.323 122.966 526.569 120.592 529.443 118.923C532.364 117.201 535.732 116.34 539.547 116.34C543.306 116.34 546.544 117.201 549.26 118.923C552.027 120.592 554.141 122.809 555.604 125.574C557.062 128.34 557.794 131.314 557.794 134.496C557.794 135.07 557.77 135.644 557.719 136.218C557.719 136.791 557.719 137.444 557.719 138.174H526.778C526.932 141.148 527.612 143.626 528.814 145.608C530.067 147.539 531.609 149 533.435 149.991C535.317 150.982 537.302 151.478 539.389 151.478C542.104 151.478 544.378 150.852 546.204 149.6C548.03 148.347 549.362 146.652 550.196 144.513H556.699C555.655 148.113 553.643 151.113 550.666 153.513C547.746 155.86 543.982 157.034 539.389 157.034ZM539.389 121.896C536.253 121.896 533.463 122.862 531.008 124.792C528.605 126.67 527.221 129.435 526.858 133.087H551.295C551.137 129.592 549.935 126.853 547.69 124.871C545.444 122.888 542.677 121.896 539.389 121.896Z" fill="#1E1E1E"/>
<path d="M58.6948 20.0669H14.4407C9.5525 20.0669 5.58984 24.0299 5.58984 28.9185V73.1767C5.58984 78.0653 9.5525 82.0283 14.4407 82.0283H58.6948C63.583 82.0283 67.5457 78.0653 67.5457 73.1767V28.9185C67.5457 24.0299 63.583 20.0669 58.6948 20.0669Z" fill="#0096FF" stroke="#1E1E1E" stroke-width="2"/>
<path d="M53.5708 14.9421H9.31665C4.42847 14.9421 0.46582 18.9051 0.46582 23.7938V68.0519C0.46582 72.9406 4.42847 76.9036 9.31665 76.9036H53.5708C58.459 76.9036 62.4217 72.9406 62.4217 68.0519V23.7938C62.4217 18.9051 58.459 14.9421 53.5708 14.9421Z" fill="white" stroke="#1E1E1E" stroke-width="2"/>
<path d="M25.6485 67.1202H32.7538C33.7885 57.2027 40.135 49.1705 51.2414 49.1007V42.7451C40.135 42.6054 33.7885 34.6433 32.7538 24.7256H25.6485C26.4762 32.129 29.8565 39.4624 37.5826 42.3959V42.5355L9.78223 42.4657V49.3802L37.5826 49.3103V49.4501C29.8565 52.3832 26.4762 59.717 25.6485 67.1202Z" fill="#0096FF"/>
<path d="M95.8213 36.0465L87.3906 60.6069L118.79 49.4836L125.528 26.0317L95.8213 36.0465ZM117.883 48.6301L98.5529 55.4776L102.773 43.2001L121.353 36.554L117.883 48.6301ZM101.91 42.3388L97.2314 55.9444L89.1752 58.7979L96.6901 36.908L123.889 27.7389L121.732 35.2461L101.91 42.3388Z" fill="#1E1E1E"/>
<path d="M89.0643 31.0179L75.0771 71.5307L81.4241 79.9248L132.845 62.5956L143.778 22.6856L137.235 14.0273L89.0643 31.0179ZM81.8229 78.6236L76.5864 71.6998L125.515 54.4302L131.467 61.894L81.8229 78.6236ZM125.246 53.3569L76.5902 70.5276L89.9316 31.8802L136.206 15.5616L125.246 53.3569ZM142.566 22.9199L132.136 60.9777L126.305 53.6653L137.25 15.8937L142.566 22.9199Z" fill="#1E1E1E"/>
<path d="M131.467 61.894L81.8224 78.6236L76.5859 71.6998L125.515 54.4316L131.467 61.894Z" fill="#0096FF"/>
<path d="M137.258 15.8923L142.57 22.9175L132.143 60.9734L126.312 53.661L137.258 15.8923Z" fill="#0096FF"/>
<path d="M89.9333 31.8828L76.5918 70.5305L125.256 53.3546L136.214 15.5601L89.9333 31.8828ZM118.789 49.4836L87.3898 60.6064L95.8205 36.0464L125.527 26.0316L118.789 49.4836Z" fill="white"/>
<path d="M123.887 27.7476L121.73 35.2547L101.907 42.3475L97.229 55.9528L89.1729 58.8063L96.6877 36.9167L123.887 27.7476Z" fill="#0096FF"/>
<path d="M144.408 125.588V157.034H112.964C95.6013 157.034 81.5205 142.952 81.5205 125.588C81.5205 108.223 95.6013 94.1411 112.964 94.1411C130.327 94.1411 144.408 108.223 144.408 125.588Z" fill="#0096FF" stroke="#1E1E1E" stroke-width="2" stroke-miterlimit="10"/>
<path d="M138.818 120.463V151.91H107.374C90.0114 151.91 75.9307 137.828 75.9307 120.463C75.9307 103.098 90.0114 89.0164 107.374 89.0164C124.737 89.0164 138.818 103.098 138.818 120.463Z" fill="white" stroke="#1E1E1E" stroke-width="2" stroke-miterlimit="10"/>
<path d="M138.585 151.444L144.408 156.568" stroke="#1E1E1E" stroke-width="2"/>
<path d="M126.517 116.4L112.794 117.587L121.389 106.156C119.636 100.483 114.322 101.706 114.322 101.706L108.222 114.472L102.123 101.706C95.5596 100.888 95.0518 106.161 95.0518 106.161L103.646 117.591L89.9272 116.4C89.9272 116.4 86.7358 119.983 89.9272 124.118L103.651 122.787L95.056 134.218C95.056 134.218 95.8652 139.374 102.127 138.673L108.227 125.902L114.327 138.673C114.327 138.673 119.438 140.278 121.397 134.218L112.799 122.787L126.522 123.97C130.491 120.387 126.517 116.4 126.517 116.4Z" fill="#0096FF"/>
<path d="M40.3173 93.4115C33.5158 96.8269 25.9799 102.756 19.1008 110.111C12.2218 117.466 6.80144 125.378 3.84539 132.39C0.797564 139.623 0.728206 145.115 3.64139 147.851L11.5547 155.255C14.4781 157.993 19.9515 157.56 26.9673 154.031C33.7667 150.617 41.3027 144.687 48.1839 137.331C55.0648 129.977 60.4833 122.067 63.439 115.052C64.9977 111.355 65.7771 108.115 65.7771 105.463C65.7771 102.927 65.0629 100.93 63.6328 99.5932L55.7197 92.1872C52.8045 89.4576 47.331 89.89 40.3173 93.4115ZM62.6662 100.642C65.0853 102.907 64.8915 107.958 62.1315 114.504C59.2386 121.365 53.9183 129.128 47.1493 136.362C40.3806 143.597 32.9874 149.42 26.341 152.762C19.9924 155.949 14.9636 156.477 12.5441 154.212L7.56848 149.555C10.5551 149.916 14.4822 148.942 19.0682 146.633C25.8697 143.218 33.4036 137.287 40.2847 129.932C47.1656 122.577 52.5842 114.667 55.5404 107.652C57.0986 103.958 57.8779 100.716 57.8779 98.0633C57.8812 97.3645 57.8192 96.6671 57.6925 95.9804L62.6662 100.642ZM54.7527 93.2359C57.1722 95.5005 56.9784 100.552 54.2183 107.098C51.3255 113.961 46.005 121.722 39.2361 128.956C32.4672 136.191 25.0761 142.014 18.4276 145.356C12.079 148.543 7.05234 149.071 4.63285 146.808C3.50674 145.755 2.94777 144.101 2.94777 141.973C2.94777 139.525 3.69034 136.448 5.1653 132.945C8.05807 126.084 13.3785 118.32 20.1474 111.086C26.9163 103.851 34.3094 98.0284 40.9559 94.6866C47.3086 91.5 52.3331 90.9713 54.7527 93.2359Z" fill="#1E1E1E"/>
<path d="M54.7532 93.2359C57.1727 95.5005 56.9789 100.552 54.2189 107.098C51.326 113.961 46.0055 121.722 39.2366 128.956C32.4677 136.191 25.0766 142.014 18.4281 145.356C12.0795 148.543 7.05281 149.071 4.63332 146.808C3.50721 145.755 2.94824 144.101 2.94824 141.973C2.94824 139.525 3.69082 136.448 5.16577 132.945C8.05855 126.084 13.379 118.32 20.1479 111.086C26.9167 103.851 34.3099 98.0283 40.9563 94.6866C47.3091 91.4996 52.3336 90.9713 54.7532 93.2359Z" fill="white"/>
<path d="M57.6873 95.9822L62.6671 100.642C65.0862 102.906 64.8924 107.958 62.1323 114.504C59.2395 121.364 53.9192 129.128 47.1502 136.362C40.3814 143.597 32.9883 149.42 26.3418 152.762C19.9932 155.949 14.9645 156.477 12.545 154.212L7.56934 149.555C10.5559 149.916 14.483 148.942 19.069 146.633C25.8706 143.218 33.4045 137.287 40.2855 129.931C47.1665 122.577 52.585 114.667 55.5408 107.652C57.0994 103.957 57.8788 100.715 57.8788 98.0632C57.8802 97.3649 57.8159 96.6684 57.6873 95.9822Z" fill="#0096FF"/>
<path d="M531.05 80.1648H491.454C489.139 80.1648 487.262 82.042 487.262 84.3577V107.651C487.262 109.967 489.139 111.844 491.454 111.844H531.05C533.366 111.844 535.243 109.967 535.243 107.651V84.3577C535.243 82.042 533.366 80.1648 531.05 80.1648Z" fill="#0096FF" stroke="#1E1E1E" stroke-width="2"/>
<path d="M531.516 107.651L534.078 110.912" stroke="#1E1E1E" stroke-width="2"/>
<path d="M489.125 77.8354H528.721C531.036 77.8354 532.913 79.7125 532.913 82.0283V105.322C532.913 107.638 531.036 109.515 528.721 109.515H489.125C486.81 109.515 484.933 107.638 484.933 105.322V82.0283C484.933 79.7125 486.81 77.8354 489.125 77.8354Z" fill="white" stroke="#1E1E1E" stroke-width="2"/>
<path d="M501.36 102V98.568H492.912V96.696L500.976 85.2H503.736V96.48H506.136V98.568H503.736V102H501.36ZM495.528 96.48H501.48V87.84L495.528 96.48ZM508.9 102.12C508.436 102.12 508.052 101.976 507.748 101.688C507.46 101.384 507.316 101.024 507.316 100.608C507.316 100.176 507.46 99.816 507.748 99.528C508.052 99.224 508.436 99.072 508.9 99.072C509.364 99.072 509.74 99.224 510.028 99.528C510.316 99.816 510.46 100.176 510.46 100.608C510.46 101.024 510.316 101.384 510.028 101.688C509.74 101.976 509.364 102.12 508.9 102.12ZM518.378 102.288C516.874 102.288 515.57 101.928 514.466 101.208C513.378 100.472 512.538 99.456 511.946 98.16C511.37 96.848 511.082 95.328 511.082 93.6C511.082 91.872 511.37 90.36 511.946 89.064C512.538 87.752 513.378 86.736 514.466 86.016C515.554 85.28 516.858 84.912 518.378 84.912C519.898 84.912 521.194 85.28 522.266 86.016C523.354 86.736 524.186 87.752 524.762 89.064C525.354 90.36 525.65 91.872 525.65 93.6C525.65 95.328 525.354 96.848 524.762 98.16C524.186 99.456 523.354 100.472 522.266 101.208C521.194 101.928 519.898 102.288 518.378 102.288ZM518.378 100.152C519.306 100.152 520.13 99.888 520.85 99.36C521.586 98.832 522.162 98.08 522.578 97.104C522.994 96.128 523.202 94.96 523.202 93.6C523.202 92.24 522.994 91.072 522.578 90.096C522.162 89.12 521.586 88.376 520.85 87.864C520.13 87.336 519.306 87.072 518.378 87.072C517.434 87.072 516.594 87.336 515.858 87.864C515.138 88.376 514.57 89.12 514.154 90.096C513.738 91.072 513.53 92.24 513.53 93.6C513.53 94.96 513.738 96.128 514.154 97.104C514.57 98.08 515.138 98.832 515.858 99.36C516.594 99.888 517.434 100.152 518.378 100.152Z" fill="#0096FF"/>
</g>
<defs>
<clipPath id="clip0_2005_446">
<rect width="559" height="157" fill="white" transform="translate(0 0.5)"/>
</clipPath>
</defs>
</svg>
