<svg width="50" height="50" viewBox="0 0 50 50" fill="none" xmlns="http://www.w3.org/2000/svg">
<circle cx="25" cy="25" r="25" fill="white"/>
<path d="M12.5 24C11.9477 24 11.5 24.4477 11.5 25C11.5 25.5523 11.9477 26 12.5 26V24ZM38.2071 25.7071C38.5976 25.3166 38.5976 24.6834 38.2071 24.2929L31.8431 17.9289C31.4526 17.5384 30.8195 17.5384 30.4289 17.9289C30.0384 18.3195 30.0384 18.9526 30.4289 19.3431L36.0858 25L30.4289 30.6569C30.0384 31.0474 30.0384 31.6805 30.4289 32.0711C30.8195 32.4616 31.4526 32.4616 31.8431 32.0711L38.2071 25.7071ZM12.5 26H37.5V24H12.5V26Z" fill="black"/>
</svg>
