<svg width="1948" height="622" viewBox="0 0 1948 622" fill="none" xmlns="http://www.w3.org/2000/svg">
<g clip-path="url(#clip0_506_38)">
<path fill-rule="evenodd" clip-rule="evenodd" d="M0 56.0967H494.3L494.294 451.073L386.7 560.967H0V56.0967ZM324.829 250.521V384.416H349.563V366.878C349.563 361.071 349.579 355.265 349.594 349.459V349.421C349.624 337.786 349.654 326.142 349.563 314.508C349.563 309.455 350.954 307.333 356.291 307.408C375.229 307.66 394.178 307.66 413.136 307.408C418.485 307.408 419.938 309.511 419.882 314.538C419.812 323.761 419.799 332.982 419.786 342.203C419.768 355.542 419.748 368.88 419.555 382.218C419.269 385.852 417.762 389.274 415.288 391.901C400.763 407.059 385.898 421.92 371.051 436.742C369.237 438.557 366.864 439.673 364.336 439.901C330.521 440.081 296.694 440.033 262.904 439.984L257.855 439.976C256.914 439.824 255.994 439.554 255.116 439.174C255.061 438.518 254.993 437.853 254.925 437.181C254.76 435.566 254.59 433.908 254.59 432.226C254.59 415.964 254.574 397.185 254.556 377.486C254.518 335.043 254.477 288.328 254.59 253.301C254.307 248.792 255.576 244.324 258.177 240.669C277.281 219.639 285.464 211.757 295.591 202.002C297.766 199.908 300.031 197.726 302.513 195.309L303.515 194.277C307.927 189.717 309.175 188.428 314.546 188.469C346.874 188.764 379.208 188.764 411.547 188.469C418.195 188.469 420.056 190.635 419.994 197.223C419.684 225.96 419.654 254.692 419.902 283.421C419.902 289.25 418.349 291.524 412.351 291.429C393.944 291.113 375.537 291.113 357.126 291.429C351.252 291.524 349.211 289.472 349.396 283.535C349.605 278.561 349.549 273.572 349.495 268.586C349.451 264.708 349.408 260.829 349.489 256.958C349.582 252.644 348.253 250.389 343.733 250.497C339.54 250.588 335.315 250.566 330.939 250.543C328.939 250.533 326.903 250.521 324.829 250.521ZM74.3393 189.793C76.5706 189.38 78.823 189.095 81.0856 188.94C87.3162 188.94 93.545 188.953 99.7718 188.966C112.22 188.991 124.661 189.016 137.097 188.94C142.432 188.94 145.079 190.646 144.331 196.368C144.275 197.173 144.275 197.981 144.331 198.787C144.331 209.28 144.331 214.465 146.897 217.023C149.403 219.52 154.358 219.513 164.15 219.496H164.44C186.289 219.496 208.11 219.524 229.905 219.578C231.705 219.578 233.508 219.706 235.552 219.852C236.715 219.935 237.958 220.023 239.323 220.097C239.323 223.315 239.337 226.506 239.351 229.675C239.399 239.967 239.446 250.014 238.982 259.943C238.982 261.522 234.252 264.111 231.68 264.143C212.413 264.395 193.129 264.392 173.868 264.389C167.628 264.388 161.392 264.388 155.158 264.395H145.03V377.934H168.849C168.89 376.994 168.944 376.053 168.999 375.11C169.109 373.213 169.219 371.31 169.219 369.42C169.219 363.071 169.232 356.73 169.247 350.393C169.282 333.089 169.319 315.809 169.083 298.513C168.991 292.198 170.796 290.062 177.122 290.201C195.106 290.566 213.119 290.463 231.117 290.358L233.133 290.347C237.511 290.347 240.033 291.325 240.003 296.524C239.635 343.517 239.347 390.508 239.137 437.498C238.939 438.429 238.654 439.339 238.284 440.214H231.093C198.484 440.214 165.878 440.256 133.275 440.34C131.278 440.241 129.324 439.712 127.54 438.79C125.757 437.866 124.183 436.57 122.924 434.984C107.222 419.919 92.5069 403.817 78.8719 386.783C76.1628 382.318 74.6687 377.197 74.5434 371.947C74.3097 332.137 74.3481 279.115 74.3811 233.718C74.3901 221.464 74.3986 209.759 74.4011 199.027L74.3393 189.793Z" fill="#96D7FF"/>
<path d="M1483.81 2.91992C1482.18 -0.973307 1476.73 -0.973303 1475.09 2.91992L1466.51 23.4641C1466.04 24.5725 1465.19 25.4637 1464.1 25.9594L1444.05 35.1201C1440.33 36.814 1440.33 42.1331 1444.05 43.8269L1464.1 52.9876C1465.19 53.4834 1466.04 54.3746 1466.51 55.483L1475.09 76.0271C1476.73 79.9203 1482.18 79.9203 1483.81 76.0271L1492.4 55.483C1492.86 54.3746 1493.72 53.4834 1494.81 52.9876L1514.86 43.8269C1518.57 42.1331 1518.57 36.814 1514.86 35.1201L1494.81 25.9594C1493.72 25.4637 1492.86 24.5725 1492.4 23.4641L1483.81 2.91992Z" fill="#96D7FF"/>
<path d="M1086.98 262.128C1069.28 262.128 1055.5 257.049 1045.65 246.89C1035.79 236.529 1030.86 222.307 1030.86 204.225V144.799H1011.55V107.01H1035.39L1063.45 49.4121H1093.92V107.01H1128.93V144.799H1093.92V196.606C1093.92 201.686 1095.54 205.647 1098.75 208.492C1101.97 211.336 1106.49 212.758 1112.33 212.758C1117.77 212.758 1122.69 211.54 1127.12 209.101L1129.53 251.767C1124.5 254.814 1117.96 257.353 1109.91 259.385C1102.07 261.213 1094.43 262.128 1086.98 262.128Z" fill="#0C162C"/>
<path d="M787.22 50.0215H641.48V259.69H787.22V213.368H714.803V172.836H780.883V134.437H714.803V96.3435H787.22V50.0215Z" fill="#0C162C"/>
<path d="M877.055 109.143H816.406V259.69H880.073V188.378C880.073 180.861 881.481 174.156 884.298 168.265C887.315 162.373 891.137 157.903 895.763 154.856C900.39 151.605 905.117 149.98 909.945 149.98C916.583 149.98 921.712 152.316 925.333 156.989C929.155 161.662 931.067 168.366 931.067 177.102V259.69H994.432V183.502C994.432 158.918 988.9 139.719 977.836 125.904C966.973 111.886 951.886 104.876 932.576 104.876C907.229 104.876 888.722 116.66 877.055 140.228V109.143Z" fill="#0C162C"/>
<path fill-rule="evenodd" clip-rule="evenodd" d="M1182.58 252.071C1195.66 258.776 1210.54 262.127 1227.23 262.127C1249.56 262.127 1270.09 257.963 1288.78 249.633L1281.25 208.796C1265.36 215.907 1250.57 219.463 1236.89 219.463C1228.04 219.463 1220.9 217.939 1215.47 214.891C1210.03 211.641 1206.12 206.46 1203.7 199.35L1294.22 187.464C1294.62 185.839 1294.82 183.197 1294.82 179.541C1294.82 165.522 1292.2 152.926 1286.98 141.751C1281.74 130.374 1273.8 121.435 1263.15 114.934C1252.69 108.229 1240 104.876 1225.12 104.876C1209.64 104.876 1195.55 108.128 1182.88 114.628C1170.21 121.13 1160.15 130.374 1152.71 142.361C1145.26 154.347 1141.54 168.061 1141.54 183.502C1141.54 198.537 1145.16 212.047 1152.4 224.034C1159.65 235.818 1169.7 245.163 1182.58 252.071ZM1225.12 141.751C1237.19 141.751 1244.83 148.151 1248.05 160.95L1201.29 171.312C1201.49 162.576 1203.7 155.465 1207.92 149.98C1212.14 144.494 1217.88 141.751 1225.12 141.751Z" fill="#0C162C"/>
<path d="M1316.75 109.143H1380.41V140.228C1385.04 128.241 1391.28 119.403 1399.12 113.714C1407.17 107.822 1416.52 104.876 1427.18 104.876L1435.94 154.551C1416.83 154.551 1402.74 156.684 1393.69 160.95C1384.85 165.013 1380.41 171.515 1380.41 180.455V263.499H1316.75V109.143Z" fill="#0C162C"/>
<path d="M1622.27 109.143H1561.62V259.69H1625.28V188.378C1625.28 180.861 1626.69 174.156 1629.51 168.265C1632.53 162.373 1636.35 157.903 1640.98 154.856C1645.6 151.605 1650.33 149.98 1655.15 149.98C1661.8 149.98 1666.92 152.316 1670.54 156.989C1674.37 161.662 1676.27 168.366 1676.27 177.102V259.69H1739.65V183.502C1739.65 158.918 1734.11 139.719 1723.05 125.904C1712.18 111.886 1697.09 104.876 1677.79 104.876C1652.44 104.876 1633.94 116.66 1622.27 140.228V109.143Z" fill="#0C162C"/>
<path d="M703.035 566.878C685.333 566.878 671.554 561.798 661.697 551.64C651.84 541.278 646.912 527.057 646.912 508.975V449.549H627.601V411.76H651.438L679.5 354.162H709.975V411.76H744.977V449.549H709.975V501.357C709.975 506.436 711.584 510.398 714.803 513.242C718.022 516.086 722.548 517.508 728.382 517.508C733.813 517.508 738.741 516.29 743.166 513.851L745.58 556.516C740.552 559.563 734.014 562.104 725.967 564.135C718.122 565.964 710.478 566.878 703.035 566.878Z" fill="#0C162C"/>
<path fill-rule="evenodd" clip-rule="evenodd" d="M798.627 556.821C811.702 563.526 826.588 566.878 843.284 566.878C865.613 566.878 886.131 562.713 904.839 554.383L897.295 513.547C881.404 520.657 866.618 524.213 852.94 524.213C844.089 524.213 836.948 522.689 831.517 519.642C826.085 516.391 822.162 511.21 819.749 504.099L910.27 492.214C910.673 490.589 910.874 487.947 910.874 484.29C910.874 470.272 908.259 457.675 903.029 446.502C897.799 435.124 889.852 426.185 879.191 419.683C868.731 412.979 856.058 409.626 841.172 409.626C825.683 409.626 811.602 412.878 798.929 419.379C786.255 425.88 776.198 435.124 768.755 447.111C761.312 459.098 757.59 472.811 757.59 488.253C757.59 503.286 761.211 516.797 768.454 528.784C775.695 540.567 785.753 549.914 798.627 556.821ZM841.172 446.502C853.241 446.502 860.886 452.901 864.104 465.701L817.335 476.063C817.536 467.326 819.749 460.215 823.974 454.73C828.197 449.244 833.931 446.502 841.172 446.502Z" fill="#0C162C"/>
<path d="M1007.33 566.878C991.236 566.878 976.953 563.627 964.482 557.126C952.211 550.422 942.555 541.075 935.515 529.088C928.676 517.102 925.255 503.49 925.255 488.253C925.255 473.624 928.876 460.317 936.119 448.33C943.36 436.343 953.217 426.896 965.689 419.988C978.161 413.081 992.04 409.626 1007.33 409.626C1026.84 409.626 1042.23 413.69 1053.49 421.816L1047.76 462.349C1036.3 458.895 1026.84 457.168 1019.4 457.168C1009.74 457.168 1002.1 460.012 996.466 465.701C990.834 471.186 988.017 478.703 988.017 488.253C988.017 497.801 990.834 505.42 996.466 511.109C1002.1 516.797 1009.54 519.642 1018.79 519.642C1026.84 519.642 1036.3 517.915 1047.16 514.461L1052.89 557.126C1046.06 560.58 1039.12 563.018 1032.07 564.44C1025.03 566.065 1016.78 566.878 1007.33 566.878Z" fill="#0C162C"/>
<path d="M1138.79 354.162L1075.12 363.61V564.44H1138.79V493.128C1138.79 485.611 1140.2 478.906 1143.01 473.015C1146.03 467.123 1149.86 462.653 1154.48 459.606C1159.11 456.355 1163.84 454.73 1168.66 454.73C1175.3 454.73 1180.43 457.066 1184.05 461.739C1187.87 466.412 1189.78 473.117 1189.78 481.852V564.44H1189.88C1190.59 581.187 1195.29 594.596 1203.97 604.667C1213.42 615.638 1226.59 621.123 1243.49 621.123C1251.13 621.123 1258.48 620.209 1265.52 618.381C1272.76 616.552 1278.6 613.911 1283.02 610.457L1279.7 568.097C1275.47 570.535 1271.35 571.754 1267.33 571.754C1263.31 571.754 1259.99 570.535 1257.37 568.097C1254.96 565.455 1253.75 561.798 1253.75 557.125L1253.15 557.152V488.253C1253.15 463.669 1247.61 444.47 1236.55 430.655C1225.69 416.635 1210.6 409.626 1191.29 409.626C1178.62 409.626 1167.76 412.572 1158.71 418.465C1149.86 424.153 1143.21 432.381 1138.79 443.149V354.162Z" fill="#0C162C"/>
<path fill-rule="evenodd" clip-rule="evenodd" d="M1834.55 259.69C1858.89 259.69 1876.99 251.258 1888.86 234.396C1887.65 251.868 1883.83 264.261 1877.4 271.575C1870.95 279.093 1861.5 282.85 1849.03 282.85C1842.39 282.85 1835.15 282.242 1827.31 281.022L1822.48 326.125C1832.53 328.36 1843.09 329.478 1854.16 329.478C1884.73 329.478 1907.96 320.234 1923.86 301.745C1939.95 283.46 1948 256.541 1948 220.986V104.876H1884.33V140.228C1881.51 129.46 1875.48 120.926 1866.22 114.628C1857.17 108.128 1846.51 104.876 1834.25 104.876C1820.96 104.876 1808.7 108.331 1797.44 115.238C1786.37 122.146 1777.62 131.593 1771.18 143.58C1764.75 155.364 1761.53 168.366 1761.53 182.588C1761.53 196.606 1764.75 209.507 1771.18 221.291C1777.81 233.075 1786.67 242.42 1797.73 249.328C1809 256.235 1821.27 259.69 1834.55 259.69ZM1839.86 148.247C1841.49 144.343 1846.97 144.343 1848.6 148.247L1857.21 168.85C1857.67 169.962 1858.53 170.855 1859.62 171.352L1879.74 180.54C1883.45 182.238 1883.45 187.573 1879.74 189.271L1859.62 198.458C1858.53 198.955 1857.67 199.849 1857.21 200.96L1848.6 221.563C1846.97 225.467 1841.49 225.467 1839.86 221.563L1831.24 200.96C1830.79 199.849 1829.91 198.955 1828.83 198.458L1808.72 189.271C1804.99 187.573 1804.99 182.238 1808.72 180.54L1828.83 171.352C1829.91 170.855 1830.79 169.962 1831.24 168.85L1839.86 148.247Z" fill="#0C162C"/>
<path d="M1450.8 107.01V200.873C1450.8 219.767 1455.53 234.7 1464.99 245.671C1474.44 256.642 1487.62 262.127 1504.52 262.127C1512.17 262.127 1519.5 261.213 1526.54 259.385C1533.79 257.556 1539.62 254.915 1544.04 251.461L1540.73 209.101C1536.51 211.539 1532.38 212.758 1528.36 212.758C1524.33 212.758 1521.01 211.539 1518.4 209.101C1515.98 206.46 1514.77 202.803 1514.77 198.13V107.01H1450.8Z" fill="#0C162C"/>
</g>
<defs>
<clipPath id="clip0_506_38">
<rect width="1948" height="622" fill="white"/>
</clipPath>
</defs>
</svg>
