<svg width="82" height="82" viewBox="0 0 82 82" fill="none" xmlns="http://www.w3.org/2000/svg">
<path fill-rule="evenodd" clip-rule="evenodd" d="M20.5 0C15.0631 0 9.84881 2.15982 6.00431 6.00431C2.15982 9.84881 0 15.0631 0 20.5L0 61.5C0 66.9369 2.15982 72.1512 6.00431 75.9957C9.84881 79.8402 15.0631 82 20.5 82H61.5C66.9369 82 72.1512 79.8402 75.9957 75.9957C79.8402 72.1512 82 66.9369 82 61.5V20.5C82 15.0631 79.8402 9.84881 75.9957 6.00431C72.1512 2.15982 66.9369 0 61.5 0L20.5 0ZM55.0938 10.25C56.1132 10.25 57.0908 10.655 57.8117 11.3758C58.5325 12.0967 58.9375 13.0743 58.9375 14.0938V22.7601C59.0438 22.8553 59.1447 22.9562 59.2399 23.0625H67.9062C68.9257 23.0625 69.9033 23.4675 70.6242 24.1883C71.345 24.9092 71.75 25.8868 71.75 26.9062C71.75 27.9257 71.345 28.9033 70.6242 29.6242C69.9033 30.345 68.9257 30.75 67.9062 30.75H56.6825L48.4312 39.0064C48.7351 40.146 48.7731 41.3401 48.5422 42.4967C48.3113 43.6533 47.8178 44.7413 47.0996 45.6769C46.3815 46.6125 45.458 47.3705 44.4004 47.8925C43.3428 48.4145 42.1794 48.6865 41 48.6875C39.9077 48.6839 38.8288 48.4475 37.835 47.9942C36.8413 47.5409 35.9555 46.8811 35.2368 46.0586C34.5181 45.2361 33.9829 44.2699 33.6668 43.2244C33.3508 42.1788 33.2612 41.0779 33.404 39.995C33.5468 38.9121 33.9187 37.8721 34.4949 36.9442C35.0712 36.0164 35.8386 35.2219 36.7459 34.6139C37.6533 34.0058 38.6798 33.5981 39.7571 33.4179C40.8344 33.2377 41.9378 33.2891 42.9936 33.5688L51.25 25.3175V14.0938C51.25 13.0743 51.655 12.0967 52.3758 11.3758C53.0967 10.655 54.0743 10.25 55.0938 10.25ZM43.993 19.0855C44.0129 19.5899 43.9333 20.0934 43.7586 20.567C43.5839 21.0407 43.3176 21.4753 42.975 21.846C42.6323 22.2168 42.22 22.5164 41.7615 22.7277C41.3031 22.9391 40.8074 23.0581 40.303 23.0779C36.8167 23.213 33.4454 24.3619 30.6021 26.3839C27.7588 28.406 25.5669 31.2133 24.2949 34.4621C23.0228 37.7109 22.7259 41.2602 23.4403 44.6752C24.1548 48.0902 25.8497 51.2227 28.3175 53.6891C30.7852 56.1555 33.9187 57.8487 37.3341 58.5613C40.7495 59.2739 44.2986 58.975 47.5467 57.7011C50.7948 56.4273 53.601 54.2339 55.6214 51.3895C57.6419 48.5451 58.7889 45.1732 58.9221 41.6867C58.9615 40.6673 59.4043 39.7053 60.153 39.0123C60.9017 38.3194 61.8951 37.9522 62.9145 37.9916C63.9339 38.031 64.8959 38.4738 65.5889 39.2225C66.2819 39.9712 66.649 40.9646 66.6096 41.984C66.4184 46.9641 64.7792 51.7805 61.8925 55.8432C59.0059 59.9059 54.9972 63.0387 50.3573 64.8579C45.7173 66.6771 40.6476 67.1038 35.7689 66.0857C30.8902 65.0676 26.4142 62.649 22.8891 59.1259C19.364 55.6028 16.9428 51.1283 15.9219 46.2502C14.901 41.372 15.3247 36.3021 17.1413 31.6611C18.9578 27.0201 22.0883 23.0096 26.1493 20.1206C30.2104 17.2316 35.0257 15.5895 40.0058 15.3955C41.0237 15.3567 42.0153 15.7235 42.763 16.4154C43.5106 17.1073 43.953 18.0676 43.993 19.0855Z" fill="#122C47"/>
</svg>
