<svg width="49" height="49" viewBox="0 0 49 49" fill="none" xmlns="http://www.w3.org/2000/svg">
<path d="M35.7359 29.9865C38.8238 30.5039 42.2273 29.964 44.6165 28.3667C47.7945 26.252 47.7945 22.7874 44.6165 20.6727C42.2047 19.0754 38.7562 18.5354 35.6683 19.0754M13.2641 29.9865C10.1762 30.5039 6.77273 29.964 4.38355 28.3667C1.20548 26.252 1.20548 22.7874 4.38355 20.6727C6.79527 19.0754 10.2438 18.5354 13.3317 19.0754M38.0575 13.6085C37.9156 13.586 37.7711 13.586 37.6292 13.6085C36.125 13.5543 34.7009 12.9184 33.6578 11.8352C32.6147 10.7521 32.0344 9.30664 32.0394 7.80427C32.0394 4.58718 34.6315 2 37.8546 2C39.3969 2 40.876 2.61152 41.9666 3.70003C43.0571 4.78855 43.6698 6.26488 43.6698 7.80427C43.6657 9.3077 43.0793 10.7513 42.0332 11.8331C40.9872 12.9149 39.5626 13.5511 38.0575 13.6085ZM10.9425 13.6085C11.0778 13.5861 11.2355 13.5861 11.3708 13.6085C12.875 13.5543 14.2991 12.9184 15.3422 11.8352C16.3853 10.7521 16.9656 9.30664 16.9606 7.80427C16.9606 4.58718 14.3685 2 11.1454 2C9.6031 2 8.12399 2.61152 7.03343 3.70003C5.94287 4.78855 5.3302 6.26488 5.3302 7.80427C5.35274 10.9539 7.83208 13.4961 10.9425 13.6085ZM24.5338 30.4139C24.392 30.3914 24.2474 30.3914 24.1056 30.4139C22.6014 30.3597 21.1772 29.7238 20.1341 28.6406C19.091 27.5575 18.5107 26.112 18.5158 24.6097C18.5158 21.3926 21.1078 18.8054 24.331 18.8054C25.8732 18.8054 27.3523 19.4169 28.4429 20.5054C29.5335 21.5939 30.1461 23.0703 30.1461 24.6097C30.1236 27.7593 27.6443 30.324 24.5338 30.4139ZM17.9748 37.5006C14.7968 39.6153 14.7968 43.0799 17.9748 45.1946C21.5811 47.6018 27.4865 47.6018 31.0928 45.1946C34.2708 43.0799 34.2708 39.6153 31.0928 37.5006C27.509 35.1159 21.5811 35.1159 17.9748 37.5006Z" stroke="#F0EFDA" stroke-width="3" stroke-linejoin="round"/>
</svg>
