<svg width="15" height="17" viewBox="0 0 15 17" fill="none" xmlns="http://www.w3.org/2000/svg">
<path d="M5.921 16.296C4.333 15.9413 3.03233 15.1367 2.019 13.882C1.00567 12.6273 0.499334 11.1667 0.500001 9.49999C0.500001 8.65265 0.655334 7.83832 0.966001 7.05699C1.276 6.27499 1.70333 5.55799 2.248 4.90599C2.34133 4.79532 2.451 4.73899 2.577 4.73699C2.703 4.73499 2.823 4.79132 2.937 4.90599C3.03033 4.99932 3.078 5.11199 3.08 5.24399C3.082 5.37599 3.036 5.50099 2.942 5.61899C2.46533 6.14832 2.10567 6.74699 1.863 7.41499C1.621 8.08365 1.5 8.77865 1.5 9.49999C1.5 10.9013 1.93433 12.144 2.803 13.228C3.67167 14.312 4.776 15.0137 6.116 15.333C6.22933 15.361 6.32167 15.422 6.393 15.516C6.46433 15.61 6.5 15.7137 6.5 15.827C6.5 15.9937 6.44433 16.1247 6.333 16.22C6.22167 16.3153 6.08433 16.3407 5.921 16.296ZM9.079 16.334C8.91634 16.3793 8.779 16.3533 8.667 16.256C8.555 16.1587 8.49933 16.0267 8.5 15.86C8.5 15.7493 8.53567 15.6473 8.607 15.554C8.67833 15.4607 8.771 15.3933 8.885 15.352C10.2117 14.9653 11.3123 14.2403 12.187 13.177C13.0617 12.1137 13.4993 10.888 13.5 9.49999C13.5 7.83332 12.9167 6.41665 11.75 5.24999C10.5833 4.08332 9.16667 3.49999 7.5 3.49999H6.867L8.113 4.74599C8.21967 4.85265 8.273 4.97065 8.273 5.09999C8.273 5.22932 8.21967 5.34732 8.113 5.45399C8.00633 5.56065 7.88867 5.61399 7.76 5.61399C7.63067 5.61399 7.51267 5.56065 7.406 5.45399L5.517 3.56499C5.43033 3.47832 5.36933 3.38932 5.334 3.29799C5.29867 3.20665 5.28067 3.10732 5.28 2.99999C5.27933 2.89265 5.297 2.79332 5.333 2.70199C5.369 2.61065 5.43 2.52132 5.516 2.43399L7.405 0.545986C7.51167 0.43932 7.62967 0.385986 7.759 0.385986C7.88833 0.385986 8.00633 0.43932 8.113 0.545986C8.21967 0.652653 8.27267 0.770653 8.272 0.899987C8.27133 1.02932 8.218 1.14732 8.112 1.25399L6.868 2.49999H7.5C9.45133 2.49999 11.106 3.17865 12.464 4.53599C13.822 5.89332 14.5007 7.54799 14.5 9.49999C14.5 11.15 13.9903 12.6 12.971 13.85C11.9517 15.1 10.6543 15.9273 9.079 16.334Z" fill="#100F21"/>
</svg>
