<svg width="147" height="64" viewBox="0 0 147 64" fill="none" xmlns="http://www.w3.org/2000/svg">
<g clip-path="url(#clip0_13_247)">
<path d="M18.2435 47.539V62.3471L0.0621948 35.9663L18.2435 47.539Z" fill="url(#paint0_linear_13_247)"/>
<path d="M36.3 35.9663L18.2435 62.3471V47.539L36.3 35.9663Z" fill="url(#paint1_linear_13_247)"/>
<path d="M36.3 32.233L18.2435 21.9048V43.8056L36.3 32.233Z" fill="url(#paint2_linear_13_247)"/>
<path d="M36.3 32.2329L18.2435 0.75V21.9047L36.3 32.2329Z" fill="url(#paint3_linear_13_247)"/>
<path d="M18.2435 0.75V21.9047L0.0621948 32.2329L18.2435 0.75Z" fill="url(#paint4_linear_13_247)"/>
<path d="M18.2435 21.9048V43.8056L0.0621948 32.233L18.2435 21.9048Z" fill="url(#paint5_linear_13_247)"/>
<path d="M45.274 11.979C45.274 10.9474 45.4854 10.0335 45.9083 9.23765C46.3312 8.44219 46.922 7.82695 47.6811 7.39154C48.4398 6.95652 49.3171 6.73901 50.3125 6.73901C51.2703 6.73901 52.1258 6.96274 52.8787 7.41057C53.6312 7.85802 54.2192 8.48608 54.6421 9.29397C55.065 10.1023 55.2765 11.022 55.2765 12.054V12.837H47.9423C47.9796 13.4589 48.216 13.9623 48.6517 14.3476C49.087 14.7333 49.6591 14.9255 50.3685 14.9255C50.866 14.9255 51.3262 14.8168 51.7495 14.5993C52.1724 14.3817 52.6326 14.0058 53.1305 13.4713L54.7914 15.1683C54.2188 15.8025 53.5596 16.2966 52.8134 16.6508C52.0671 17.0051 51.2516 17.1822 50.3685 17.1822C49.3606 17.1822 48.4713 16.9643 47.6998 16.5293C46.9282 16.0942 46.3312 15.4821 45.9083 14.6925C45.4854 13.9032 45.274 12.9986 45.274 11.979ZM52.5895 10.8973C52.5397 10.3504 52.3003 9.89678 51.8708 9.53595C51.4417 9.17551 50.922 8.99528 50.3125 8.99528C49.6782 8.99528 49.1554 9.16929 48.745 9.51731C48.3345 9.86532 48.0795 10.3256 47.98 10.8973H52.5895Z" fill="#30354B"/>
<path d="M56.9746 11.9603C56.9746 10.9411 57.1861 10.0365 57.609 9.24687C58.0319 8.45763 58.6262 7.842 59.3911 7.40076C60.156 6.95953 61.0302 6.73853 62.0132 6.73853C63.1703 6.73853 64.1654 7.05547 64.9991 7.68974C65.8324 8.32362 66.3988 9.17541 66.6973 10.2447L64.1222 10.9532C63.9978 10.4063 63.7611 9.97398 63.4129 9.65703C63.0646 9.34009 62.5978 9.18162 62.0132 9.18162C61.2669 9.18162 60.6851 9.4271 60.2684 9.91804C59.8513 10.4094 59.6434 11.0899 59.6434 11.9599C59.6434 12.8299 59.8517 13.5108 60.2684 14.0018C60.6851 14.4931 61.2669 14.7382 62.0132 14.7382C62.5978 14.7382 63.0642 14.5797 63.4129 14.2628C63.7611 13.9459 63.9974 13.5139 64.1222 12.9667L66.6973 13.6751C66.3988 14.7444 65.8324 15.5958 64.9991 16.2301C64.1654 16.864 63.1703 17.1813 62.0132 17.1813C61.0302 17.1813 60.1564 16.9603 59.3911 16.5191C58.6258 16.0778 58.0315 15.4626 57.609 14.673C57.1861 13.8837 56.9746 12.9791 56.9746 11.9595V11.9603Z" fill="#30354B"/>
<path d="M68.3022 11.9603C68.3022 10.9411 68.5136 10.0365 68.9365 9.24687C69.3594 8.45762 69.9537 7.842 70.7187 7.40076C71.4836 6.95953 72.3578 6.73853 73.3407 6.73853C74.3358 6.73853 75.2162 6.95953 75.9811 7.40076C76.7464 7.842 77.3403 8.45762 77.7632 9.24687C78.1861 10.0365 78.398 10.9411 78.398 11.9603C78.398 12.9795 78.1861 13.8845 77.7632 14.6737C77.3403 15.4634 76.7464 16.0786 75.9811 16.5198C75.2158 16.9611 74.3358 17.1821 73.3407 17.1821C72.3578 17.1821 71.484 16.9611 70.7187 16.5198C69.9533 16.0786 69.359 15.4634 68.9365 14.6737C68.5136 13.8845 68.3022 12.9799 68.3022 11.9603ZM75.7292 11.9603C75.7292 11.0903 75.5209 10.4094 75.1042 9.91843C74.6875 9.42748 74.0995 9.18201 73.3407 9.18201C72.5945 9.18201 72.0126 9.42748 71.5959 9.91843C71.1789 10.4098 70.9709 11.0903 70.9709 11.9603C70.9709 12.8303 71.1793 13.5112 71.5959 14.0022C72.0126 14.4935 72.5945 14.7386 73.3407 14.7386C74.087 14.7386 74.6716 14.49 75.0949 13.9928C75.5178 13.4957 75.7292 12.8179 75.7292 11.9603Z" fill="#30354B"/>
<path d="M79.8905 13.6387L82.3167 13.0794C82.4905 13.7013 82.8049 14.1767 83.2589 14.506C83.7133 14.8354 84.2881 15.0001 84.985 15.0001C85.6073 15.0001 86.0827 14.9255 86.4127 14.7764C86.7423 14.6272 86.9071 14.4159 86.9071 14.1421C86.9071 13.8318 86.7392 13.5921 86.4034 13.4243C86.0675 13.2565 85.4515 13.0856 84.5555 12.9116C83.0879 12.6382 82.0392 12.2587 81.4111 11.774C80.7829 11.2888 80.4685 10.6243 80.4685 9.77871C80.4685 9.18172 80.6426 8.65387 80.9913 8.19361C81.3395 7.73373 81.8277 7.37639 82.4562 7.12121C83.0844 6.86641 83.8031 6.73901 84.6119 6.73901C85.7193 6.73901 86.7019 7.01284 87.5605 7.55933C88.4187 8.1066 88.9971 8.83409 89.296 9.74142L87.0008 10.4872C86.8142 9.99 86.5122 9.6047 86.0955 9.33087C85.6789 9.05743 85.1782 8.92032 84.5936 8.92032C84.1082 8.92032 83.7226 8.99839 83.4365 9.15375C83.1501 9.30912 83.0074 9.52391 83.0074 9.79696C83.0074 10.0459 83.166 10.2479 83.4832 10.4033C83.8003 10.5586 84.376 10.7109 85.2093 10.86C86.7271 11.1459 87.8128 11.5405 88.4657 12.0439C89.1191 12.5473 89.4456 13.2468 89.4456 14.1417C89.4456 14.7511 89.2618 15.2856 88.8952 15.7455C88.5283 16.2057 88.0055 16.5599 87.3277 16.8081C86.6494 17.0567 85.8689 17.181 84.9858 17.181C83.6421 17.181 82.5254 16.8703 81.6361 16.2488C80.7464 15.627 80.1649 14.7569 79.8913 13.6379L79.8905 13.6387Z" fill="#30354B"/>
<path d="M94.6704 16.5105L90.7326 7.01855H93.5319L95.995 13.3403H96.0327L98.4772 7.01855H101.276L95.5286 21.098H92.7483L94.6704 16.5105Z" fill="#30354B"/>
<path d="M101.799 13.6387L104.225 13.0794C104.398 13.7013 104.713 14.1767 105.167 14.506C105.621 14.8354 106.196 15.0001 106.893 15.0001C107.515 15.0001 107.991 14.9255 108.321 14.7764C108.65 14.6272 108.815 14.4159 108.815 14.1421C108.815 13.8318 108.647 13.5921 108.311 13.4243C107.976 13.2565 107.359 13.0856 106.464 12.9116C104.996 12.6382 103.947 12.2587 103.319 11.774C102.691 11.2888 102.377 10.6243 102.377 9.77871C102.377 9.18172 102.551 8.65387 102.899 8.19361C103.248 7.73373 103.736 7.37639 104.364 7.12121C104.992 6.86641 105.711 6.73901 106.52 6.73901C107.627 6.73901 108.61 7.01284 109.468 7.55933C110.327 8.1066 110.905 8.83409 111.204 9.74142L108.909 10.4872C108.722 9.99 108.42 9.6047 108.004 9.33087C107.587 9.05743 107.086 8.92032 106.502 8.92032C106.016 8.92032 105.631 8.99839 105.345 9.15375C105.058 9.30912 104.915 9.52391 104.915 9.79696C104.915 10.0459 105.074 10.2479 105.391 10.4033C105.708 10.5586 106.284 10.7109 107.117 10.86C108.635 11.1459 109.721 11.5405 110.374 12.0439C111.027 12.5473 111.354 13.2468 111.354 14.1417C111.354 14.7511 111.17 15.2856 110.803 15.7455C110.436 16.2057 109.914 16.5599 109.236 16.8081C108.557 17.0567 107.777 17.181 106.894 17.181C105.55 17.181 104.433 16.8703 103.544 16.2488C102.654 15.627 102.073 14.7569 101.799 13.6379L101.799 13.6387Z" fill="#30354B"/>
<path d="M117.773 9.40542V13.3777C117.773 13.7133 117.851 13.9556 118.006 14.1052C118.162 14.2543 118.42 14.3289 118.781 14.3289H121.039V16.9021H118.539C117.444 16.9021 116.597 16.6442 116 16.128C115.403 15.6122 115.104 14.8758 115.104 13.9184V9.40542H112.679V7.01826H115.104V4.50098H117.773V7.01826H121.655V9.40542H117.773Z" fill="#30354B"/>
<path d="M123.446 11.979C123.446 10.9474 123.658 10.0335 124.081 9.23765C124.503 8.44219 125.095 7.82695 125.854 7.39154C126.612 6.95652 127.49 6.73901 128.485 6.73901C129.443 6.73901 130.298 6.96274 131.051 7.41057C131.804 7.85841 132.392 8.48608 132.815 9.29397C133.238 10.1023 133.449 11.022 133.449 12.054V12.837H126.116C126.153 13.4589 126.389 13.9623 126.825 14.3476C127.26 14.7333 127.832 14.9255 128.541 14.9255C129.039 14.9255 129.499 14.8168 129.922 14.5993C130.345 14.3817 130.806 14.0058 131.303 13.4713L132.964 15.1683C132.392 15.8025 131.733 16.2966 130.986 16.6508C130.24 17.0051 129.424 17.1822 128.541 17.1822C127.534 17.1822 126.644 16.9643 125.873 16.5293C125.102 16.0942 124.504 15.4821 124.082 14.6925C123.658 13.9032 123.447 12.9986 123.447 11.979H123.446ZM130.761 10.8973C130.711 10.3504 130.472 9.89678 130.043 9.53595C129.614 9.17551 129.094 8.99528 128.484 8.99528C127.85 8.99528 127.327 9.16929 126.917 9.51731C126.506 9.86532 126.251 10.3256 126.152 10.8973H130.761H130.761Z" fill="#30354B"/>
<path d="M135.24 7.01861H137.591V7.87622H137.629C137.84 7.54063 138.11 7.28273 138.44 7.10212C138.77 6.92229 139.134 6.83179 139.532 6.83179C140.316 6.83179 140.944 7.19845 141.417 7.93215H141.454C141.952 7.19883 142.636 6.83179 143.507 6.83179C144.228 6.83179 144.813 7.08658 145.262 7.59618C145.709 8.10616 145.934 8.77112 145.934 9.59144V16.9017H143.47V10.0583C143.47 9.77243 143.395 9.55493 143.246 9.40578C143.097 9.25663 142.885 9.18205 142.612 9.18205C142.35 9.18205 142.142 9.26595 141.986 9.43374C141.831 9.60153 141.753 9.82875 141.753 10.1142V16.9025H139.42V10.0583C139.42 9.78486 139.348 9.57085 139.206 9.4151C139.063 9.25973 138.86 9.18205 138.599 9.18205C138.325 9.18205 138.107 9.26595 137.946 9.43374C137.784 9.60153 137.703 9.82875 137.703 10.1142V16.9025H135.24V7.01861H135.24Z" fill="#30354B"/>
<path d="M45.5352 33.836L47.961 33.2767C48.1351 33.8989 48.4492 34.3739 48.9035 34.7033C49.3575 35.0331 49.9328 35.1974 50.6297 35.1974C51.2516 35.1974 51.7278 35.1232 52.0574 34.9736C52.387 34.8245 52.5518 34.6132 52.5518 34.3398C52.5518 34.029 52.3839 33.7894 52.048 33.6216C51.7122 33.4534 51.0965 33.2829 50.2006 33.1089C48.7325 32.8354 47.6842 32.456 47.0561 31.9712C46.428 31.4865 46.1139 30.8215 46.1139 29.976C46.1139 29.379 46.2881 28.8511 46.6363 28.3909C46.9846 27.931 47.4728 27.5737 48.1013 27.3185C48.7294 27.0637 49.4477 26.9363 50.2566 26.9363C51.3636 26.9363 52.3465 27.2101 53.2052 27.7566C54.0634 28.3039 54.6421 29.0314 54.9406 29.9387L52.6454 30.6848C52.4589 30.1877 52.1569 29.802 51.7402 29.5285C51.3231 29.2551 50.8225 29.118 50.2379 29.118C49.7528 29.118 49.3669 29.196 49.0808 29.3514C48.7943 29.5068 48.6517 29.7216 48.6517 29.9946C48.6517 30.2436 48.8103 30.4456 49.1274 30.6005C49.4446 30.7559 50.0199 30.9082 50.8536 31.0577C52.3714 31.3436 53.457 31.7382 54.11 32.242C54.763 32.7453 55.0899 33.4449 55.0899 34.3398C55.0899 34.9488 54.906 35.4836 54.5391 35.9435C54.1722 36.4038 53.6494 36.758 52.9716 37.0062C52.2933 37.2548 51.5128 37.3791 50.6293 37.3791C49.2856 37.3791 48.1689 37.0687 47.2796 36.4469C46.3899 35.8254 45.8088 34.955 45.5352 33.836Z" fill="#30354B"/>
<path d="M56.7881 33.7427V27.2158H59.4568V33.1274C59.4568 34.3334 60.0538 34.9362 61.2483 34.9362C61.7831 34.9362 62.2095 34.7715 62.5267 34.4422C62.8438 34.1128 63.0024 33.6747 63.0024 33.1274V27.2158H65.6712V37.0993H63.1144V36.2226H63.0771C62.803 36.5707 62.4268 36.8507 61.9479 37.062C61.4687 37.2733 60.968 37.3786 60.4456 37.3786C59.2761 37.3786 58.3743 37.0589 57.74 36.4184C57.1056 35.7779 56.7881 34.8861 56.7881 33.7419V33.7427Z" fill="#30354B"/>
<path d="M68.6753 27.2158H71.2321V28.0734H71.2694C72.0033 27.3153 72.9303 26.9358 74.0501 26.9358C74.9204 26.9358 75.7016 27.1537 76.3919 27.5883C77.0822 28.0237 77.6202 28.6359 78.0058 29.4251C78.3913 30.2147 78.5845 31.1252 78.5845 32.1568C78.5845 33.1519 78.3913 34.0468 78.0058 34.8423C77.6202 35.6381 77.0787 36.2596 76.3822 36.7074C75.6853 37.1545 74.8955 37.3786 74.012 37.3786C73.4523 37.3786 72.9485 37.2916 72.5004 37.1176C72.0526 36.9439 71.6795 36.7074 71.3806 36.4091H71.3433V41.2949H68.6745V27.2154L68.6753 27.2158ZM75.9158 32.1576C75.9158 31.3124 75.7039 30.6381 75.2811 30.1343C74.8582 29.631 74.2736 29.3793 73.5269 29.3793C72.9299 29.3793 72.4168 29.5879 71.9873 30.0038C71.5582 30.4206 71.3437 30.9271 71.3437 31.5237V32.8101C71.3437 33.1834 71.4432 33.531 71.6422 33.8541C71.8412 34.1777 72.1179 34.4387 72.4724 34.6376C72.8273 34.8368 73.2218 34.9362 73.6575 34.9362C74.354 34.9362 74.9048 34.6846 75.309 34.1812C75.7133 33.6774 75.9158 33.0035 75.9158 32.1576Z" fill="#30354B"/>
<path d="M80.3756 27.2158H82.9324V28.0734H82.9697C83.7039 27.3153 84.6306 26.9358 85.7504 26.9358C86.6206 26.9358 87.4019 27.1537 88.0922 27.5883C88.7825 28.0237 89.3205 28.6359 89.706 29.4251C90.0916 30.2147 90.2848 31.1252 90.2848 32.1568C90.2848 33.1519 90.0916 34.0468 89.706 34.8423C89.3205 35.6381 88.779 36.2596 88.0825 36.7074C87.3856 37.1545 86.5958 37.3786 85.7123 37.3786C85.1526 37.3786 84.6488 37.2916 84.2007 37.1176C83.7529 36.9439 83.3798 36.7074 83.0809 36.4091H83.0435V41.2949H80.3748V27.2154L80.3756 27.2158ZM87.6165 32.1576C87.6165 31.3124 87.4046 30.6381 86.9817 30.1343C86.5588 29.631 85.9743 29.3793 85.2276 29.3793C84.6306 29.3793 84.1175 29.5879 83.688 30.0038C83.2589 30.4206 83.0443 30.9271 83.0443 31.5237V32.8101C83.0443 33.1834 83.1438 33.531 83.3428 33.8541C83.5418 34.1777 83.819 34.4387 84.1735 34.6376C84.5279 34.8368 84.9228 34.9362 85.3586 34.9362C86.0551 34.9362 86.6059 34.6846 87.0101 34.1812C87.4143 33.6774 87.6168 33.0035 87.6168 32.1576H87.6165Z" fill="#30354B"/>
<path d="M92.0767 32.1577C92.0767 31.1385 92.2881 30.2343 92.7114 29.4446C93.1339 28.6554 93.7282 28.0398 94.4935 27.5985C95.2588 27.1573 96.1326 26.9363 97.1152 26.9363C98.1106 26.9363 98.9906 27.1573 99.756 27.5985C100.521 28.0398 101.115 28.6554 101.538 29.4446C101.961 30.2343 102.173 31.1385 102.173 32.1577C102.173 33.1769 101.961 34.0818 101.538 34.8711C101.115 35.6607 100.521 36.276 99.756 36.7172C98.9906 37.1584 98.1106 37.3791 97.1152 37.3791C96.1326 37.3791 95.2588 37.1584 94.4935 36.7172C93.7282 36.276 93.1339 35.6607 92.7114 34.8711C92.2881 34.0818 92.0767 33.1772 92.0767 32.1577ZM99.5037 32.1577C99.5037 31.288 99.2954 30.6071 98.8787 30.1158C98.462 29.6249 97.8739 29.3794 97.1152 29.3794C96.3689 29.3794 95.7871 29.6249 95.3708 30.1158C94.9537 30.6071 94.7458 31.288 94.7458 32.1577C94.7458 33.0273 94.9537 33.709 95.3708 34.1999C95.7871 34.6913 96.3689 34.9363 97.1152 34.9363C97.8615 34.9363 98.4465 34.6878 98.8698 34.1902C99.2926 33.6934 99.5041 33.0157 99.5041 32.1577H99.5037Z" fill="#30354B"/>
<path d="M104.225 27.2159H106.781V28.1299H106.819C107.242 27.7073 107.681 27.4024 108.135 27.2159C108.589 27.0295 109.108 26.9363 109.693 26.9363C110.551 26.9363 111.291 27.188 111.914 27.6913C112.536 28.1947 112.971 28.8818 113.22 29.7522L110.719 30.573C110.433 29.7647 109.842 29.3607 108.946 29.3607C108.274 29.3607 107.764 29.5565 107.416 29.948C107.068 30.3395 106.893 30.8775 106.893 31.5611V37.0998H104.225V27.2163L104.225 27.2159Z" fill="#30354B"/>
<path d="M119.639 29.6028V33.5751C119.639 33.9106 119.717 34.153 119.872 34.3022C120.028 34.4517 120.286 34.5259 120.647 34.5259H122.905V37.0995H120.405C119.31 37.0995 118.463 36.8416 117.866 36.3258C117.269 35.81 116.971 35.0731 116.971 34.1161V29.6032H114.545V27.216H116.971V24.6987H119.639V27.216H123.521V29.6032H119.639V29.6028Z" fill="#30354B"/>
<path d="M45.6471 47.4133H48.2039V48.2713H48.2412C48.9751 47.5132 49.9021 47.1333 51.0219 47.1333C51.8926 47.1333 52.6734 47.3512 53.3637 47.7862C54.0544 48.2216 54.5924 48.8338 54.978 49.623C55.3635 50.4126 55.5563 51.3231 55.5563 52.3547C55.5563 53.3498 55.3632 54.2447 54.978 55.0401C54.592 55.836 54.0509 56.4575 53.3544 56.9053C52.6575 57.3523 51.8677 57.5765 50.9846 57.5765C50.4249 57.5765 49.9207 57.4895 49.473 57.3155C49.0252 57.1418 48.6521 56.9053 48.3532 56.607H48.3159V61.4928H45.6471V47.4133ZM52.8876 52.3551C52.8876 51.5099 52.6762 50.8356 52.2533 50.3319C51.8304 49.8285 51.2454 49.5768 50.4991 49.5768C49.9021 49.5768 49.389 49.785 48.9595 50.2013C48.5304 50.6181 48.3159 51.1246 48.3159 51.7212V53.0076C48.3159 53.3809 48.4154 53.7285 48.6144 54.0516C48.8134 54.3752 49.0901 54.6362 49.4446 54.8351C49.7995 55.0343 50.194 55.1338 50.6297 55.1338C51.3262 55.1338 51.8766 54.8821 52.2812 54.3787C52.6855 53.8749 52.8876 53.201 52.8876 52.3551Z" fill="#30354B"/>
<path d="M57.4224 47.4133H59.9792V48.3273H60.0165C60.4394 47.9047 60.8778 47.6002 61.3322 47.4133C61.7862 47.2269 62.3055 47.1333 62.8905 47.1333C63.7487 47.1333 64.4891 47.385 65.111 47.8888C65.7333 48.3921 66.1683 49.0788 66.4174 49.9493L63.9166 50.77C63.6305 49.9617 63.0397 49.5578 62.1438 49.5578C61.4717 49.5578 60.9618 49.7535 60.6135 50.1454C60.2653 50.5369 60.0911 51.0749 60.0911 51.7581V57.2968H57.4224V47.4133Z" fill="#30354B"/>
<path d="M67.5555 52.3549C67.5555 51.3357 67.767 50.4315 68.1899 49.6419C68.6127 48.8526 69.207 48.2374 69.972 47.7958C70.7369 47.3546 71.6111 47.1335 72.5941 47.1335C73.5891 47.1335 74.4695 47.3546 75.2348 47.7958C76.0001 48.2374 76.5937 48.8526 77.0166 49.6419C77.4395 50.4315 77.6513 51.3357 77.6513 52.3549C77.6513 53.3741 77.4395 54.2791 77.0166 55.0684C76.5937 55.858 76.0001 56.4732 75.2348 56.9145C74.4695 57.3557 73.5891 57.5763 72.5941 57.5763C71.6111 57.5763 70.7373 57.3557 69.972 56.9145C69.2067 56.4732 68.6124 55.858 68.1899 55.0684C67.767 54.2791 67.5555 53.3745 67.5555 52.3549ZM74.9829 52.3549C74.9829 51.4853 74.7742 50.8044 74.3575 50.3131C73.9409 49.8221 73.3532 49.5766 72.5945 49.5766C71.8482 49.5766 71.2663 49.8225 70.8496 50.3131C70.4326 50.8044 70.2246 51.4853 70.2246 52.3549C70.2246 53.2246 70.433 53.9062 70.8496 54.3972C71.2663 54.8885 71.8482 55.1336 72.5945 55.1336C73.3407 55.1336 73.9257 54.885 74.3486 54.3875C74.7715 53.8907 74.9833 53.2129 74.9833 52.3549H74.9829Z" fill="#30354B"/>
<path d="M79.9838 59.4971L82.0178 57.9497C82.3909 58.4842 82.7672 58.8602 83.1466 59.0777C83.5263 59.2952 83.9958 59.4043 84.5555 59.4043C85.2525 59.4043 85.806 59.2113 86.2164 58.826C86.6269 58.4407 86.8321 57.9062 86.8321 57.2222V56.5138H86.7948C86.4337 56.8866 86.0512 57.157 85.6474 57.3252C85.2427 57.493 84.7542 57.5765 84.182 57.5765C83.2861 57.5765 82.4932 57.3558 81.8029 56.9146C81.1125 56.4734 80.5773 55.8581 80.198 55.0685C79.8178 54.2793 79.6285 53.3747 79.6285 52.3551C79.6285 51.3483 79.8244 50.4503 80.2166 49.6603C80.6084 48.871 81.1495 48.2523 81.8402 47.8049C82.5309 47.3574 83.3176 47.1333 84.2007 47.1333C84.7604 47.1333 85.2396 47.2145 85.6377 47.3761C86.0357 47.5376 86.403 47.7862 86.7388 48.1218H86.7761V47.4133H89.3516V57.3341C89.3516 58.2041 89.1491 58.9755 88.7448 59.6467C88.3402 60.3182 87.7774 60.8399 87.0556 61.2128C86.3342 61.586 85.5004 61.7721 84.5548 61.7721C82.614 61.7721 81.09 61.0139 79.9826 59.4971H79.9838ZM86.6832 52.989V51.7026C86.6832 51.0562 86.4838 50.54 86.0862 50.1547C85.6882 49.7698 85.1778 49.5768 84.5555 49.5768C83.8586 49.5768 83.3082 49.8258 82.904 50.3229C82.4998 50.8201 82.2977 51.4975 82.2977 52.3551C82.2977 53.1886 82.5025 53.8598 82.9133 54.3694C83.3242 54.8794 83.8648 55.1341 84.5369 55.1341C84.9104 55.1341 85.2614 55.0378 85.5914 54.8452C85.921 54.6525 86.1853 54.3915 86.3843 54.0617C86.5833 53.7324 86.6832 53.3743 86.6832 52.989Z" fill="#30354B"/>
<path d="M92.1513 47.4133H94.7077V48.3273H94.745C95.1679 47.9047 95.6067 47.6002 96.0607 47.4133C96.5151 47.2269 97.0344 47.1333 97.6193 47.1333C98.4776 47.1333 99.2176 47.385 99.8399 47.8888C100.462 48.3921 100.898 49.0788 101.146 49.9493L98.6455 50.77C98.359 49.9617 97.7682 49.5578 96.8723 49.5578C96.2002 49.5578 95.6903 49.7535 95.342 50.1454C94.9938 50.5369 94.8192 51.0749 94.8192 51.7581V57.2968H92.1509L92.1513 47.4133Z" fill="#30354B"/>
<path d="M102.527 54.6489C102.527 53.7287 102.841 53.0141 103.469 52.5045C104.097 51.9949 105.146 51.622 106.614 51.3855C107.385 51.2616 107.911 51.1213 108.191 50.966C108.471 50.8106 108.611 50.602 108.611 50.3414C108.611 50.0427 108.473 49.807 108.2 49.6326C107.926 49.459 107.553 49.3716 107.08 49.3716C106.545 49.3716 106.082 49.5335 105.69 49.8563C105.298 50.1798 105.046 50.609 104.934 51.1431L102.452 50.5838C102.576 49.9122 102.857 49.3156 103.292 48.7936C103.727 48.2716 104.274 47.8641 104.934 47.5721C105.594 47.28 106.309 47.1335 107.08 47.1335C108.349 47.1335 109.363 47.4882 110.122 48.1966C110.881 48.9051 111.26 49.8501 111.26 51.0312V57.2971H108.871V56.1967H108.834C108.548 56.6321 108.147 56.9708 107.63 57.2132C107.114 57.4555 106.532 57.5767 105.886 57.5767C105.239 57.5767 104.66 57.4524 104.15 57.2038C103.64 56.9553 103.242 56.6072 102.956 56.1598C102.67 55.7123 102.527 55.2086 102.527 54.6489ZM108.722 53.6231V52.5041H108.685C108.573 52.6901 108.386 52.8397 108.125 52.9515C107.864 53.0634 107.453 53.1753 106.893 53.2871C106.197 53.4363 105.718 53.5947 105.456 53.7625C105.195 53.9307 105.065 54.1634 105.065 54.4621C105.065 54.7479 105.179 54.9654 105.41 55.115C105.64 55.2641 105.973 55.3387 106.408 55.3387C106.806 55.3387 107.186 55.261 107.547 55.1053C107.908 54.9503 108.193 54.739 108.405 54.4714C108.616 54.2042 108.722 53.9214 108.722 53.6231Z" fill="#30354B"/>
<path d="M113.705 47.4132H116.056V48.2712H116.094C116.305 47.9357 116.575 47.6778 116.905 47.4971C117.235 47.3169 117.599 47.2268 117.997 47.2268C118.781 47.2268 119.409 47.5935 119.882 48.3272H119.92C120.417 47.5935 121.102 47.2268 121.972 47.2268C122.694 47.2268 123.279 47.4816 123.727 47.9916C124.175 48.5016 124.399 49.1661 124.399 49.9872V57.2971H121.935V50.4533C121.935 50.1675 121.861 49.9496 121.711 49.8004C121.562 49.6513 121.35 49.5767 121.077 49.5767C120.815 49.5767 120.607 49.6606 120.452 49.8284C120.296 49.9962 120.218 50.2234 120.218 50.5089V57.2971H117.886V50.4533C117.886 50.1799 117.814 49.9655 117.671 49.8101C117.528 49.6548 117.325 49.5767 117.064 49.5767C116.791 49.5767 116.573 49.6606 116.411 49.8284C116.249 49.9962 116.168 50.2234 116.168 50.5089V57.2971H113.705V47.4136L113.705 47.4132Z" fill="#30354B"/>
</g>
<defs>
<linearGradient id="paint0_linear_13_247" x1="-0.34243" y1="36.3706" x2="21.9321" y2="58.6611" gradientUnits="userSpaceOnUse">
<stop stop-color="#F47D51"/>
<stop offset="0.96" stop-color="#DF72AC"/>
</linearGradient>
<linearGradient id="paint1_linear_13_247" x1="21.8948" y1="43.7838" x2="29.3593" y2="51.2536" gradientUnits="userSpaceOnUse">
<stop stop-color="#F15D4C"/>
<stop offset="1" stop-color="#C36CA1"/>
</linearGradient>
<linearGradient id="paint2_linear_13_247" x1="14.6745" y1="25.4315" x2="27.3767" y2="38.1428" gradientUnits="userSpaceOnUse">
<stop stop-color="#B46947"/>
<stop offset="0.896" stop-color="#AE5262"/>
</linearGradient>
<linearGradient id="paint3_linear_13_247" x1="27.2715" y1="0.75" x2="27.2715" y2="32.2329" gradientUnits="userSpaceOnUse">
<stop stop-color="#FFD663"/>
<stop offset="1" stop-color="#F26C7D"/>
</linearGradient>
<linearGradient id="paint4_linear_13_247" x1="5.82177" y1="13.1628" x2="16.3989" y2="23.7475" gradientUnits="userSpaceOnUse">
<stop stop-color="#FFF171"/>
<stop offset="1" stop-color="#FAB382"/>
</linearGradient>
<linearGradient id="paint5_linear_13_247" x1="7.19151" y1="25.1092" x2="22.0225" y2="39.9508" gradientUnits="userSpaceOnUse">
<stop stop-color="#D48A3D"/>
<stop offset="0.795" stop-color="#DB474E"/>
</linearGradient>
<clipPath id="clip0_13_247">
<rect width="146.25" height="63" fill="white" transform="translate(0 0.75)"/>
</clipPath>
</defs>
</svg>
