<svg width="149" height="37" viewBox="0 0 149 37" fill="none" xmlns="http://www.w3.org/2000/svg">
<g clip-path="url(#clip0_13_219)">
<path d="M45.0311 33.975V3.27522H55.4024C58.8416 3.27522 61.4315 3.96536 63.166 5.34565C64.9004 6.72018 65.7677 8.76184 65.7677 11.4706C65.7677 12.9027 65.3519 14.1794 64.5025 15.2779C63.6649 16.3879 62.5185 17.2448 61.0632 17.8487C62.7799 18.3088 64.1342 19.1945 65.1321 20.4885C66.13 21.794 66.6171 23.3411 66.6171 25.1297C66.6171 27.8845 65.6964 30.0469 63.8491 31.617C62.0077 33.1928 59.4059 33.975 56.038 33.975H45.0311ZM49.2188 19.6833V30.6508H56.1152C58.0635 30.6508 59.602 30.1677 60.7246 29.1958C61.8473 28.2238 62.4116 26.8838 62.4116 25.1872C62.4116 21.5179 60.3385 19.6833 56.1805 19.6833H49.2188ZM49.2188 16.3591H55.5271C57.3566 16.3591 58.8179 15.9106 59.9227 15.0249C61.0157 14.1392 61.5681 12.9429 61.5681 11.4246C61.5681 9.73379 61.0573 8.50879 60.0415 7.74389C59.0258 6.97323 57.4754 6.59365 55.4024 6.59365H49.2188V16.3591ZM90.2999 25.9464H77.0062L74.0243 33.9807H69.7118L81.8235 3.27522H85.4825L97.612 33.9807H93.3233L90.2999 25.9464ZM78.2773 22.6222H89.0644L83.659 8.27299L78.2773 22.6222ZM111.226 20.2929C107.645 19.2922 105.037 18.0615 103.398 16.6064C101.764 15.1514 100.944 13.3513 100.944 11.2176C100.944 8.8021 101.948 6.80069 103.938 5.21337C105.94 3.6318 108.53 2.83813 111.72 2.83813C113.899 2.83813 115.848 3.24647 117.547 4.06314C119.257 4.87405 120.57 6.00128 121.509 7.43907C122.447 8.87112 122.916 10.4412 122.916 12.1378H118.717C118.717 10.2802 118.105 8.81936 116.887 7.75539C115.67 6.69717 113.941 6.16231 111.72 6.16231C109.658 6.16231 108.055 6.5994 106.902 7.47933C105.744 8.36501 105.168 9.57851 105.168 11.1428C105.168 12.3966 105.708 13.4606 106.813 14.3232C107.906 15.1859 109.771 15.9796 112.409 16.6985C115.04 17.4174 117.107 18.211 118.592 19.0737C120.077 19.9364 121.182 20.9428 121.901 22.1046C122.619 23.2548 122.976 24.6178 122.976 26.1764C122.976 28.6667 121.972 30.6623 119.97 32.1576C117.962 33.6529 115.289 34.4006 111.933 34.4006C109.753 34.4006 107.716 33.998 105.833 33.1928C103.95 32.3819 102.495 31.2719 101.467 29.8687C100.439 28.4654 99.9346 26.8665 99.9346 25.0837H104.134C104.134 26.9356 104.841 28.3964 106.261 29.4661C107.674 30.5358 109.563 31.0764 111.933 31.0764C114.143 31.0764 115.83 30.6393 117.006 29.7651C118.188 28.8967 118.776 27.7062 118.776 26.2109C118.776 24.7041 118.224 23.5424 117.143 22.7199C116.068 21.909 114.09 21.0924 111.226 20.2929ZM146.278 19.8098H132.539V30.6508H148.5V33.975H128.357V3.27522H148.286V6.5994H132.539V16.4857H146.278V19.8098Z" fill="#053758"/>
<path d="M18.907 37C29.3852 37 37.8853 28.7758 37.8853 18.625C37.8853 8.47993 29.3911 0.25 18.907 0.25C8.9694 0.25 0.80784 7.65751 0 17.0779H25.0787V20.1663H0C0.80784 29.5925 8.9694 37 18.907 37Z" fill="#053758"/>
</g>
<defs>
<clipPath id="clip0_13_219">
<rect width="148.5" height="36.75" fill="white" transform="translate(0 0.25)"/>
</clipPath>
</defs>
</svg>
