<svg width="80" height="80" viewBox="0 0 107 107" fill="none" xmlns="http://www.w3.org/2000/svg">
<path d="M85.1341 28.0866C84.8031 28.0341 84.4659 28.0341 84.1349 28.0866C80.625 27.9599 77.3021 26.4762 74.8682 23.9489C72.4343 21.4216 71.0802 18.0488 71.092 14.5433C71.092 7.03675 77.1401 1 84.6608 1C88.2594 1 91.7107 2.42688 94.2553 4.96674C96.8 7.50661 98.2295 10.9514 98.2295 14.5433C98.2199 18.0513 96.8516 21.4197 94.4109 23.9439C91.9702 26.4681 88.6461 27.9525 85.1341 28.0866ZM79.7171 66.3018C86.9222 67.5092 94.8636 66.2493 100.438 62.5223C107.854 57.5879 107.854 49.5039 100.438 44.5696C94.811 40.8425 86.7645 39.5827 79.5594 40.8425M21.8659 28.0866C22.1814 28.0341 22.5496 28.0341 22.8651 28.0866C26.375 27.9599 29.6979 26.4762 32.1318 23.9489C34.5657 21.4216 35.9198 18.0488 35.908 14.5433C35.908 7.03675 29.8599 1 22.3392 1C18.7406 1 15.2893 2.42688 12.7447 4.96674C10.2 7.50661 8.77047 10.9514 8.77047 14.5433C8.82307 21.8924 14.6082 27.8241 21.8659 28.0866ZM27.2829 66.3018C20.0778 67.5092 12.1364 66.2493 6.56161 62.5223C-0.853869 57.5879 -0.853869 49.5039 6.56161 44.5696C12.189 40.8425 20.2355 39.5827 27.4406 40.8425M53.5789 67.2992C53.2479 67.2467 52.9106 67.2467 52.5796 67.2992C49.0698 67.1725 45.7468 65.6888 43.313 63.1615C40.8791 60.6342 39.525 57.2614 39.5368 53.7559C39.5368 46.2493 45.5849 40.2126 53.1056 40.2126C56.7042 40.2126 60.1555 41.6395 62.7001 44.1793C65.2447 46.7192 66.6743 50.164 66.6743 53.7559C66.6217 61.105 60.8366 67.0892 53.5789 67.2992ZM38.2746 83.8346C30.8591 88.769 30.8591 96.853 38.2746 101.787C46.6893 107.404 60.4684 107.404 68.8832 101.787C76.2986 96.853 76.2986 88.769 68.8832 83.8346C60.521 78.2703 46.6893 78.2703 38.2746 83.8346Z" fill="black"/>
<path d="M79.7171 66.3018C86.9222 67.5092 94.8636 66.2493 100.438 62.5223C107.854 57.5879 107.854 49.5039 100.438 44.5696C94.811 40.8425 86.7645 39.5827 79.5594 40.8425M27.2829 66.3018C20.0778 67.5092 12.1364 66.2493 6.56161 62.5223C-0.853869 57.5879 -0.853869 49.5039 6.56161 44.5696C12.189 40.8425 20.2355 39.5827 27.4406 40.8425M85.1341 28.0866C84.8031 28.0341 84.4659 28.0341 84.1349 28.0866C80.625 27.9599 77.3021 26.4762 74.8682 23.9489C72.4343 21.4216 71.0802 18.0488 71.092 14.5433C71.092 7.03675 77.1401 1 84.6608 1C88.2594 1 91.7107 2.42688 94.2553 4.96674C96.8 7.50661 98.2295 10.9514 98.2295 14.5433C98.2199 18.0513 96.8516 21.4197 94.4109 23.9439C91.9702 26.4681 88.6461 27.9525 85.1341 28.0866ZM21.8659 28.0866C22.1814 28.0341 22.5496 28.0341 22.8651 28.0866C26.375 27.9599 29.6979 26.4762 32.1318 23.9489C34.5657 21.4216 35.9198 18.0488 35.908 14.5433C35.908 7.03675 29.8599 1 22.3392 1C18.7406 1 15.2893 2.42688 12.7447 4.96674C10.2 7.50661 8.77047 10.9514 8.77047 14.5433C8.82307 21.8924 14.6082 27.8241 21.8659 28.0866ZM53.5789 67.2992C53.2479 67.2467 52.9106 67.2467 52.5796 67.2992C49.0698 67.1725 45.7468 65.6888 43.313 63.1615C40.8791 60.6342 39.525 57.2614 39.5368 53.7559C39.5368 46.2493 45.5849 40.2126 53.1056 40.2126C56.7042 40.2126 60.1555 41.6395 62.7001 44.1793C65.2447 46.7192 66.6743 50.164 66.6743 53.7559C66.6217 61.105 60.8366 67.0892 53.5789 67.2992ZM38.2746 83.8346C30.8591 88.769 30.8591 96.853 38.2746 101.787C46.6893 107.404 60.4684 107.404 68.8832 101.787C76.2986 96.853 76.2986 88.769 68.8832 83.8346C60.521 78.2703 46.6893 78.2703 38.2746 83.8346Z" stroke="black" stroke-linejoin="round"/>
</svg>
