<?xml version="1.0" encoding="UTF-8"?>
<!DOCTYPE svg PUBLIC "-//W3C//DTD SVG 1.1//EN" "http://www.w3.org/Graphics/SVG/1.1/DTD/svg11.dtd">
<!-- Creator: CorelDRAW 2020 (64-Bit) -->
<svg xmlns="http://www.w3.org/2000/svg" xml:space="preserve" width="8in" height="8in" version="1.1" style="shape-rendering:geometricPrecision; text-rendering:geometricPrecision; image-rendering:optimizeQuality; fill-rule:evenodd; clip-rule:evenodd"
viewBox="0 0 8000 8000"
 xmlns:xlink="http://www.w3.org/1999/xlink"
 xmlns:xodm="http://www.corel.com/coreldraw/odm/2003">
 <defs>
  <style type="text/css">
   <![CDATA[
    .fil0 {fill:white}
    .fil1 {fill:white}
   ]]>
  </style>
 </defs>
 <g id="Layer_x0020_1">
  <metadata id="CorelCorpID_0Corel-Layer"/>
  <path class="fil0" d="M-12.76 7801.11l5392.1 0 0 -115.91 -5392.1 0 0 115.91zm2434.17 -837.15c92.66,21.59 146.77,47.22 261.88,47.22 114.28,0 168.27,-26.42 257.58,-47.22l12.91 -420.69c-0.18,-34.04 -1.85,-73.98 -0.05,-107.38 0.92,-17 16.74,-89.62 -1.96,-101.03 -14.9,-9.09 -324.37,-11.48 -384.57,-10.74 -23.91,0.3 -27.33,4.42 -51.19,4.62 -141.15,1.21 -109.06,5.12 -107.42,42.56l-0.17 111.94c-0.1,24.93 3.34,31.46 4.42,51.4 1.81,33.45 0.09,73.27 -0.04,107.36 -0.15,40.02 4.33,65.25 4.31,107.31 -0.05,75.94 4.29,138.72 4.29,214.65zm-669.72 -570.98l47.34 433.48c4.11,47.6 13.18,99.53 17.05,146.08 25.46,0.56 121.3,38.64 244.71,38.64 98.3,0 215.62,-13.67 279.05,-47.22 0,-106.5 -4.65,-203.79 -4.19,-313.49 0.12,-29.94 -4.63,-41.7 -4.45,-72.82l0.2 -163.35c-0.04,-28.35 -4.44,-44.63 -4.44,-77.13 -52.02,0 -96.01,5.07 -145.64,8.91l-286.7 30.99c-20.06,2.54 -45.49,5.2 -69.17,8.11 -22.54,2.77 -47.23,7.8 -73.77,7.8zm1270.75 570.98c135.99,65.25 334.74,54.33 481.69,18.04 65.96,-16.29 39.95,3.55 62.26,-169.57l44.2 -419.45 -425.69 -46.54c-50.05,-5.19 -96.93,-9.27 -149.58,-9.27 0,108.52 -4.36,203.68 -4.3,313.39l-4.29 236.12c0.02,12.3 0.66,26.6 0.02,38.65 -0.89,16.52 -4.31,21 -4.31,38.62zm-1841.73 -429.3l66.08 320.29c28.91,125.39 5.31,109.33 64.31,128.88 101.29,33.54 195.25,32.95 300.81,16.37 62.82,-9.86 76.26,-20.85 105.43,-27.65l-51.52 -549.52c-61.09,0 -438.7,89.35 -485.12,111.63zm2468.52 437.89c97.56,46.81 339.12,54.14 434.06,0.46 16.27,-9.2 12.43,-8.72 16.54,-30.68l81.74 -407.67c-36.01,-17.28 -308.35,-81.18 -354.64,-91.85 -37.46,-8.62 -88.62,-19.78 -130.48,-19.78 0,29.98 -3.19,42.09 -4.32,68.66l-18.34 204.9c-5.53,42.88 -7.42,90.56 -12.37,137.9 -4.09,39.12 -12.19,96.56 -12.19,138.06zm-3661.99 704.06l5379.22 0c18.86,0 18.86,-38.64 0,-38.64l-5379.22 0 0 38.64zm4215.8 -695.48c82.64,55.34 220.99,59.79 322.56,26.34 53.17,-17.51 35.85,-7.02 57.71,-83.96 9.65,-33.95 53.33,-202.07 53.33,-225.72 -34.43,-8.02 -288.71,-131.48 -360.62,-133.09 -5.02,60.34 -72,372.31 -72.99,416.43zm-3477.39 -283.34l69.48 282.56c14.32,34.64 128.58,48.01 170.94,48.01 87.27,0 129.79,-11.4 197.48,-47.22 -5.09,-10.59 -17.56,-88.47 -20.3,-104.2 -6.55,-37.67 -11.55,-69.82 -18.72,-105.78l-27.86 -156.74c-9.27,-51.91 11.11,-68 -107.33,-22.13l-263.69 105.52zm927.31 -523.75c0.77,34.42 14.77,129.49 17.14,184.63 2.62,60.81 13.78,125.16 17.08,184.7l33.27 370.28c12.5,97.03 20.15,281.22 33.08,370.47 13.02,89.96 9.52,176.04 -12.97,265.44 -7.65,30.42 -17.05,53.41 -23.2,79.83l107.32 0 29.91 -159.3c4.91,-26.62 -4.8,-44.24 -10.42,-74.83 -5.27,-28.66 -0.67,-61.76 -2.29,-92.16 -1.35,-25.43 -6.26,-56.98 -9.9,-84.55 -2.67,-20.18 -5.89,-63.3 -11.94,-82.5 -6.41,-20.34 -20.01,-49.14 -21.26,-73.24 -1.72,-33.12 4.44,-57.82 4.44,-94.54l-26.53 -261.11c-7.81,-70.35 -46.45,-399.56 -46.45,-442.95 21.76,0 23.39,-4.3 47.22,-4.3 -3.82,-14.3 -11.96,-19.69 -23.26,-28.25 -25.78,-19.54 -40.96,-41.7 -58.05,-53.78 -17.13,-12.11 -19.71,-4.4 -43.19,-3.83zm1931.88 85.86l51.42 5.13c-0.42,22.42 -6.29,57.52 -9.26,84.26 -2.97,26.76 -5.41,58.54 -9.63,89.12l-58.29 534.15c0,71.83 17.96,70.65 -0.48,119.72 -43.06,114.56 -26.41,253.08 -38.95,304.5 -19.11,78.36 -12.79,49.57 -0.38,122.18 4.26,24.91 7.49,40.77 12.26,65.01 1.7,8.64 4.11,27.3 5.86,32.78 5.24,16.41 2.76,12.93 25.49,13.14 27.01,0.26 54.88,-0.48 82.06,-0.48 -1.5,-18.03 -9.22,-32.33 -14.46,-49.94 -37.19,-124.98 -29.62,-200.81 -16.28,-328.54l95.13 -1076.87c-36.39,-3.04 -19.01,-15.77 -52.57,16.12l-49.33 45.11c-19.19,18 -18.37,8.82 -22.59,24.63zm-2528.62 60.1l91.97 526.23c21.79,121.23 84.04,431.06 84.04,538.45 0,71.68 -16.87,117.43 -39.21,184.02 -4.47,13.3 -15.31,45.18 -16.6,60.68l133.08 0c9.92,-119.15 45.97,-114.17 7.22,-209 -16.4,-40.14 0.11,-98.48 -11.82,-155.61 -4.89,-23.43 -9.64,-45.73 -14.39,-71.47 -15.54,-84.33 -49.7,-102.17 -49.7,-122.02 0,-84.78 33.61,-32.58 3.98,-175.7l-94.45 -467.94c-2.71,-13.06 -7.1,-24.87 -8.28,-38.95 8.83,-4.24 56.23,-16.13 68.69,-17.17 -9.27,-12.65 -10.87,-9.42 -26.89,-16.04 -51,-21.08 -92.26,-49.22 -127.66,-35.47zm3095.3 51.52c6.67,0.56 68.69,11.64 68.69,21.47l-92.64 465.45c-5.69,28.75 -10.48,48.77 -16.48,77.98 -9.76,47.5 -1.9,57.21 10.27,113.89 8.53,39.74 -17.69,50.71 -37.33,95.14 -10.69,24.19 -27.13,130.5 -26.97,161.93 0.81,155.05 -10.54,80.41 -27.54,161.45 -2.56,12.18 7.93,59.85 11,78.39 4.07,24.5 12.28,54.98 12.28,82.17l137.38 0c-5.02,-10.47 -10.79,-34.67 -15.55,-48.85 -36.02,-107.34 -40.26,-113.3 -40.26,-230.2 0,-75.78 68.61,-436.14 83.38,-517.65l88.34 -508.39c0,-27.39 -81.87,12.92 -87.67,15.36 -16.09,6.76 -58.15,19.94 -66.88,31.86zm-3558.96 111.62c0,42.49 23.64,78.2 23.16,109.25 -0.5,33.04 59.06,299.68 68.78,348.31 8.75,43.76 92.65,433.81 92.65,465.44 0,49.5 -4.23,88.33 -18.66,131.6 -17.29,51.85 -25.41,53.24 -45.74,91.65l154.55 0c3.56,-42.7 26.87,-141.02 1.04,-185.65 -5.02,-8.67 -26.8,-39.41 -26.8,-46.18 0,-82.17 37.41,-15.98 -1.7,-170.02 -9.13,-35.94 -6.68,-49.52 -25.72,-77.32 -69.9,-102.1 -28.39,-44 -28.39,-156.21 0,-22.35 -19.78,-87.7 -25.76,-111.62l-55.81 -223.24c-6.93,-27.72 -25.76,-87.54 -25.76,-115.91 13.09,-1.09 49.53,-16.57 60.1,-25.76 -23.43,-5.46 -39.95,-11.13 -62.77,-18.8 -38.64,-12.97 -59.72,-24.66 -83.19,-15.55zm4035.49 34.34c8.96,12.23 40.14,19.49 60.11,30.06l-111.62 442.18c0,23.65 5.2,47.6 8.39,68.96 12.48,83.77 -29.21,19.5 -60.97,170.39 -29.57,140.48 -18.15,52.49 -1.1,158.31 4.29,26.6 -36.47,51.96 -36.47,83.17l0 64.4c0,37.57 8.59,62.9 8.59,94.45l154.55 0c-4.37,-16.34 -22.12,-38.04 -30.04,-55.83 -28.3,-63.59 -41.27,-142.67 -26.28,-215.14 20.44,-98.73 40.33,-195.98 60.92,-295.41 7.17,-34.65 95.53,-447.67 95.27,-470.74 -0.21,-18.83 17.84,-80.04 24.62,-109.13 -36.38,-8.71 -23.38,-2.03 -80.66,13.79 -20.9,5.77 -43.13,15.39 -65.31,20.56zm-1687.18 -321.98c18.87,0.42 13.37,2.91 30.06,4.3 0,119.57 -8.59,236.75 -8.59,356.32 0,119.98 -8.86,238.5 -8.58,360.63 0.08,35.22 -4.53,54.23 -4.4,85.76 0.12,30.09 0,60.18 0.11,90.27 0.13,35.3 -4.55,52.41 -4.37,85.79 0.19,31.54 0.03,63.07 0.16,94.61l-12.97 356.23c111.78,0 81,17.7 81.62,-81.63l-8.43 -188.6c5.36,-62.09 4.22,-128.76 4.07,-193.43 -0.09,-37.96 4.51,-58.14 4.33,-94.41 -0.33,-62.95 -4.51,-138.91 3.09,-194.39 7.91,-57.69 -2,-151.98 5.24,-239.47l4.52 -343.22c0,-69.98 4.3,-124.72 4.3,-193.19l-42.93 0c-9.09,34.07 -47.22,51.9 -47.22,94.45zm-592.44 1433.89c98.31,0 86.34,5.46 82.57,-26.02 -1.85,-15.39 -1.05,-31.37 -1,-46.97 0.13,-36.7 -4.55,-56.06 -4.35,-90.09 0.36,-62.31 -4.55,-114.68 -4.21,-180.4 0.18,-34.71 -4.53,-51.09 -4.35,-85.8 0.16,-31.52 0,-63.05 0.13,-94.57 0.13,-32.1 -4.44,-53.71 -4.39,-90.06 0.04,-30.1 1.61,-64.95 0.02,-94.47 -3.95,-73.19 -6.33,-326.69 -11.09,-358.12 -10.04,-66.34 -1.85,-241.73 -6.08,-320.19 -1.05,-19.44 -4.31,-20.31 -4.31,-42.91 16.68,-1.39 11.18,-3.87 30.05,-4.3 0,-29.82 -0.09,-21.59 -24.03,-57.53 -27.63,-41.47 -15.72,-36.92 -61.83,-36.92 0,132.55 4.3,251.59 4.3,382.09 -0,116.9 8.59,265.01 8.58,382.08l-0.02 141.69c1.05,19.44 4.43,23.46 4.46,47.06 0.07,54.13 -5.74,147.16 1.02,196.46 14.33,104.54 -5.47,256.59 -5.47,378.96zm669.72 -167.43c0.51,22.96 4.54,31.31 4.24,81.63 -0.2,33.23 4.34,50.57 4.34,85.81l502.3 0 -25.27 -137.87c-3.41,-18.44 -1.97,-30.02 -19.14,-36.67l-89.38 -17.94c-102.74,-14.46 -300.05,-15.72 -377.08,25.05zm4.3 -317.69c0,121.19 -37.32,136.65 73.76,166.66 100.65,27.2 282.44,13.99 376.57,-12.55 46.43,-13.09 40.8,-3.96 46.9,-56.13 3.85,-32.97 9.35,-63.78 9.35,-97.98l-123.17 -18.5c-94.19,-13.88 -172.57,-13.06 -263.22,-2.96l-120.2 21.47zm-1154.84 313.4c-13,55.78 -21.37,116.05 -34.34,171.72l502.29 0 8.61 -124.48c0.8,-14.76 -0.02,-32.18 -0.02,-47.24 -129.19,-30.09 -242.84,-40.02 -377.13,-20.8 -15.85,2.27 -32.29,5.73 -50.39,9.71 -17.41,3.84 -32.41,9.7 -49.02,11.09zm-34.34 -309.1l17.17 137.38c80.63,18.78 115.89,38.64 223.24,38.64l85.86 0c47.47,0 184.61,-21.59 184.61,-55.81 0,-139.62 12.7,-121.7 -50.41,-134.19 -47.41,-9.38 -153.94,-22.1 -198.7,-20.53l-134.92 11.11c-30.82,4.56 -107.46,14.11 -126.84,23.41zm601.03 313.39c2.22,26.7 4.43,48.37 4.24,81.63 -0.19,33.24 4.35,50.57 4.35,85.81l467.94 0c21.04,0 12.67,-40.53 12.73,-81.72 0.04,-30.21 4.44,-54.25 4.44,-90.01l-180.96 -25.11c-11.31,-1.17 -21.76,-0.1 -33.04,-1.31 -12.83,-1.37 -16.36,-4.59 -34.85,-3.83 -18.06,0.76 -14.11,2.95 -30.48,4.2 -52.56,4.03 -176.54,12.19 -214.37,30.33zm-2176.59 -794.22l44.61 200.1c15.73,68.98 28.09,131.63 43.87,200.83 6.94,30.43 87.54,383.82 87.54,406.17 0,122.78 -47.12,125.11 -68.69,154.55l150.26 0c2.84,-12.19 4.61,-12.18 8.48,-21.57 15.17,-36.68 26.21,-112.71 4.69,-146.15 -10.71,-16.63 -24.02,-31.09 -34.64,-46.94 17.24,-74.02 35.9,-2.32 2.57,-135.66 -6.96,-27.86 -12.2,-56.49 -20.46,-82.57 -10.61,-33.5 -69.57,-49.96 -67.73,-85.68 2.88,-55.97 25.79,-62.72 5.91,-131.54l-45.69 -164.68c-26.59,-104.56 -33.6,-81.63 12.96,-109.05 15.49,-9.12 26.53,-8.67 30.87,-24.94 -29.81,-0.67 -106.03,-25.76 -133.09,-25.76 -9.98,0 -13.07,7.04 -21.46,12.88zm2168 489.41c0,39.96 4.3,75.05 4.3,120.21 22.55,5.25 35.68,13.32 57.56,19.71 162.61,47.49 253.24,43.68 409.9,-7.31 50.06,-16.29 39.12,-15.69 39.12,-136.89l-108.09 -16.41c-83.15,-10.06 -99.06,-9.35 -179.54,-9.35 -48.27,0 -195.07,16.54 -223.24,30.05zm2524.33 -476.53l0 8.59c23.25,6.21 43.08,28.38 68.69,34.34 -1.8,21.71 -12.12,50.81 -18.1,72.06l-40.19 144.41c-25.23,89.48 -21.24,59.07 -11.11,131.99 2.94,21.13 5.05,36.81 9.3,55.09 -88.02,58.94 -75.59,94.41 -104.84,204.38 -20.59,77.42 48.25,42.98 -9.9,118.76 -41.04,53.49 -6.56,137.56 3.13,179.15l150.26 0c-7.97,-11.91 -68.69,-43.69 -68.69,-141.67 0,-26 13.7,-78.02 19.79,-104.71l133.81 -613.18c26.26,-114.7 48.17,-126.28 -49.52,-105.33 -20.31,4.35 -59.09,15.6 -82.61,16.13zm-1317.97 459.36c0,59.32 -11.96,108.83 -12.88,150.25 70.8,16.5 108.2,38.64 206.07,38.64 57.99,0 137.17,-12.59 183.06,-27.3 45.46,-14.57 35.08,-8.81 44.84,-58.19 5.2,-26.34 14.52,-62.94 16.81,-90.52 -58.71,-28.17 -348.81,-55.63 -437.89,-12.88zm-2313.97 150.25c79.32,18.48 109.19,38.64 218.94,38.64 33.79,0 77.39,-5.35 109.2,-11 47.3,-8.39 76.18,-22.82 96.86,-27.64l-11.92 -138.34c-4.37,-17.2 -4.43,-18.02 -46.94,-26.04 -94.44,-17.81 -275.13,-3.81 -366.44,18.25 -26.82,6.48 -25.97,3.17 -20.26,33.1 5.37,28.13 20.55,83.19 20.55,113.03zm4.29 339.16l373.5 0c18.01,0 28.36,-53.72 34.43,-77.2 5.68,-21.96 17.09,-73.9 17.09,-98.82 -38.57,-18.51 -150.54,-25.76 -206.07,-25.76 -59.43,0 -131.47,19.49 -171.87,38.49 -18.12,8.52 -21.62,5.29 -26.45,25.07l-20.63 138.22zm2292.5 -176.02c6.79,29.14 10.16,61.43 17.11,90.21 7.54,31.22 19.07,56.88 25.82,85.81l386.38 0 -22.38 -132.17c-3.98,-23.51 -3.56,-22.24 -24.69,-31.13 -131.15,-55.2 -249.2,-43.71 -382.24,-12.72zm-2777.62 -287.63c1.06,12.75 27.09,129.05 30.84,136.59 11.23,22.56 108.94,35.13 132.3,35.13 45.33,0 214.65,0.81 214.65,-47.22l-19.91 -126.06c-2.96,-15.04 8.31,-17.67 -43.44,-29.54 -73.02,-16.76 -193.37,-4.28 -261.48,15.38 -19.47,5.62 -35.43,11.64 -52.96,15.73zm3309.96 137.38c14.06,3.28 18.54,7.59 30.04,12.88 81.59,37.51 295.41,21.96 317.78,-12.8 4.21,-6.54 29.96,-121.79 29.96,-137.46 -32.91,-7.67 -58.82,-19.6 -97.54,-26.95 -58.76,-11.16 -154.93,-18.11 -216.93,-4.17 -26.61,5.98 -37.06,7.17 -42.55,34.73l-20.77 133.78zm-2408.41 -1030.34c0.27,12.31 3.49,38.43 5.51,54.59 1.64,13.17 6.16,42.52 7.37,57.02l141.79 -17.05c46.66,-3.99 99.1,-10.48 142.82,-16.03l144.67 -14.17c17.94,-0.77 51.31,-3.13 71.19,-6.08 27.15,-4.03 50.44,-1.09 74.8,-6.77l0 -115.91c-81.05,0 -348.77,36.39 -442.54,46.87 -45.5,5.09 -99.91,17.53 -145.61,17.53zm1296.51 51.52c181.3,15.08 378.74,33.56 556.68,58.21 22.49,3.12 20.98,3.42 23.38,-19.02 3.11,-29.15 8.09,-59.07 8.09,-90.71l-286.87 -35.11c-45.54,-5.06 -99.6,-13.07 -146.89,-16.25 -48.14,-3.25 -102.74,-13.03 -150.11,-13.03 0,39.03 -4.29,71.93 -4.29,115.91zm-631.08 -115.91c0,167.31 -31,106.12 180.36,107.38 35.27,0.21 59.61,-4.35 98.69,-4.35 91.48,0 208.02,12.88 274.76,12.88l4.29 -115.91 -244.49 -13.12c-77.68,-6.71 -164.28,-3.71 -244.29,5.16 -18.04,2 -50.79,6.42 -69.31,7.96zm2271.03 807.09c61.23,41 67.88,38.64 150.26,38.64 34.39,0 70.7,-15 94.81,-33.99 18.69,-14.72 27.89,-71.41 34.01,-94.78 5.19,-19.8 15.5,-48.83 17.15,-68.71 -35.64,-18.86 -209.37,-113.33 -240.42,-115.91l-55.81 274.75zm-4284.49 -158.84l36.92 134.8c24.43,81.35 194.13,73.12 243.07,37.84 26.23,-18.91 13.81,-36.42 3,-90.72l-42.57 -197.83 -180.5 85.67c-10.69,6.21 -49.79,27.88 -59.91,30.25zm2034.92 287.63l122.62 -19.06c99.37,-13.81 166.34,-14.57 266.31,-0.67 41.59,5.79 84.74,11.06 121.94,19.72 0,-33.91 4.52,-50.62 4.4,-81.47 -0.12,-28.65 -0.1,-57.3 -0.1,-85.96l-114.1 27.57c-109.38,21.78 -182.03,20.2 -291.28,0.03l-114.08 -27.59c0,33.6 4.4,52.52 4.44,81.42 0.04,28.65 -0.15,57.35 -0.15,86.01zm1275.04 -734.11c97.53,8.12 324.34,71.44 423.28,96.19 21.15,5.29 41.5,13.74 61.84,15.43 0.93,-41.43 21.46,-83.18 21.46,-128.79l-121.27 -28.99c-83.37,-17.58 -164.61,-38.09 -248.51,-52l-128.21 -22.04c0,41.09 -8.59,75.93 -8.59,120.2zm-3481.68 1064.69c0,72.49 0.95,95.43 -38.64,154.55l124.5 0c2.52,-30.3 16.22,-76.24 11.45,-109.99 -4.9,-34.71 -2.41,-21.32 -23.25,-41.35 -15.21,-14.61 -18.12,-17.38 -35.42,-28.97 4.94,-59.4 32.51,5.69 -5.15,-153.7 -33.41,-141.41 -6.75,-49.13 -63.54,-133.94 4.22,-18.11 19.01,-60.69 18.85,-72.37 -0.24,-17.07 -64.21,-192.88 -66.07,-215.27 13.51,-9.05 23.67,-16.67 37.41,-26.98 17.49,-13.11 31.8,-19 35.57,-33.12l-150.26 0c6.75,14.07 14.63,58.53 19.77,78.97l97.85 413.03c6.92,30.54 13.67,55.8 19.41,83.63 5.39,26.1 17.52,58.8 17.52,85.51zm5001.43 -596.74c0,19.95 -64.4,194.93 -64.4,210.36 0,25.5 17.17,46.18 17.17,72.98 0,13.89 -26.56,31.64 -35.57,41.7 -15.11,16.87 -45.99,169.96 -45.99,198.71 0,11.05 12.88,23.76 12.88,42.93 0,13.35 -55.81,39.6 -55.81,60.1 0,59.55 8.58,102.08 8.58,124.5l124.5 0c-3.89,-14.57 -7.44,-12.04 -15.86,-27.08 -46.67,-83.33 -8.21,-199.31 13.26,-284.63 14.37,-57.14 25.18,-109.35 39.52,-166.55l79 -337.43 -145.97 0c4.59,17.18 17.31,21.65 31.89,32.51 7.45,5.55 36.8,25.21 36.8,31.89zm-4065.55 -485.11c0.33,14.76 21.48,119.86 25.76,128.79 16.41,-1.37 40.33,-10.48 57.62,-15.36l176.79 -46.45c61.98,-14.04 194.55,-45.14 250.71,-49.81 -3.09,-37.04 -9.8,-83.17 -12.88,-120.2l-498 103.04zm935.89 626.79c-77.01,0 -89.79,0.16 -167.5,-12.81 -38.22,-6.37 -72.62,-17.76 -107.26,-25.83 -24.58,105.52 9.22,110.46 12.88,154.55 20.06,-0.45 45.64,-7.31 66.2,-11.07 22.58,-4.12 47.18,-7.4 67.64,-9.63 372.52,-40.75 396.51,81.77 378.85,-32.62 -5.15,-33.34 -1.81,-71.03 -1.81,-105.52 -35.75,8.33 -39.88,18.79 -114.01,31.96 -40.1,7.13 -90.84,10.97 -134.99,10.97zm931.6 115.91c153.97,-35.87 224.63,-35.26 377.41,-21.09 21.7,2.02 43.95,6.15 67.24,10.04 21.24,3.55 47.5,10.63 66.23,11.04 4.31,-18.49 21.4,-50.59 22.9,-69.2 1.87,-23.09 -5.73,-56.09 -5.73,-85.35 -129.09,30.07 -133.49,38.64 -274.76,38.64 -260.32,0 -254.41,-91.24 -253.36,-0.08 0.44,38.59 0.07,77.38 0.07,116zm1124.78 321.98l51.52 171.72 287.63 0c-7.13,-85.7 -20.18,-67.27 -7.79,-171.62 -77.17,-17.86 -253.51,-41.3 -331.36,-0.11zm-3262.74 0c16.92,35.26 -4.3,132.35 -4.3,171.72l283.35 0c3.63,-15.57 8.73,-27.1 13.42,-42.39 4.26,-13.88 7.91,-28.2 12.87,-42.95 6.6,-19.62 24.72,-67.72 25.23,-90.69 -29.36,-2.44 -44.88,-17.17 -85.86,-17.17 -106.46,0 -137.85,-3.43 -244.7,21.46zm1549.8 -8.59l118.28 -19.11c122.97,-17.95 255.63,-8.81 375.43,19.11 0,-32.07 4.53,-45.35 4.35,-77.22 -0.16,-27.21 -0.06,-54.42 -0.06,-81.63l-116.7 33.56c-206.17,51.54 -336.13,-29.44 -385.59,-33.56 0,58.02 4.29,100.44 4.29,158.85zm-1747.28 -897.26c6.87,29.46 32.37,113.69 34.35,137.38 30.48,-7.1 234.55,-107.01 364.91,-137.38l-21.47 -128.79c-77.96,1.74 -335.46,118.93 -377.79,128.79zm3593.3 0c10.19,4.89 32.63,9.97 46.33,13.78l138.9 50c30.83,12.41 57.52,22.85 88.07,36.43 15.47,6.88 26.51,11.52 41.55,18.56 12.17,5.69 34.5,15.98 45.78,18.61l35.35 -137.13c-26.31,-6.16 -314.26,-127.7 -374.5,-129.05l-21.47 128.79zm-2103.61 781.34c-81.37,0 -145.41,3.89 -225.06,-11.06 -18.65,-3.5 -33.55,-6.42 -49.76,-10.34 -15.89,-3.85 -36.02,-11.65 -51.46,-12.94 0,81.04 -2.7,62.48 11.49,130.48 4.33,20.75 2.13,20.1 21.59,15.2 116.13,-29.25 148.17,-25.47 263.14,-25.47 56.34,0 161.44,12.76 197.48,30.05l4.29 -111.62c0,-23.83 -4.29,-25.45 -4.29,-47.22 -45.65,24.15 -97.65,42.93 -167.43,42.93zm841.44 111.62c20.75,-0.46 105.95,-25.76 193.19,-25.76 97.94,0 146.39,-3.24 243.06,18.81 18.12,4.14 29.63,7.75 44.57,11.24 0.85,-38.03 17.17,-37.73 17.17,-150.26 -18.27,0.41 -30.79,6.66 -48.92,11.19 -115.12,28.77 -152.97,23.16 -273.06,23.16 -75.26,0 -126.78,-16.87 -176.02,-42.93l0 154.55zm-1730.11 -304.8c20.19,-1.69 40.9,-9.74 63.25,-14.03 78.45,-15.09 193.85,-16.02 275.91,-16.02 46.62,0 67.56,8.91 103.03,17.17 -0.9,-40.35 -12.88,-91.39 -12.88,-141.67 -10.56,0.88 -59.33,17.13 -96.89,23.31 -81.5,13.39 -183.76,17.63 -264.68,-0.9l-89.2 -26.71c-5.86,70.43 -33.09,64.58 1.81,122.69 8.33,13.87 12.61,22.84 19.65,36.16zm2614.48 -120.21c-75.56,0 -155.48,-2.43 -223.86,-25.3 -47.98,-16.04 -28.72,-7.8 -35.55,40.65 -4.16,29.55 -6.76,61.11 -6.76,91.98 66.86,-32.08 309.06,-14.25 378.24,-0.44 20.93,4.17 42.94,12.85 63.95,13.33 4.33,-18.59 34.34,-63.11 34.34,-68.69 0,-27.22 -11.59,-66.22 -17.17,-90.15 -55.08,12.83 -84.76,38.64 -193.19,38.64zm-3417.29 163.13c0.79,35.39 37.84,135.96 38.64,171.72 19.41,0.43 17.06,4.3 38.64,4.3 46.97,0 89.6,2.85 134.09,-7.58 21.94,-5.14 36.72,-13.97 54.8,-18.18 0,-37.22 -19.38,-110.39 -27.93,-152.39 -3.56,-17.5 8.26,-32.22 -83.69,-32.22 -108.7,0 -120.72,25.31 -154.55,34.34zm4159.99 -25.76c-3.18,38.24 -33.51,138.33 -34.34,176.02 39.03,9.09 61.13,25.76 120.2,25.76l68.69 0c21.57,0 19.22,-3.86 38.64,-4.3 3.05,-36.69 38.64,-136.58 38.64,-167.43 0,-23.55 -114.4,-38.64 -154.55,-38.64 -32.89,0 -50.23,6.33 -77.28,8.58zm-1034.63 249l5.03 34.22c21.22,-0.32 77.78,-21.34 218.21,-21.34 70.78,0 137.87,22.5 184.6,47.22 6.74,-12.75 22.41,-55.39 24.79,-69.66 3.62,-21.8 0.97,-68.96 0.97,-93.48 -14.37,1.2 -34.87,8.74 -48.07,12.03 -18.21,4.53 -28.89,7.57 -48.83,11.27 -75.01,13.91 -160.96,15.73 -236.14,0.64l-91.96 -23.94c-0.54,23.91 -12.43,80.28 -8.59,103.03zm-2266.74 60.1c92.5,-48.94 222.95,-57.28 327.58,-39.95 25.66,4.25 57.22,13.68 80.26,14.19l-4.3 -137.37c-18.97,0.42 -28.17,5.87 -44.5,11.31 -98.06,32.74 -233.69,28.17 -333.33,1.6 -16.55,-4.41 -32.9,-11.37 -51.48,-12.91 0,26.35 -3.43,68.87 1.68,92.76 5.17,24.17 19.04,48.76 24.08,70.37zm-360.62 -429.3c-56.69,0 -105.15,-0.31 -157.72,-22.75 -36.78,-15.69 -26.55,-22.14 -35.75,39.7 -10.95,73.56 25.52,53.06 38.92,103.25 39.81,-3.31 62.26,-38.64 270.46,-38.64 30.66,0 69.82,7.42 90.16,17.18l-25.76 -141.67c-51.08,27.03 -102.39,42.93 -180.31,42.93zm3194.04 98.74c55.13,-29.17 201,-16.55 258.73,-5.45 18.79,3.62 30.59,6.38 48.61,11.5 18.61,5.3 31.2,11.27 48.99,15.41l42.78 -64.12c7.29,-17.86 -8.44,-62.37 -8.44,-90.43 -55.23,12.87 -34.98,34.35 -188.89,34.35 -36.63,0 -71.4,-5.33 -99.66,-11.97 -53.84,-12.65 -63.39,-26.35 -80.65,-30.96 -1.02,46 -21.47,90.88 -21.47,141.67zm-4056.96 309.1c0,53.56 1.7,115.68 -41.67,160.1 -9.93,10.17 -20.46,15.55 -27.02,24.5 45.98,0 101.19,7.75 119.59,-9.2 4,-3.67 17.78,-19.9 17.78,-25.15 0,-143.02 -22.61,-100.34 -32.81,-134.91 -5.28,-17.91 2.76,-29.44 2.76,-49.69 0,-16.84 -21.74,-91.24 -27.48,-114.19 -5.1,-20.38 -8.5,-34.48 -13.57,-55.12 -6.09,-24.73 -13.74,-30 -26.95,-46.04 -14.76,-17.91 -9.35,-18.19 -9.12,-59.56 0.12,-23.2 -32.92,-150.38 -43.09,-171.57l36.88 -27.52c7.36,-8.91 4.57,2.36 6.05,-15.41 -15.84,-8.9 -77.24,-4.3 -98.74,-4.3l32.44 130.7c13.06,44.68 24.87,87.69 36.28,131.15 8.92,33.98 68.67,236.18 68.67,266.19zm5203.21 -480.82c0,19.63 -42.93,136.27 -42.93,167.43 0,52.29 18.3,39.42 -18.41,76.04 -13.04,13.01 -11.93,14.09 -16.92,34.59l-41.31 168.72c-0.49,13.88 6.67,31.58 7.94,46.92 -3.22,12.41 -24.95,11.56 -31,54.86 -1.3,9.28 -8.15,69.23 -6.85,77.15 4,24.33 20.21,39.57 46.07,40.07 29.6,0.57 60.69,-0.36 90.52,-0.36 -18.57,-27.73 -68.69,-32.63 -68.69,-180.31 0,-25.95 61.31,-238.91 69.19,-265.67 12.51,-42.54 23.43,-86.15 36.37,-131.06 7.29,-25.29 8.04,-44.67 16.26,-69.61 6.91,-21 15.26,-46.31 19.85,-66 -15.23,0 -84.63,-2.12 -93.7,1.48 -5.98,2.38 -8.93,-1.79 -6.82,9.86 1.89,10.44 40.42,28.7 40.42,35.89zm-4967.09 -231.83c6.71,28.81 29.53,92.59 30.05,115.91l211.59 -106.1c13.79,-5.97 18.41,-10.68 33.11,-14.11 -4.28,-8.93 -25.43,-114.02 -25.76,-128.79 -23.24,1.93 -219.92,113.61 -249,133.08zm4378.93 -4.29c10.33,5.46 19.23,8.15 30,12.94 71.99,32.02 140.98,70.53 210.42,107.27 4.79,-20.57 9.97,-35.69 15.43,-57.55 5.39,-21.56 14.12,-40.27 14.61,-62.66 -14.35,-3.35 -17.94,-6.72 -29.25,-13.67 -10.55,-6.48 -19.33,-10.77 -30.02,-17.2l-59.56 -34.9c-23.82,-13.24 -108.87,-59.06 -125.87,-63.02l-25.76 128.79zm-592.44 609.61l4.29 107.33c56.19,-13.09 76.74,-27.55 163.76,-17.8 29.48,3.3 60.83,2.7 89.16,5.29 27.26,2.48 54.84,12.51 81.94,12.51 8.38,-12.52 29.91,-38.39 29.59,-55.22 -0.2,-10 -12.94,-61.44 -16.71,-69.28 -24.44,5.69 -48.45,15.54 -74.11,20.33 -74.61,13.95 -113.75,11.26 -187.63,0.99 -51.68,-7.2 -60.66,-19.72 -86,-25.62 -2.24,9.63 -4.29,9.87 -4.29,21.46zm-3112.48 12.88c-26.65,0 -60.94,-4.75 -85.37,-9.08 -28.77,-5.1 -51.72,-14.91 -77.78,-20.97 -2.89,12.42 -15.74,62.78 -15.82,69.32 -0.19,14.63 21.08,40.76 28.7,55.18 20.65,0 34.81,-5.43 52.19,-7.92 63.44,-9.09 173.17,-18.69 236.75,-6.25 63.72,12.46 50.22,45.96 50.22,-114.62 -22.21,1.85 -59.5,34.34 -188.89,34.34zm-485.12 128.79c14.71,63.16 -5.91,101.9 -17.17,150.26l171.72 0c25.99,-49.11 64.4,-96.16 64.4,-176.02 -117.46,0 -109.38,0.23 -218.94,25.76zm4117.06 150.26l176.02 0c-16.2,-30.62 -23.28,-70.04 -25.16,-103.68 -2.59,-46.44 27.38,-44.13 -40.26,-58.44 -18.34,-3.88 -37.43,-7.63 -55.16,-9.24 -40.42,-3.68 -74.27,-4.67 -119.83,-4.67 2.61,31.44 13.33,70.21 23.87,96.34 13.23,32.84 38.33,71.44 40.53,79.68zm-4245.85 -506.59c24.18,16.19 40.04,38.08 60.11,51.52 58.67,-13.67 28.07,-34.34 176.02,-34.34 28.55,0 37.16,4.29 64.4,4.29l-25.76 -115.91c-66.17,44.31 -167.46,51.7 -230.08,15.43 -11.79,-6.82 -14,-11.82 -27.5,-15.43 -7.3,15.21 -12.07,72.55 -17.18,94.45zm4232.98 21.46c52.77,0 109.35,-14.19 178.66,5.94 24.24,7.04 36.21,19.16 57.46,24.11 93.31,-62.49 48.86,-72.6 47.22,-145.97 -28.68,6.69 -71.89,59.57 -200.83,29.11 -11.62,-2.74 -20.91,-6.35 -31.17,-11.76 -13.85,-7.31 -16.64,-13.81 -29.88,-17.35 -0.4,18.05 -7.24,38.12 -11.1,57.59 -3.79,19.16 -9.96,40.11 -10.36,58.32zm313.39 223.24c35.31,9.43 18.31,25.76 107.32,25.76 18.17,0 19.46,-47.58 27.57,-84.05 6.33,-28.45 17.37,-68.83 19.65,-96.26 -38.3,-20.27 -57.81,-25.76 -115.91,-25.76l-19 88.33c-6.22,28.22 -17.41,65.17 -19.64,91.98zm-4718.09 -154.55l28.94 134.19c3.48,17.44 8.38,30.39 9.69,46.12 24.29,0 115.91,-5.33 115.91,-30.05l-18.97 -92.65c-3.39,-17.31 -7.31,-32.59 -9.99,-45.82 -8.02,-39.69 -0.6,-37.54 -39.73,-37.54 -43.6,0 -56.2,18.85 -85.86,25.76zm364.91 158.84c-31.79,0 -50.65,-4.3 -85.86,-4.3 -14.04,29.25 -20.48,38 -11.65,54.11 8.09,14.78 23.93,30.9 33.12,44.63 50.4,-4.19 61.82,-22.12 171.74,-21.45 21.04,0.13 51.5,6.67 51.5,-12.89 0,-24.45 -5.64,-75.06 -12.88,-90.15 -29.02,6.76 -54.39,30.05 -145.96,30.05zm3988.27 30.05c0,79.21 4.04,20.81 169.24,54 19.36,3.89 35.91,9.99 54,10.39 10.78,-20.36 26.17,-37.18 38.64,-55.81l-21.47 -47.22c-34.44,16.52 -148.1,6.86 -197.03,-9.04 -11.66,-3.79 -22.76,-9.62 -34.8,-12.43 -1.87,22.46 -8.58,32.69 -8.58,60.1zm-4413.28 -425.01c4.52,19.39 11.85,36.07 17.72,55.26 17.61,57.57 2.47,52.06 63.85,52.06 30.13,0 50.73,-9.44 68.69,-21.46 -11.85,-50.84 -22.46,-103.54 -34.35,-154.55 -12.45,3.32 -44.86,24.26 -57.55,32.6 -19.22,12.64 -39.34,26.03 -58.36,36.09zm4846.88 81.57c0,25.54 82.88,25.76 115.91,25.76 2.63,-31.55 27.34,-74.74 30.06,-107.33 -19.07,-12.77 -93.86,-63.55 -115.91,-68.69 -0.79,35.41 -30.05,122.17 -30.05,150.26zm34.35 -163.14c18.61,12.46 38.14,23.47 58.76,35.69 17.81,10.56 41.19,31.32 61.44,33 1.16,-13.92 20.38,-74.65 25.76,-85.86l-90.18 -64.37c-9.12,-6.46 -23.59,-18.63 -34.31,-21.49l-21.46 103.03zm-4911.28 -17.17c1.9,22.89 19.78,64.5 25.76,90.16 9.2,-6.16 16.54,-10.04 26.59,-16.33 21.75,-13.6 68.24,-47.44 89.32,-52.36 0,-21.05 -5.39,-34.7 -9.67,-54.73 -3.19,-14.97 -7.91,-35.87 -11.8,-52.59 -13.85,7.33 -18.28,11.58 -30.62,20.9l-89.59 64.96zm4851.17 300.52c35.96,-17.25 103.32,21.83 120.21,25.76l38.64 -42.93c-4.48,-19.22 -15.55,-44.89 -17.18,-64.39 -83.02,0 -104.3,-17.43 -114.54,-18.54 -15.43,-1.68 -7.26,-1.72 -10.69,13.06l-16.44 87.06zm-4786.78 -85.86c-3.53,15.13 -17.17,50.89 -17.17,64.39 0,14.22 30.66,35.31 38.64,47.23 34.04,-18.02 67.58,-30.05 120.2,-30.05 -4.95,-10.31 -21.11,-82.97 -21.47,-98.74 -9.71,2.26 -86.04,33.56 -120.2,17.17zm4722.38 420.72c0,44.3 42.6,115.91 107.33,115.91 -1.86,-22.31 -8.47,-37.91 -8.76,-64.22 -0.27,-24.23 0.18,-48.87 0.18,-73.16 -42.6,-9.93 -32.42,-21.46 -98.74,-21.46l0 42.93zm-2756.15 412.13c127.08,0 103.04,24.04 103.04,-103.04 0,-22.11 -42.4,-12.88 -103.04,-12.88l0 115.91zm1227.82 0c127.08,0 103.04,24.04 103.04,-103.04 0,-22.11 -42.39,-12.88 -103.04,-12.88l0 115.91zm-2009.16 0c127.08,0 103.04,24.04 103.04,-103.04 0,-22.11 -42.39,-12.88 -103.04,-12.88l0 115.91zm1339.44 0c127.09,0 103.04,24.04 103.04,-103.04 0,-22.11 -42.39,-12.88 -103.04,-12.88l0 115.91zm-1227.82 0c127.08,0 103.04,24.04 103.04,-103.04 0,-22.11 -42.39,-12.88 -103.04,-12.88l0 115.91zm223.24 0c127.08,0 103.03,24.04 103.03,-103.04 0,-22.11 -42.39,-12.88 -103.03,-12.88l0 115.91zm111.62 0c127.08,0 103.03,24.04 103.03,-103.04 0,-22.11 -42.39,-12.88 -103.03,-12.88l0 115.91zm111.62 0c127.08,0 103.03,24.04 103.03,-103.04 0,-22.11 -42.39,-12.88 -103.03,-12.88l0 115.91zm111.62 0c127.08,0 103.03,24.04 103.03,-103.04 0,-22.11 -42.39,-12.88 -103.03,-12.88l0 115.91zm558.1 0c127.09,0 103.04,24.04 103.04,-103.04 0,-22.11 -42.39,-12.88 -103.04,-12.88l0 115.91zm-334.86 0c127.08,0 103.04,24.04 103.04,-103.04 0,-22.11 -42.39,-12.88 -103.04,-12.88l0 115.91zm111.62 0c127.08,0 103.04,24.04 103.04,-103.04 0,-22.11 -42.39,-12.88 -103.04,-12.88l0 115.91zm892.96 0c127.08,0 103.04,24.04 103.04,-103.04 0,-22.11 -42.39,-12.88 -103.04,-12.88l0 115.91zm-111.62 0c127.08,0 103.04,24.04 103.04,-103.04 0,-22.11 -42.39,-12.88 -103.04,-12.88l0 115.91zm-111.62 0c127.08,0 103.03,24.04 103.03,-103.04 0,-22.11 -42.39,-12.88 -103.03,-12.88l0 115.91zm-111.62 0c127.08,0 103.03,24.04 103.03,-103.04 0,-22.11 -42.39,-12.88 -103.03,-12.88l0 115.91zm-2232.4 0c127.08,0 103.03,24.04 103.03,-103.04 0,-22.11 -42.39,-12.88 -103.03,-12.88l0 115.91zm111.62 0c127.08,0 103.03,24.04 103.03,-103.04 0,-22.11 -42.39,-12.88 -103.03,-12.88l0 115.91zm223.24 0c127.08,0 103.04,24.04 103.04,-103.04 0,-22.11 -42.39,-12.88 -103.04,-12.88l0 115.91zm111.62 0c127.08,0 103.04,24.04 103.04,-103.04 0,-22.11 -42.39,-12.88 -103.04,-12.88l0 115.91zm446.48 0c127.07,0 103.03,24.04 103.03,-103.04 0,-22.11 -42.39,-12.88 -103.03,-12.88l0 115.91zm892.96 0c127.08,0 103.04,24.04 103.04,-103.04 0,-22.11 -42.39,-12.88 -103.04,-12.88l0 115.91zm334.86 0c127.08,0 103.03,24.04 103.03,-103.04 0,-22.11 -42.39,-12.88 -103.03,-12.88l0 115.91zm-1562.68 0c127.08,0 103.04,24.04 103.04,-103.04 0,-22.11 -42.39,-12.88 -103.04,-12.88l0 115.91zm-334.86 0c127.08,0 103.04,24.04 103.04,-103.04 0,-22.11 -42.4,-12.88 -103.04,-12.88l0 115.91zm-635.37 -429.31c14.42,30.05 -4.3,98.95 -4.3,133.09 92.96,0 132.41,-158.85 94.45,-158.85 -41.5,0 -59.67,9.63 -90.15,25.76zm1863.19 450.77l0 103.03 103.04 0 0 -103.03c0,-21.17 -33.85,-12.88 -90.16,-12.88 -9.89,0 -12.88,2.99 -12.88,12.88zm1227.82 0l0 103.03 103.04 0 0 -103.03c0,-21.17 -33.85,-12.88 -90.16,-12.88 -9.89,0 -12.88,2.99 -12.88,12.88zm-2344.02 0l0 103.03 103.04 0 0 -103.03c0,-21.17 -33.85,-12.88 -90.16,-12.88 -9.89,0 -12.88,2.99 -12.88,12.88zm-111.62 0l0 103.03 103.04 0 0 -103.03c0,-21.17 -33.85,-12.88 -90.16,-12.88 -9.89,0 -12.88,2.99 -12.88,12.88zm-111.62 0l0 103.03 103.03 0 0 -103.03c0,-21.17 -33.85,-12.88 -90.15,-12.88 -9.89,0 -12.88,2.99 -12.88,12.88zm-334.86 0l0 103.03 103.04 0 0 -103.03c0,-21.17 -33.85,-12.88 -90.15,-12.88 -9.89,0 -12.88,2.99 -12.88,12.88zm-223.24 0l0 103.03 103.04 0 0 -103.03c0,-21.17 -33.85,-12.88 -90.16,-12.88 -9.89,0 -12.88,2.99 -12.88,12.88zm-111.62 0l0 103.03 103.04 0 0 -103.03c0,-21.17 -33.85,-12.88 -90.16,-12.88 -9.89,0 -12.88,2.99 -12.88,12.88zm2344.02 0l0 103.03 103.04 0 0 -103.03c0,-21.17 -33.85,-12.88 -90.15,-12.88 -9.89,0 -12.88,2.99 -12.88,12.88zm-1785.92 0l0 103.03 103.03 0 0 -103.03c0,-21.17 -33.85,-12.88 -90.15,-12.88 -9.89,0 -12.88,2.99 -12.88,12.88zm-334.86 0l0 103.03 103.04 0 0 -103.03c0,-21.17 -33.85,-12.88 -90.15,-12.88 -9.89,0 -12.88,2.99 -12.88,12.88zm1004.58 0l0 103.03 103.04 0 0 -103.03c0,-21.17 -33.85,-12.88 -90.15,-12.88 -9.89,0 -12.88,2.99 -12.88,12.88zm111.62 0l0 103.03 103.04 0 0 -103.03c0,-21.17 -33.85,-12.88 -90.15,-12.88 -9.89,0 -12.88,2.99 -12.88,12.88zm111.63 0l0 103.03 103.03 0 0 -103.03c0,-21.17 -33.85,-12.88 -90.15,-12.88 -9.89,0 -12.88,2.99 -12.88,12.88zm111.62 0l0 103.03 103.03 0 0 -103.03c0,-21.17 -33.85,-12.88 -90.15,-12.88 -9.89,0 -12.88,2.99 -12.88,12.88zm223.24 0l0 103.03 103.03 0 0 -103.03c0,-21.17 -33.85,-12.88 -90.15,-12.88 -9.89,0 -12.88,2.99 -12.88,12.88zm111.62 0l0 103.03 103.03 0 0 -103.03c0,-21.17 -33.85,-12.88 -90.15,-12.88 -9.89,0 -12.88,2.99 -12.88,12.88zm-781.34 0l0 103.03 103.04 0 0 -103.03c0,-21.17 -33.85,-12.88 -90.15,-12.88 -9.89,0 -12.88,2.99 -12.88,12.88zm1004.58 0l0 103.03 103.04 0 0 -103.03c0,-21.17 -33.85,-12.88 -90.16,-12.88 -9.89,0 -12.88,2.99 -12.88,12.88zm111.62 0l0 103.03 103.04 0 0 -103.03c0,-21.17 -33.85,-12.88 -90.16,-12.88 -9.89,0 -12.88,2.99 -12.88,12.88zm223.24 0l0 103.03 103.04 0 0 -103.03c0,-21.17 -33.85,-12.88 -90.15,-12.88 -9.89,0 -12.88,2.99 -12.88,12.88zm111.62 0l0 103.03 103.04 0 0 -103.03c0,-21.17 -33.85,-12.88 -90.15,-12.88 -9.89,0 -12.88,2.99 -12.88,12.88zm111.63 0l0 103.03 103.03 0 0 -103.03c0,-21.17 -33.85,-12.88 -90.15,-12.88 -9.89,0 -12.88,2.99 -12.88,12.88zm111.62 0l0 103.03 103.03 0 0 -103.03c0,-21.17 -33.85,-12.88 -90.15,-12.88 -9.89,0 -12.88,2.99 -12.88,12.88zm223.24 0l0 103.03 103.04 0 0 -103.03c0,-21.17 -33.85,-12.88 -90.16,-12.88 -9.89,0 -12.88,2.99 -12.88,12.88zm111.62 0l0 103.03 103.04 0 0 -103.03c0,-21.17 -33.85,-12.88 -90.16,-12.88 -9.89,0 -12.88,2.99 -12.88,12.88zm-2120.78 0l0 103.03 103.04 0 0 -103.03c0,-21.17 -33.85,-12.88 -90.16,-12.88 -9.89,0 -12.88,2.99 -12.88,12.88zm-558.1 0l0 103.03 103.04 0 0 -103.03c0,-21.17 -33.85,-12.88 -90.15,-12.88 -9.89,0 -12.88,2.99 -12.88,12.88zm2455.64 0l0 103.03 103.03 0 0 -103.03c0,-21.17 -33.85,-12.88 -90.15,-12.88 -9.89,0 -12.88,2.99 -12.88,12.88zm-1227.82 0l0 103.03 103.03 0 0 -103.03c0,-21.17 -33.85,-12.88 -90.15,-12.88 -9.89,0 -12.88,2.99 -12.88,12.88zm-1451.06 -21.46l103.04 0 0 -115.91 -103.04 0 0 115.91zm-111.62 0l103.04 0 0 -115.91 -103.04 0 0 115.91zm-111.62 0l103.04 0 0 -115.91 -103.04 0 0 115.91zm446.48 0l103.04 0 0 -115.91 -103.04 0 0 115.91zm-111.62 0l103.04 0 0 -115.91 -103.04 0 0 115.91zm3795.08 0l98.74 0 0 -115.91 -98.74 0 0 115.91zm-669.72 0l98.74 0 0 -115.91 -98.74 0 0 115.91zm334.86 0l98.74 0 0 -115.91 -98.74 0 0 115.91zm669.72 0l98.74 0 0 -115.91 -98.74 0 0 115.91zm223.24 0l98.74 0 0 -115.91 -98.74 0 0 115.91zm-1227.82 124.5l98.74 0 0 -115.91 -98.74 0 0 115.91zm334.86 0l98.74 0 0 -115.91 -98.74 0 0 115.91zm334.86 0l98.74 0 0 -115.91 -98.74 0 0 115.91zm334.86 0l98.74 0 0 -115.91 -98.74 0 0 115.91zm223.24 0l98.74 0 0 -115.91 -98.74 0 0 115.91zm-1004.57 -124.5l98.74 0 0 -115.91 -98.74 0 0 115.91zm223.24 0l98.74 0 0 -115.91 -98.74 0 0 115.91zm111.62 0l98.74 0 0 -115.91 -98.74 0 0 115.91zm-446.48 124.5l98.74 0 0 -115.91 -98.74 0 0 115.91zm781.33 -124.5l98.74 0 0 -115.91 -98.74 0 0 115.91zm223.24 0l98.74 0 0 -115.91 -98.74 0 0 115.91zm-1227.82 124.5l98.74 0 0 -115.91 -98.74 0 0 115.91zm1562.68 -124.5l98.74 0 0 -115.91 -98.74 0 0 115.91zm-1227.82 124.5l98.74 0 0 -115.91 -98.74 0 0 115.91zm558.1 -124.5l98.74 0 0 -115.91 -98.74 0 0 115.91zm-334.86 124.5l98.74 0 0 -115.91 -98.74 0 0 115.91zm111.62 0l98.74 0 0 -115.91 -98.74 0 0 115.91zm781.34 -124.5l98.74 0 0 -115.91 -98.74 0 0 115.91zm-558.1 124.5l98.74 0 0 -115.91 -98.74 0 0 115.91zm111.62 0l98.74 0 0 -115.91 -98.74 0 0 115.91zm-1004.58 -124.5l98.74 0 0 -115.91 -98.74 0 0 115.91zm1227.82 124.5l98.74 0 0 -115.91 -98.74 0 0 115.91zm-1004.57 -124.5l98.74 0 0 -115.91 -98.74 0 0 115.91zm1227.82 124.5l98.74 0 0 -115.91 -98.74 0 0 115.91zm111.62 0l98.74 0 0 -115.91 -98.74 0 0 115.91zm-4803.95 -643.96c-6.32,11.94 -9.39,19.36 -12.88,34.34 9.5,14.19 33.41,33.68 47.22,42.93 44.73,-10.42 19.87,-21.46 103.03,-21.46 -0.5,-22.59 -12.08,-64.01 -17.17,-85.86 -31.7,21.23 -67.68,30.05 -120.2,30.05zm4657.98 55.81c65.15,0 39.8,-1.92 90.31,17.57 32.14,12.41 36.01,-27.21 64.24,-34.75 -3.39,-14.56 -9.02,-22.09 -12.88,-38.64 -61.11,0 -79.09,-6.02 -124.5,-30.05 -0.5,22.59 -12.08,64.01 -17.17,85.86zm-4761.02 -55.81l12.88 0c-0.46,-20.56 -35.75,-158.05 -42.93,-188.89l-25.76 0c0.48,21.69 26.04,112.06 34.33,145.97 3.51,14.35 5.19,42.92 21.48,42.92zm4988.55 0l25.76 0c3.49,-41.91 42.93,-148.61 42.93,-188.89l-25.76 0c-0.4,18.02 -5.54,29.75 -9.48,46.33l-33.45 142.57zm81.57 -197.48c4.1,-15.35 3.4,-9.59 14.26,-20.46 16.03,-16.03 7.21,2.17 7.21,-61.11l-34.35 -4.3c-5.98,12.45 -10.08,37.1 -14.78,54.21 -8.96,32.66 -10.44,31.65 27.65,31.65zm-5155.98 -81.57c-1.73,20.81 -4.29,11.31 -4.29,47.22 0,10.43 23.91,34.34 34.34,34.34l21.46 0c-0.62,-27.85 -14.91,-58.64 -17.17,-85.86 -16.55,1.38 -13.84,4.3 -34.35,4.3zm-42.93 -163.14c1.33,15.97 15.73,65.33 21.46,77.28 13.33,-7.06 17.55,-13.83 30.05,-17.17 -0.64,-28.63 -14.86,-53.8 -17.17,-81.57 -9.9,6.63 -22.97,18.43 -34.34,21.46zm5207.5 55.81c11.96,8.02 18.25,17.17 34.34,21.46 2.11,-25.36 16.52,-48.16 17.17,-77.28 -7.21,-3.81 -9.53,-6.05 -15.78,-9.98 -12.26,-7.73 0.62,-5.59 -18.57,-7.19 -1.28,15.36 -11.98,62.15 -17.17,72.98zm-5181.74 30.05c0.34,15.25 12.18,58.28 17.17,68.69 16.69,-1.38 11.19,-3.87 30.06,-4.29 -2.38,-28.64 -14.97,-55.16 -17.17,-81.57 -11.39,6.03 -18.66,11.15 -30.05,17.17zm5160.28 60.1c9.41,4.52 16.89,7.49 30.05,8.58 10.8,-20.41 12.36,-45.41 21.46,-64.39 -9.96,-6.67 -19.46,-14.37 -30.05,-21.46 -9.67,20.14 -11.81,57.13 -21.47,77.28zm-5044.36 373.5l17.17 0c0,-23.77 -8.15,-44.1 -12.88,-64.39l-30.05 0c0,23.64 -12.35,30.17 10.02,54.34 5.74,6.21 5.21,10.06 15.73,10.06zm4962.8 0c57.77,0 39.52,-53.72 38.64,-64.39l-30.05 0c-2.02,24.28 -8.59,33.5 -8.59,64.39zm-4954.21 77.28c4.76,-20.43 8.58,-38.9 8.58,-64.39l-17.17 0 3.58 47.94c0.29,1.47 0.94,5.97 1.29,7.3 2.19,8.19 0.81,4.59 3.72,9.16zm4954.21 -38.64c0,14.67 1.21,27.02 8.59,38.64 4.82,-20.7 3.76,-43.69 8.58,-64.39l-17.17 0 0 25.76z"/>
  <path class="fil1" d="M3644.94 5293.96c-15.71,3.66 -36.23,13.65 -52.76,20.23 -18.7,7.45 -37.87,14.69 -54.57,22.7 19.83,85.15 129.73,63.31 189.76,48.09 92.54,-23.46 53.31,-5.17 93.58,-5.17 24.02,0 60.1,-23.6 60.1,-42.93 0,-27.54 -63.43,-17.17 -103.03,-17.17 0,-84.83 -38.63,-283.15 -38.64,-283.34 -40.59,3.37 -67.23,66.08 -78.91,101.39 -9.93,30 -34.52,116.63 -15.53,156.19zm403.54 -8.58c11.58,43.36 64.94,17.5 -3.02,74.25 -26.71,22.3 -47.31,48.29 -59.6,82.18 -9.69,26.72 -5.81,35.06 6.82,53.93 41.72,-3.47 58.95,-42.12 89.44,-65.1 24.38,-18.37 69.76,-50.09 77.98,-80.86 26.02,2.17 50.6,68.24 88.59,-1.59 6.57,-12.09 16.66,-49.92 -2.73,-49.92 -52.62,0 -56.86,23.53 -28.81,-41.69 4.17,-9.7 56.23,-112.86 7.35,-112.86 -44.72,0 -82.64,66.62 -94.85,102.63 -3.03,8.93 -3.9,19.69 -14.4,24.24 -23.06,9.97 -32.57,-8.1 -66.77,14.81zm819.98 218.94c-28.74,0 -45.29,-1.16 -68.69,4.29 5.78,24.83 17.72,24.51 30.05,42.93 -8.02,15.15 -13.3,19.13 -22.35,33.46 -27.67,43.79 -63.61,110.15 -37.75,164.02 27.91,-2.32 39.14,-13.03 47.33,-29.94 8.56,-17.72 20.57,-32.94 33.24,-48.33 18.02,-21.9 58.9,-69.87 65.39,-97.74 17.43,11.67 46.82,68.13 86.99,1.07 14.02,-23.41 11.69,-33.45 -1.13,-52.59 -19.41,0.44 -17.06,4.3 -38.64,4.3 3.04,-36.46 43.48,-59.96 51.52,-94.45 -74.45,-17.34 -91.32,-8.63 -145.97,72.98zm-708.35 137.38c14.34,9.61 15.31,8.44 34.34,12.88 -13.85,18.91 -90.15,35.5 -90.15,81.57l0 25.76c58.69,0 53.34,-19.77 96.35,-32.43l72.47 -43.48c59.61,-36.1 24.43,-1.98 80.26,-2.22 31.24,-0.13 71.25,-46.37 21.38,-46.37l-34.34 0c0,-53.67 21.46,-22.63 21.46,-72.98 0,-27.45 -71.85,-32 -100.69,10.93 -17.26,25.7 1.61,33.37 -58.06,40.67 -25.85,3.17 -31.13,7.92 -43.02,25.67zm373.5 -274.76c52.18,4.35 21.46,60.07 21.46,107.33 0,44.35 17.95,111.24 51.52,120.2 9.28,-39.8 17.89,-49.41 16,-101.86 -1.01,-27.89 3.51,-4.41 14.71,-39.14 4.44,-13.79 7.93,-32.52 7.93,-52.19 5.55,4.06 25.02,44.17 56.65,0.84 6.38,-8.74 30.98,-55.78 33.5,-65.24 -30.12,-7.02 -45.58,-23 -95.49,-5.34 -46.34,16.39 -80.8,-12.78 -106.28,35.39z"/>
 </g>
</svg>
