<svg width="160" height="50" viewBox="0 0 160 50" fill="none" xmlns="http://www.w3.org/2000/svg">
<g clip-path="url(#clip0_13_227)">
<mask id="mask0_13_227" style="mask-type:luminance" maskUnits="userSpaceOnUse" x="0" y="0" width="59" height="50">
<path d="M58.7188 0.75H0.75V49.5H58.7188V0.75Z" fill="white"/>
</mask>
<g mask="url(#mask0_13_227)">
<path d="M55.1343 30.4133C55.1343 31.536 54.9285 32.61 54.5518 33.6002C53.2628 36.9821 49.9879 39.3844 46.15 39.3844C42.2222 39.3844 38.8846 36.8679 37.6627 33.3609C30.4067 33.8818 26.2576 30.6432 24.5324 24.4703C20.1745 23.2868 16.9712 19.3078 16.9712 14.5804C16.9712 11.5232 18.3119 8.77785 20.4382 6.90122C22.2475 5.30166 24.6271 4.3313 27.2338 4.3313C30.2203 4.3313 32.9096 5.60467 34.7827 7.6401C36.0426 6.81736 37.5481 6.34046 39.1653 6.34046C40.2939 6.34046 41.3694 6.57366 42.3441 6.99411C45.1646 8.20977 47.1476 10.9944 47.1917 14.2469C47.1932 14.285 47.1932 14.3216 47.1932 14.3597L47.1917 14.4954V14.4968C47.6019 14.407 48.0275 14.3597 48.4654 14.3597C50.4209 14.3597 52.1583 15.2951 53.2534 16.7423H53.2551C54.0147 17.7463 54.4647 18.9969 54.4647 20.3527C54.4674 21.7589 53.9713 23.1205 53.0644 24.1961C52.9962 24.2791 52.9255 24.3599 52.8522 24.4384C54.2725 26.0242 55.1343 28.1188 55.1343 30.4133Z" fill="#FF5CAA"/>
<path d="M39.0658 13.856C37.4404 15.6201 36.4477 17.9751 36.4477 20.5617C36.4477 26.0321 40.8884 30.467 46.3661 30.467C47.0728 30.4674 47.7776 30.3926 48.4685 30.244M26.8003 10.6586C27.0485 14.2361 30.033 17.0614 33.6782 17.0614M44.6428 15.7328C45.38 15.1211 46.2545 14.6967 47.1917 14.496M34.7826 7.63916C33.628 8.39004 32.679 9.43065 32.0401 10.6586" stroke="#103849" stroke-width="0.75" stroke-miterlimit="10" stroke-linecap="round" stroke-linejoin="round"/>
<path d="M55.1343 30.4114C55.1343 35.3669 51.1119 39.3827 46.15 39.3827C42.2222 39.3827 38.8846 36.8661 37.6627 33.3592C30.4067 33.8801 26.2576 30.6414 24.5324 24.4686C20.1745 23.285 16.9712 19.306 16.9712 14.5788C16.9712 8.91804 21.5655 4.32959 27.2338 4.32959C30.2203 4.32959 32.9096 5.60296 34.7827 7.6384C36.0426 6.81565 37.5481 6.33875 39.1653 6.33875C43.5994 6.33875 47.1932 9.92955 47.1932 14.3581L47.1917 14.4936V14.4952C47.6019 14.4052 48.0275 14.3581 48.4654 14.3581C51.7784 14.3581 54.4647 17.0406 54.4647 20.351C54.4647 21.9308 53.853 23.3658 52.8522 24.4366C54.2725 26.0225 55.1343 28.117 55.1343 30.4114Z" stroke="#103849" stroke-width="0.966998" stroke-miterlimit="10" stroke-linejoin="round"/>
<path d="M52.8531 24.4359C52.8531 24.4359 52.1565 23.7141 51.2039 22.9629M26.063 40.7058C25.6698 39.8854 25.4182 39.0047 25.3188 38.1006" stroke="#103849" stroke-width="1.10521" stroke-miterlimit="10" stroke-linecap="round" stroke-linejoin="round"/>
<path d="M43.6782 34.4669C43.9958 35.3469 44.1577 36.2752 44.157 37.2106C44.157 42.0215 39.9288 45.9197 34.7119 45.9197C30.8436 45.9197 27.5197 43.7762 26.0615 40.7067C24.8597 41.5217 23.418 41.997 21.8698 41.997C18.3983 41.997 15.4694 39.6114 14.5512 36.3483C13.8957 36.5116 13.2225 36.5939 12.5469 36.5936C8.01194 36.5936 4.33423 32.922 4.33423 28.3915C4.33423 24.9122 6.5048 21.9386 9.56771 20.7487C9.44722 20.2507 9.38321 19.7342 9.38321 19.2041C9.38321 15.0955 13.2058 11.7654 17.9222 11.7654C20.6298 11.7654 23.0458 12.865 24.6093 14.5774C25.8632 13.9056 27.3093 13.5203 28.8499 13.5203C33.629 13.5203 37.5032 17.2207 37.5032 21.7847C37.5037 21.8923 37.5011 21.9999 37.4955 22.1074C41.4388 22.8295 44.436 26.4462 44.436 30.8C44.436 32.1086 44.1662 33.3503 43.6782 34.4669Z" fill="#FF5CAA"/>
<path d="M40.6141 30.4127C42.0219 31.4515 43.0989 32.8563 43.6786 34.4679M14.5516 36.3492C14.3564 35.6576 14.2526 34.9279 14.2526 34.1723C14.2526 31.0888 15.99 28.4216 18.5131 27.1465M11.707 20.2348C10.9595 20.311 10.2426 20.4863 9.56824 20.7497M24.6115 14.5799L24.6099 14.5784C23.5376 15.1573 22.6072 15.9466 21.8796 16.888" stroke="#103849" stroke-width="1.10521" stroke-miterlimit="10" stroke-linecap="round" stroke-linejoin="round"/>
<path d="M43.6814 34.4669C43.999 35.3469 44.161 36.2752 44.1602 37.2106C44.1602 42.0215 39.932 45.9197 34.7151 45.9197C30.8469 45.9197 27.5229 43.7762 26.0648 40.7067C24.8629 41.5217 23.4212 41.997 21.873 41.997C18.4015 41.997 15.4727 39.6114 14.5544 36.3483C13.8989 36.5116 13.2257 36.5939 12.5501 36.5936C8.01517 36.5936 4.33746 32.922 4.33746 28.3915C4.33746 24.9122 6.50803 21.9386 9.57094 20.7487C9.45045 20.2507 9.38643 19.7342 9.38643 19.2041C9.38643 15.0955 13.2091 11.7654 17.9255 11.7654C20.633 11.7654 23.049 12.865 24.6125 14.5774C25.8665 13.9056 27.3125 13.5203 28.8532 13.5203C33.6322 13.5203 37.5064 17.2207 37.5064 21.7847C37.5069 21.8923 37.5043 21.9999 37.4987 22.1074C41.442 22.8295 44.4392 26.4462 44.4392 30.8C44.4392 32.1086 44.1694 33.3503 43.6814 34.4669Z" stroke="#103849" stroke-width="0.75" stroke-miterlimit="10" stroke-linejoin="round"/>
<path d="M30.1134 24.5632C31.6327 22.9667 33.73 21.978 36.0454 21.978C36.5397 21.978 37.0233 22.0222 37.4945 22.1088M36.9512 32.4858C35.7542 33.9806 33.9127 34.9382 31.8471 34.9382C28.2398 34.9382 25.3156 32.0175 25.3156 28.415C25.3132 26.9109 25.8337 25.4524 26.7881 24.2887" stroke="#103849" stroke-width="0.75" stroke-miterlimit="10" stroke-linecap="round" stroke-linejoin="round"/>
<path d="M34.7372 38.1674C34.7372 36.8863 34.4137 35.6815 33.8432 34.6287M21.0866 34.0011C22.1635 32.4077 23.84 31.2544 25.794 30.863M9.44208 28.3979C10.2695 28.0705 11.1514 27.9026 12.0413 27.9028C13.4683 27.9009 14.8618 28.3335 16.0361 29.1431M22.8707 22.3943C22.4262 22.525 21.9558 22.5951 21.4689 22.5951C20.1766 22.5967 18.9351 22.0929 18.0102 21.1917M44.3074 22.0762C44.9911 21.5668 45.8216 21.2921 46.6746 21.2934C46.9117 21.2934 47.1483 21.3143 47.3816 21.3562" stroke="#103849" stroke-width="0.75" stroke-miterlimit="10" stroke-linecap="round" stroke-linejoin="round"/>
<path d="M53.5569 24.4405C54.4903 23.2836 54.9996 21.8492 54.9996 20.3515C54.9996 16.7529 52.0687 13.8252 48.4664 13.8252C48.2146 13.8252 47.9633 13.8398 47.7141 13.8686C47.4593 9.37976 43.7226 5.80615 39.166 5.80615C37.6467 5.80615 36.1709 6.20341 34.8707 6.95886C32.8447 4.93697 30.0987 3.79988 27.2346 3.79688C22.4341 3.79688 18.3573 6.94286 16.9577 11.2782C12.4076 11.7033 8.85092 15.0954 8.85092 19.2044C8.85092 19.6133 8.88673 20.0229 8.95731 20.4269C5.81055 21.8355 3.80209 24.9143 3.80209 28.3919C3.80209 33.2084 7.72577 37.127 12.5485 37.127C13.0992 37.1271 13.6488 37.0757 14.19 36.9736C15.3347 40.2696 18.4252 42.5304 21.8716 42.5304C23.2699 42.5314 24.6439 42.1642 25.8549 41.4659C27.56 44.5142 30.9708 46.4531 34.7136 46.4531C39.2704 46.4531 43.121 43.6083 44.3107 39.7364C44.9091 39.8541 45.5246 39.9162 46.1507 39.9162C51.3991 39.9162 55.6691 35.6523 55.6691 30.4119C55.6691 28.2287 54.9222 26.1262 53.5569 24.4405Z" stroke="#103849" stroke-width="1.5" stroke-miterlimit="10" stroke-linejoin="round"/>
<path d="M27.2333 0.75C24.4133 0.75 21.7008 1.58863 19.3891 3.17504C17.393 4.54484 15.8107 6.39244 14.7655 8.56191C9.67785 9.79321 6.04045 13.8821 5.8105 18.7171C2.66156 20.9006 0.75 24.5059 0.75 28.3918C0.75 34.8202 5.93222 40.0628 12.3433 40.1719C14.3676 43.4937 17.9763 45.5772 21.8703 45.5772C22.865 45.5772 23.8426 45.4456 24.7907 45.1846C27.2448 47.9102 30.8504 49.4999 34.7122 49.4999C37.3283 49.4999 39.8623 48.7591 42.0404 47.3579C43.8103 46.2195 45.2364 44.7169 46.2233 42.9627C53.1203 42.9232 58.7185 37.308 58.7185 30.4119C58.7185 28.2811 58.1849 26.2137 57.1654 24.3652C57.7479 23.1071 58.0495 21.7375 58.049 20.3514C58.049 17.8408 57.0801 15.4669 55.3208 13.667C53.9333 12.2475 52.1771 11.3098 50.2658 10.947C49.6198 8.85257 48.3828 6.96555 46.6923 5.52732C44.5917 3.74155 41.9235 2.7603 39.1649 2.75905C37.8792 2.75905 36.5887 2.97693 35.3727 3.39442C33.0109 1.68175 30.1642 0.75 27.2333 0.75ZM27.2333 2.73037C30.0924 2.73037 32.8963 3.79076 35.044 5.66293C36.3323 5.05463 37.7396 4.73929 39.1646 4.73964C43.9111 4.73964 47.8966 8.18692 48.6622 12.7613C52.7622 12.8663 56.0659 16.2309 56.0659 20.3514C56.0644 21.7953 55.652 23.2089 54.8767 24.4275C56.0802 26.1788 56.7354 28.2743 56.7354 30.412C56.7354 36.2408 51.9863 40.9828 46.1493 40.9828C45.7718 40.9828 45.3929 40.9623 45.0158 40.9216C43.3867 44.8487 39.2815 47.5197 34.7121 47.5197C30.9438 47.5197 27.4906 45.7545 25.4645 42.8527C24.3298 43.343 23.1066 43.5964 21.8703 43.597C18.2679 43.597 15.0097 41.4399 13.5095 38.1467C13.1898 38.1779 12.8682 38.1934 12.5472 38.1934C7.13574 38.1934 2.73306 33.7965 2.73306 28.3918C2.73306 24.8038 4.69942 21.5165 7.80466 19.8094C7.78959 19.6081 7.78204 19.4063 7.78201 19.2043C7.78201 14.7714 11.3422 11.047 16.1707 10.3012C17.9347 5.74508 22.2967 2.73037 27.2333 2.73037Z" fill="#F0F0F0"/>
</g>
<path d="M67.4058 34.3707V16.7199H71.4305V34.3707H67.4058ZM83.9799 34.6733C82.6216 34.6733 81.3546 34.4464 80.1786 33.9925C79.0193 33.5386 78.0089 32.8998 77.1476 32.0761C76.303 31.2524 75.6405 30.2858 75.1602 29.1763C74.6964 28.0669 74.4646 26.8565 74.4646 25.5453C74.4646 24.2341 74.6964 23.0238 75.1602 21.9143C75.6405 20.8048 76.3113 19.8382 77.1725 19.0145C78.0338 18.1908 79.0441 17.552 80.2035 17.0981C81.3628 16.6442 82.6216 16.4173 83.9799 16.4173C85.3546 16.4173 86.6133 16.6442 87.7561 17.0981C88.9155 17.552 89.9175 18.1908 90.7622 19.0145C91.6235 19.8214 92.2943 20.7796 92.7746 21.8891C93.2549 22.9985 93.495 24.2173 93.495 25.5453C93.495 26.8565 93.2549 28.0753 92.7746 29.2016C92.2943 30.311 91.6235 31.2776 90.7622 32.1013C89.9175 32.9082 88.9155 33.5386 87.7561 33.9925C86.6133 34.4464 85.3546 34.6733 83.9799 34.6733ZM89.6691 38.4304C88.99 38.4304 88.3441 38.3548 87.7313 38.2035C87.135 38.0522 86.5388 37.8084 85.9425 37.4722C85.3629 37.136 84.75 36.6822 84.1041 36.1106C83.4746 35.5391 82.7872 34.833 82.0419 33.9925L86.2655 32.9082C86.7127 33.5302 87.1268 34.0261 87.5077 34.396C87.8886 34.7658 88.253 35.0263 88.6008 35.1776C88.9652 35.3289 89.3461 35.4046 89.7436 35.4046C90.8036 35.4046 91.7477 34.9675 92.5758 34.0934L94.3646 36.2619C93.1886 37.7076 91.6235 38.4304 89.6691 38.4304ZM83.9799 31.1936C84.7583 31.1936 85.4705 31.0591 86.1164 30.7901C86.7789 30.5212 87.3586 30.1345 87.8555 29.6302C88.3524 29.1259 88.7333 28.5291 88.9983 27.8399C89.2799 27.1339 89.4207 26.369 89.4207 25.5453C89.4207 24.7048 89.2799 23.9399 88.9983 23.2507C88.7333 22.5615 88.3524 21.9647 87.8555 21.4604C87.3586 20.9561 86.7789 20.5694 86.1164 20.3005C85.4705 20.0315 84.7583 19.897 83.9799 19.897C83.2013 19.897 82.4808 20.0315 81.8183 20.3005C81.1558 20.5694 80.5761 20.9561 80.0793 21.4604C79.5989 21.9647 79.218 22.5615 78.9364 23.2507C78.6714 23.9399 78.5389 24.7048 78.5389 25.5453C78.5389 26.369 78.6714 27.1339 78.9364 27.8399C79.218 28.5291 79.5989 29.1259 80.0793 29.6302C80.5761 30.1345 81.1558 30.5212 81.8183 30.7901C82.4808 31.0591 83.2013 31.1936 83.9799 31.1936ZM97.2266 34.5725C96.5641 34.5725 95.9927 34.3455 95.5124 33.8916C95.0486 33.421 94.8167 32.8242 94.8167 32.1013C94.8167 31.3785 95.0486 30.7985 95.5124 30.3615C95.9927 29.9076 96.5641 29.6806 97.2266 29.6806C97.9056 29.6806 98.477 29.9076 98.9408 30.3615C99.4045 30.7985 99.6364 31.3785 99.6364 32.1013C99.6364 32.8242 99.4045 33.421 98.9408 33.8916C98.477 34.3455 97.9056 34.5725 97.2266 34.5725ZM105.764 34.3707L100.074 16.7199H104.248L109.192 32.3535H107.105L112.273 16.7199H115.999L120.968 32.3535H118.956L124.024 16.7199H127.875L122.185 34.3707H117.863L113.465 20.6535H114.608L110.087 34.3707H105.764ZM130.067 34.3707V20.8048H133.942V34.3707H130.067ZM132.005 18.9136C131.292 18.9136 130.713 18.7035 130.265 18.2832C129.818 17.863 129.595 17.3419 129.595 16.7199C129.595 16.0979 129.818 15.5768 130.265 15.1565C130.713 14.7363 131.292 14.5261 132.005 14.5261C132.717 14.5261 133.296 14.7278 133.744 15.1313C134.191 15.5179 134.414 16.0222 134.414 16.6442C134.414 17.2998 134.191 17.8462 133.744 18.2832C133.313 18.7035 132.733 18.9136 132.005 18.9136ZM140.745 31.597L140.844 26.8061L147.08 20.8048H151.701L145.713 26.9826L143.701 28.6468L140.745 31.597ZM137.54 34.3707V15.6608H141.415V34.3707H137.54ZM147.502 34.3707L142.98 28.672L145.415 25.621L152.198 34.3707H147.502ZM153.94 34.3707V20.8048H157.816V34.3707H153.94ZM155.878 18.9136C155.166 18.9136 154.586 18.7035 154.139 18.2832C153.691 17.863 153.468 17.3419 153.468 16.7199C153.468 16.0979 153.691 15.5768 154.139 15.1565C154.586 14.7363 155.166 14.5261 155.878 14.5261C156.59 14.5261 157.17 14.7278 157.617 15.1313C158.064 15.5179 158.288 16.0222 158.288 16.6442C158.288 17.2998 158.064 17.8462 157.617 18.2832C157.186 18.7035 156.606 18.9136 155.878 18.9136Z" fill="#1A202C"/>
</g>
<defs>
<clipPath id="clip0_13_227">
<rect width="159" height="48.75" fill="white" transform="translate(0.75 0.75)"/>
</clipPath>
</defs>
</svg>
