<svg width="105" height="105" viewBox="0 0 105 105" fill="none" xmlns="http://www.w3.org/2000/svg">
<g clip-path="url(#clip0_27_111)">
<path d="M50.6543 52.0898C51.7617 51.0645 53.1152 50.4902 54.5098 50.4902H102.949V56.9707H56.1504C54.5508 56.9707 53.6895 57.873 53.1973 58.3242C51.1465 60.252 37.4062 72.8848 37.4062 72.8848L33.2637 68.8242C33.2637 68.8652 48.7266 53.8945 50.6543 52.0898ZM78.3809 16.8574C83.877 16.8574 86.8711 13.043 86.8711 8.36719C86.8711 3.69141 83.0566 -0.123047 78.3809 -0.123047C73.7051 -0.123047 69.8906 3.69141 69.8906 8.36719C69.8906 13.043 73.7051 16.8574 78.3809 16.8574ZM65.7891 31.418H68.6191L64.4356 46.3887H92.2852L88.1016 31.418H90.9316L95.2383 46.3887H102.58L96.6738 26.5371C95.8945 23.7891 92.4082 18.9492 86.4199 18.9492H70.2598C64.2715 18.9492 60.7852 23.8301 60.0059 26.5371L54.1406 46.3887H61.4824L65.7891 31.418ZM41.7539 45.6094L38.1445 38.8828L34.2891 31.6641C34.2891 31.6641 33.8379 31.0078 33.0176 31.377C32.2793 31.7461 32.6074 32.5664 32.6074 32.5664L35.0684 37.2832L36.627 40.2363L34.8633 39.416C31.7051 37.9805 29.9824 37.4062 29.2852 37.0781C29.1621 37.0371 28.5469 36.668 28.2598 36.0527C27.4395 34.207 23.9121 25.3066 23.1328 23.3379C22.4766 21.6562 20.8359 19.3184 17.4316 18.457C13.5762 17.5137 9.67969 19.9336 8.77734 23.7891L3.52734 46.0195C3.07617 47.8242 2.25586 52.6641 2.25586 54.6738C2.25586 56.7246 2.29687 97.9863 2.29687 97.9863C2.29687 101.678 4.92188 104.59 8.57227 104.59C12.2227 104.59 14.7246 101.596 14.6836 97.9453C14.6836 97.9453 14.6836 74.3613 14.6836 61.2363L20.3027 37.5703C20.959 39.1699 21.7793 41.1387 22.0254 41.5898C22.6816 42.6973 23.2969 43.4766 24.5684 44.0508C24.5684 44.0508 31.9102 47.0859 34.7402 48.3984C36.4629 49.0547 38.3086 48.4805 39.375 47.127L39.7852 46.3066L39.9082 46.5527C39.9082 46.5527 40.7285 48.0293 42 48.1113C42.3691 46.9629 41.7539 45.6094 41.7539 45.6094ZM30.3926 8.28516C30.3926 3.60938 26.5781 -0.205078 21.9023 -0.205078C17.2266 -0.164062 13.4531 3.60938 13.4531 8.28516C13.4531 12.9609 17.2676 16.7754 21.9434 16.7754C26.6191 16.7754 30.3926 13.002 30.3926 8.28516ZM34.207 63.6562L50.7363 48.2754L48.6035 45.9785L32.0742 61.3594L34.207 63.6562Z" fill="black"/>
</g>
<defs>
<clipPath id="clip0_27_111">
<rect width="105" height="105" fill="white"/>
</clipPath>
</defs>
</svg>
