<svg xmlns="http://www.w3.org/2000/svg" width="30" height="34" viewBox="0 0 30 34" fill="none">
<path d="M26.3383 19.5053L26.1459 16.5643C26.1579 15.8837 26.206 15.2032 26.3022 14.5348C26.3864 13.9879 26.5067 13.4532 26.627 12.9185C26.3984 13.356 26.1579 13.7813 25.8933 14.1945C25.8092 14.3282 25.725 14.4619 25.6408 14.5955C25.3521 15.0573 25.0755 15.507 24.811 15.9688C24.5343 16.4792 24.3058 17.0139 24.1014 17.5608C24.0773 17.6094 24.0653 17.658 24.0413 17.7188L23.2475 20.5261C22.1771 24.1962 19.1946 27.5504 15.6708 29.0938C13.7947 29.908 11.7742 30.1997 9.87402 29.9567C10.4152 30.5886 11.0406 31.1233 11.7261 31.5365C11.9185 31.6459 12.111 31.7674 12.3034 31.8525C12.5078 31.9376 12.7123 32.0226 12.9167 32.0955C13.7225 32.3751 14.5644 32.5087 15.4182 32.5087C17.7754 32.5087 20.277 31.5001 22.2373 29.6528C24.9312 27.1372 26.5428 23.1511 26.3383 19.5053Z" fill="white"/>
<path d="M6.23047 28.7168C6.73558 29.0328 7.27678 29.288 7.83 29.4946C7.89013 29.5189 7.95026 29.531 8.0104 29.5553C7.91418 29.3974 7.81797 29.2394 7.73379 29.0814C7.22867 28.9842 6.72356 28.8748 6.23047 28.7168Z" fill="#FF9D8D"/>
<path d="M15.6709 29.1059C19.2067 27.5747 22.1772 24.2083 23.2476 20.5382L24.0413 17.7309C24.0654 17.6823 24.0774 17.6215 24.1015 17.5729C24.3059 17.026 24.5464 16.4913 24.811 15.9809C25.0636 15.5191 25.3402 15.0816 25.6409 14.6076C25.725 14.474 25.8092 14.3403 25.8934 14.2066C26.158 13.7934 26.3985 13.3681 26.627 12.9306C26.6631 12.7847 26.6992 12.6267 26.7232 12.4809C26.9998 11.1806 27.2524 9.78299 26.8916 8.56771C26.8796 8.5434 26.8796 8.50695 26.8676 8.47049C26.7112 7.98438 26.4707 7.57118 26.17 7.21875C26.3264 7.74132 26.3985 8.27604 26.3865 8.82292C26.3865 8.85938 26.3865 8.89583 26.3865 8.92014V8.96875C26.3264 9.77083 26.1099 10.5486 25.7611 11.2778C25.4484 11.934 25.0997 12.566 24.7028 13.1736L24.4502 13.5747C24.1616 14.0365 23.885 14.4618 23.6324 14.9115C23.3678 15.3976 23.1393 15.908 22.9349 16.4306L22.8868 16.5521L22.081 19.3229V19.3351C21.4677 21.3038 20.4213 23.1146 19.0263 24.6337C17.6432 26.1771 15.9595 27.4045 14.0593 28.2309C13.3137 28.5469 12.532 28.7899 11.7382 28.9479C10.9685 29.1059 10.1868 29.191 9.39303 29.191C9.34493 29.191 9.29682 29.191 9.26074 29.191C9.44114 29.4583 9.64559 29.7257 9.85004 29.9687C11.7623 30.2118 13.7947 29.9201 15.6709 29.1059Z" fill="#FF9D8D"/>
<path d="M28.0823 8.16667C28.0703 8.14236 28.0703 8.1059 28.0462 8.06944C27.7816 7.25521 27.3006 6.51389 26.6752 5.94271C26.3385 5.63889 25.9656 5.35938 25.5688 5.12847C26.0378 4.83681 26.5068 4.50868 26.9518 4.18056C27.3487 3.88889 29.8743 1.92014 29.8743 1.92014L26.579 0.109375L25.8093 1.22743C25.1839 2.1632 24.5465 3.0868 23.6686 3.80382C23.3679 3.56076 23.0552 3.34201 22.7185 3.15972C21.9849 2.75868 21.1791 2.55208 20.3493 2.55208H20.1929H20.0967H20.0486C19.2548 2.61285 18.4851 2.8316 17.7636 3.18403C17.1141 3.5 16.4887 3.85243 15.8874 4.25347L15.4905 4.50868C15.0335 4.80035 14.6126 5.07986 14.1676 5.33507C13.6866 5.60243 13.1814 5.83333 12.6643 6.03993L12.544 6.08854L9.802 6.90278C7.8537 7.52257 6.06175 8.57986 4.55844 9.97743C3.03107 11.375 1.81639 13.0764 0.998586 14.9965C0.228889 16.8316 -0.0838003 18.8247 0.0965975 20.8056C0.180783 21.7535 0.39726 22.6771 0.721976 23.5642C1.05872 24.4392 1.52775 25.2535 2.10503 25.9705C2.24934 26.1528 2.41772 26.3351 2.61014 26.5417L2.63419 26.566L2.65825 26.5903C2.8627 26.7847 3.04309 26.9549 3.22349 27.1007C4.07737 27.8056 5.06355 28.3403 6.10986 28.6806C6.14594 28.6927 6.19404 28.7049 6.23012 28.717C6.72321 28.875 7.22832 28.9965 7.73344 29.0694C7.81762 29.2274 7.91383 29.3854 8.01005 29.5434C8.29868 30.0052 8.6234 30.4427 8.97217 30.8437C9.58552 31.5486 10.2951 32.1441 11.0888 32.6302C11.2813 32.7517 11.4977 32.8611 11.7503 32.9948L11.7743 33.0069L11.7984 33.0191C12.051 33.1285 12.2795 33.2257 12.4959 33.2986C13.434 33.6267 14.4082 33.7847 15.4064 33.7847C16.0919 33.7847 16.7774 33.7118 17.4388 33.5781C18.1243 33.4323 18.7858 33.2257 19.4352 32.9583C20.0967 32.6788 20.7341 32.3507 21.3354 31.9618C21.9608 31.5608 22.5381 31.099 23.0793 30.6007C24.5706 29.1667 25.7492 27.4288 26.5068 25.4965C27.2886 23.5885 27.6494 21.5226 27.5652 19.4444V19.4323L27.3727 16.5521C27.3727 16.5035 27.3727 16.467 27.3727 16.4184C27.3848 15.8594 27.4208 15.3004 27.505 14.7535C27.5892 14.2431 27.6975 13.7448 27.8177 13.2222C27.8538 13.0764 27.8899 12.9184 27.926 12.7604C28.0943 12.0556 28.2026 11.3264 28.2747 10.6094C28.3589 9.80729 28.2868 9.00521 28.0703 8.22743L28.0823 8.16667ZM22.2494 29.6528C20.2771 31.5 17.7876 32.5087 15.4304 32.5087C14.5765 32.5087 13.7347 32.375 12.9289 32.0955C12.7244 32.0226 12.52 31.9375 12.3155 31.8524C12.1111 31.7674 11.9187 31.6458 11.7383 31.5365C11.0407 31.1233 10.4274 30.5885 9.88618 29.9566C9.66971 29.7135 9.47728 29.4583 9.29688 29.1788C9.34499 29.1788 9.3931 29.1788 9.42918 29.1788C10.2109 29.1788 11.0047 29.0937 11.7743 28.9358C12.5681 28.7778 13.3378 28.5347 14.0955 28.2188C15.9836 27.3924 17.6794 26.1649 19.0624 24.6215C20.4455 23.1024 21.4918 21.2917 22.1172 19.3229V19.3108L22.9229 16.5399L22.971 16.4184C23.1755 15.8958 23.404 15.3976 23.6686 14.8993C23.9211 14.4496 24.1977 14.0243 24.4864 13.5625L24.7389 13.1615C25.1358 12.5538 25.4966 11.9219 25.7973 11.2656C26.146 10.5486 26.3505 9.75868 26.4226 8.9566V8.90798C26.4226 8.88368 26.4226 8.84722 26.4226 8.81076C26.4347 8.26389 26.3625 7.72917 26.2062 7.2066C26.5068 7.55903 26.7474 7.97222 26.9037 8.45833C26.9157 8.49479 26.9157 8.5191 26.9278 8.55556C27.2886 9.77083 27.036 11.1563 26.7594 12.4688C26.7233 12.6146 26.6872 12.7726 26.6632 12.9184C26.5429 13.4531 26.4226 13.9878 26.3385 14.5347C26.2422 15.2031 26.1941 15.8837 26.1821 16.5642L26.3745 19.5052C26.5429 23.151 24.9314 27.1372 22.2494 29.6528ZM4.00522 26.1163C3.83684 25.9705 3.66847 25.8247 3.51213 25.6667C3.35578 25.5087 3.21147 25.3385 3.06715 25.1684C1.08277 22.7014 0.70995 18.8976 2.12908 15.4826C3.54821 12.0677 6.69916 9.17535 10.1508 8.1059L12.9529 7.26736C13.5783 7.0243 14.2037 6.74479 14.793 6.42882C15.3943 6.07639 15.9716 5.6875 16.5609 5.31077C17.6794 4.59375 18.882 3.88889 20.1328 3.80382C20.1568 3.80382 20.1929 3.80382 20.217 3.80382H20.3493V3.79167C21.2633 3.79167 22.069 4.1441 22.7546 4.65451C22.7305 4.72743 22.7185 4.80035 22.7185 4.89757C22.7185 5.14062 22.8147 5.4566 23.1514 5.79688C23.5122 6.16146 23.9572 6.18576 24.2458 6.14931C24.8111 6.89063 25.1719 7.76563 25.1358 8.77431C25.1358 8.81077 25.1358 8.83507 25.1358 8.87153C25.0516 10.1354 24.3541 11.3507 23.6445 12.4809C23.2717 13.0764 22.8868 13.6597 22.5381 14.2674C22.2134 14.8629 21.9368 15.4826 21.6962 16.1146L20.8784 18.9462C19.8321 22.4219 16.9578 25.6181 13.5783 27.0521C12.2795 27.6111 10.8844 27.9028 9.46525 27.9149C9.4412 27.9149 9.41715 27.9149 9.3931 27.9149C7.38467 27.9271 5.46042 27.3194 4.00522 26.1163ZM23.9692 3.94965C23.9211 3.97396 23.8851 3.99827 23.849 4.03472C23.8851 3.99827 23.9211 3.97396 23.9692 3.94965Z" fill="#23262E"/>
<path d="M9.4173 27.927C9.44135 27.927 9.4654 27.927 9.48946 27.927C9.10461 27.8419 8.71976 27.7447 8.35896 27.611V27.6232C7.56521 27.3436 6.8316 26.9305 6.17014 26.3957C6.01379 26.2742 5.85745 26.1284 5.68908 25.9582L5.67705 25.9461L5.66502 25.9339C5.49665 25.7516 5.35234 25.5936 5.23207 25.4478C3.27175 23.0416 2.87487 19.3107 4.23387 15.9565C5.56881 12.6388 8.57544 9.81934 11.8707 8.74989L14.3963 7.95996L14.5406 7.8992C15.0337 7.70475 15.5147 7.47385 15.9717 7.20649C16.3807 6.96343 16.7775 6.69607 17.1985 6.41656L17.5592 6.1735C18.0884 5.80892 18.6296 5.49295 19.2069 5.20128C19.7962 4.89746 20.4336 4.71517 21.083 4.65441H21.1071C21.1311 4.65441 21.1552 4.65441 21.1913 4.65441C21.6964 4.6301 22.2015 4.70302 22.6825 4.88531C22.7066 4.89746 22.7186 4.89746 22.7427 4.90961C22.7427 4.82455 22.7547 4.73948 22.7788 4.66656C22.0932 4.14399 21.2875 3.80371 20.3735 3.80371V3.81586H20.2412C20.2171 3.81586 20.181 3.81586 20.157 3.81586C18.9062 3.90093 17.7036 4.60579 16.5851 5.32281C15.9958 5.69954 15.4185 6.08843 14.8172 6.44087C14.2279 6.75684 13.6025 7.0485 12.9771 7.27941L10.175 8.11795C6.72336 9.17524 3.57241 12.0798 2.15328 15.4947C0.734154 18.9096 1.10698 22.7256 3.09135 25.1805C3.23567 25.3506 3.36796 25.5207 3.53633 25.6787C3.69268 25.8367 3.86105 25.9825 4.02942 26.1284C5.46057 27.3193 7.38482 27.927 9.4173 27.927Z" fill="#FF9D8D"/>
<path d="M21.1914 4.66664C21.1553 4.66664 21.1312 4.66664 21.1072 4.66664H21.0831C20.4337 4.72741 19.7963 4.92185 19.207 5.21352C18.6418 5.50518 18.0885 5.82116 17.5594 6.18574L17.1986 6.4288C16.7776 6.70831 16.3808 6.97567 15.9719 7.21873C15.5149 7.48609 15.0338 7.71699 14.5407 7.91144L14.3964 7.9722L11.8708 8.76213C8.57556 9.83158 5.56893 12.651 4.23399 15.9687C2.87499 19.3229 3.27186 23.0538 5.23219 25.46C5.35245 25.6059 5.49677 25.7639 5.66514 25.9462L5.67717 25.9583L5.68919 25.9705C5.85757 26.1406 6.02594 26.2864 6.17025 26.408C6.81969 26.9427 7.56533 27.3559 8.35908 27.6354V27.6232C8.7319 27.7569 9.10473 27.8541 9.48957 27.9392C10.8967 27.9271 12.3038 27.6354 13.6026 27.0764C16.9821 25.6423 19.8564 22.4583 20.9027 18.9705L21.7205 16.1389C21.9611 15.5069 22.2377 14.8871 22.5624 14.2916C22.9112 13.684 23.284 13.1007 23.6688 12.5052C24.3784 11.375 25.0759 10.1597 25.1601 8.89581C25.1601 8.85935 25.1601 8.83505 25.1601 8.79859C25.1962 7.78991 24.8234 6.91491 24.2702 6.17359C23.9815 6.21005 23.5365 6.18574 23.1758 5.82116C22.839 5.48088 22.7428 5.16491 22.7428 4.92185C22.7187 4.9097 22.7067 4.9097 22.6827 4.89755C22.2016 4.71525 21.6965 4.64234 21.1914 4.66664ZM9.80226 25.7396C9.57376 25.9705 9.18891 25.9705 8.96041 25.7396C8.7319 25.5087 8.7319 25.1198 8.96041 24.8889C9.18891 24.658 9.56173 24.658 9.80226 24.8889C10.0308 25.1198 10.0308 25.4965 9.80226 25.7396ZM12.4601 25.8732C12.1474 26.1892 11.6543 26.1892 11.3417 25.8732C11.029 25.5573 11.029 25.059 11.3417 24.743C11.6543 24.4271 12.1474 24.4271 12.4601 24.743C12.7728 25.059 12.7728 25.5694 12.4601 25.8732Z" fill="white"/>
<path d="M12.4594 24.7428C12.1467 24.4269 11.6416 24.4269 11.341 24.7428C11.0283 25.0588 11.0283 25.5571 11.341 25.8731C11.6537 26.189 12.1467 26.189 12.4594 25.8731C12.7721 25.5692 12.7721 25.0588 12.4594 24.7428Z" fill="#FF9D8D"/>
<path d="M8.96044 24.889C8.73194 25.1199 8.73194 25.5088 8.96044 25.7397C9.18894 25.9706 9.57379 25.9706 9.8023 25.7397C10.0308 25.5088 10.0308 25.1199 9.8023 24.889C9.57379 24.6581 9.20097 24.6581 8.96044 24.889Z" fill="#FF9D8D"/>
</svg>