<svg id="Layer_1" data-name="Layer 1" xmlns="http://www.w3.org/2000/svg" viewBox="0 0 1920 1920"><defs><style>.cls-1{fill:#23262e;}.cls-2{fill:#fff;}.cls-3{fill:#ff9d8d;}</style></defs><path class="cls-1" d="M453.36,777.1H588.49q19.25,0,34.17,6.29a66.79,66.79,0,0,1,24.75,17.48,76,76,0,0,1,14.93,26.71,109.64,109.64,0,0,1,5.1,34.37,123.42,123.42,0,0,1-4.9,35.35A82.45,82.45,0,0,1,648,925.78a66.7,66.7,0,0,1-24.55,18.86q-14.94,6.87-35,6.87H497.75v98.6H453.36Zm44.39,132.77h75.42q25.92,0,37.91-11.59t12-36.33q0-23.57-12.77-33.78T573.17,818H497.75Z"/><path class="cls-1" d="M795,852.13a81.08,81.08,0,0,1,26.71,14,68.75,68.75,0,0,1,18.46,22.58Q847,902,847,919.3v85.63a95.41,95.41,0,0,0,2.55,23.38,98.41,98.41,0,0,0,8.84,21.8H813.25a30.42,30.42,0,0,1-4.71-11q-1.57-6.67-2.36-12.18A202.14,202.14,0,0,1,773,1046.77a86.1,86.1,0,0,1-37.12,8,77.48,77.48,0,0,1-25.73-4.32,67.42,67.42,0,0,1-21.8-12.37,62.11,62.11,0,0,1-15.13-19.25,54.33,54.33,0,0,1-5.69-25,65.41,65.41,0,0,1,5.11-26.31,56.62,56.62,0,0,1,14.34-20A63.37,63.37,0,0,1,708.57,935a80.16,80.16,0,0,1,26.52-4.32h69.13V926q0-21.6-10.41-31t-30.44-9.82q-18.07,0-31.63,3.73a143.87,143.87,0,0,0-28.48,11.58L684.8,868.63a165.25,165.25,0,0,1,37.71-16.11,153.28,153.28,0,0,1,40.86-5.1A105.75,105.75,0,0,1,795,852.13ZM755.9,1013.77a139,139,0,0,0,17.29-7.26q8.63-4.34,16.69-9.23t14.34-8.45V968.4H735.48q-12.59,0-19.05,6.68t-6.49,19.25q0,13.75,8.65,18.07t21.6,4.32A49,49,0,0,0,755.9,1013.77Z"/><path class="cls-1" d="M1019.13,854.29A82.42,82.42,0,0,1,1048,873.34a80.13,80.13,0,0,1,17.87,29.46,112.81,112.81,0,0,1,6.09,37.71v25.14q0,22-6.29,38.69a72.63,72.63,0,0,1-45.76,44.78,108.29,108.29,0,0,1-35.94,5.7q-15.33,0-31-7.85a106.91,106.91,0,0,1-26.72-18.47v97.81H883.41V900.84a84.81,84.81,0,0,0-1.77-18.46,134.17,134.17,0,0,0-5.3-17.29l38.1-17.67a107.43,107.43,0,0,1,5.5,11,74.27,74.27,0,0,1,3.93,12.17h2.35a66.55,66.55,0,0,1,24.56-17.28A76.26,76.26,0,0,1,980,847.42Q1002,847.42,1019.13,854.29ZM949.8,893.38a83.79,83.79,0,0,0-23.58,20v72.27A96.42,96.42,0,0,0,938,997.08a104,104,0,0,0,14.14,9.82,86.67,86.67,0,0,0,15.52,7.07,49.91,49.91,0,0,0,16.3,2.75q13.35,0,22.19-4.13a35.15,35.15,0,0,0,14-11.19,42.8,42.8,0,0,0,7.07-16.89,108.09,108.09,0,0,0,2-21.21v-20a105,105,0,0,0-2.35-22.78,47.63,47.63,0,0,0-8.25-18.46A40.63,40.63,0,0,0,1003,889.64q-9.63-4.5-23.76-4.51A57.62,57.62,0,0,0,949.8,893.38Z"/><path class="cls-1" d="M1216.28,852.13a81.08,81.08,0,0,1,26.71,14,68.88,68.88,0,0,1,18.46,22.58q6.87,13.37,6.88,30.64v85.63a94.92,94.92,0,0,0,2.55,23.38,98.41,98.41,0,0,0,8.84,21.8h-45.18a30.42,30.42,0,0,1-4.71-11q-1.57-6.67-2.36-12.18a202.14,202.14,0,0,1-33.19,19.84,86.1,86.1,0,0,1-37.12,8,77.48,77.48,0,0,1-25.73-4.32,67.42,67.42,0,0,1-21.8-12.37,62.11,62.11,0,0,1-15.13-19.25,54.33,54.33,0,0,1-5.69-25,65.41,65.41,0,0,1,5.11-26.31,56.5,56.5,0,0,1,14.34-20,63.37,63.37,0,0,1,21.6-12.57,80.14,80.14,0,0,1,26.51-4.32h69.14V926q0-21.6-10.41-31t-30.44-9.82q-18.08,0-31.63,3.73a143.87,143.87,0,0,0-28.48,11.58l-18.46-31.81a165.25,165.25,0,0,1,37.71-16.11,153.28,153.28,0,0,1,40.86-5.1A105.8,105.8,0,0,1,1216.28,852.13Zm-39.09,161.64a139,139,0,0,0,17.29-7.26q8.63-4.34,16.69-9.23t14.34-8.45V968.4h-68.74q-12.58,0-19,6.68t-6.49,19.25q0,13.75,8.64,18.07t21.61,4.32A49,49,0,0,0,1177.19,1013.77Z"/><path class="cls-1" d="M1387.66,1106.87a55.54,55.54,0,0,1-9.63,12.37,44.06,44.06,0,0,1-12.76,8.64,39.25,39.25,0,0,1-16.11,3.15,102.19,102.19,0,0,1-15.52-1.38,122.24,122.24,0,0,1-15.51-3.34v-33.78h16.49q8.64,0,12.38-1.76t7.26-10.81l11.79-31.82q-18.46,0-24.75-15.71l-66-173.23,40.46-11.78,56.56,147.69c1.83,4.72,5.51,7.07,11,7.07l57.35-154.76,40.86,11.78-86.81,232.94A120.19,120.19,0,0,1,1387.66,1106.87Z"/><path class="cls-1" d="M1609.56,852.13a81.08,81.08,0,0,1,26.71,14,68.88,68.88,0,0,1,18.46,22.58q6.87,13.37,6.88,30.64v85.63a94.92,94.92,0,0,0,2.55,23.38,98.41,98.41,0,0,0,8.84,21.8h-45.18a30.42,30.42,0,0,1-4.71-11q-1.58-6.67-2.36-12.18a202.14,202.14,0,0,1-33.19,19.84,86.1,86.1,0,0,1-37.12,8,77.48,77.48,0,0,1-25.73-4.32,67.42,67.42,0,0,1-21.8-12.37,62.11,62.11,0,0,1-15.13-19.25,54.33,54.33,0,0,1-5.69-25,65.41,65.41,0,0,1,5.11-26.31,56.5,56.5,0,0,1,14.34-20,63.37,63.37,0,0,1,21.6-12.57,80.14,80.14,0,0,1,26.51-4.32h69.14V926q0-21.6-10.41-31t-30.44-9.82q-18.07,0-31.63,3.73a143.87,143.87,0,0,0-28.48,11.58l-18.46-31.81a165.25,165.25,0,0,1,37.71-16.11,153.28,153.28,0,0,1,40.86-5.1A105.75,105.75,0,0,1,1609.56,852.13Zm-39.09,161.64a139,139,0,0,0,17.29-7.26q8.63-4.34,16.69-9.23t14.34-8.45V968.4h-68.74q-12.58,0-19,6.68t-6.49,19.25q0,13.75,8.65,18.07t21.6,4.32A49,49,0,0,0,1570.47,1013.77Z"/><path class="cls-1" d="M1805.25,854.88a87,87,0,0,1,29.66,21.21l-26.71,26.32A58.63,58.63,0,0,0,1791.51,890q-9.24-4.5-24.16-4.51-16.5,0-27.31,4.12t-10.8,13.56a13.69,13.69,0,0,0,2.56,8.25,22.48,22.48,0,0,0,6.28,5.89,38.93,38.93,0,0,0,8.45,3.93q4.71,1.58,9.42,2.75,14.54,4.32,29.07,7.85a157.74,157.74,0,0,1,28.29,9.82,68.67,68.67,0,0,1,13.35,7.86,66.32,66.32,0,0,1,11.2,10.6,50.68,50.68,0,0,1,7.86,13,40.53,40.53,0,0,1,2.94,15.71q0,18.07-6.88,30.64a57.7,57.7,0,0,1-18.46,20.42,78.92,78.92,0,0,1-26.71,11.39,136.55,136.55,0,0,1-31.23,3.54q-26.33,0-47.33-8.84t-34.37-32.8l31.82-20q9,12.57,20.23,18.07t31.62,5.5q38.49,0,38.49-22.79A16.36,16.36,0,0,0,1798,979.4a70.87,70.87,0,0,0-18.46-8.25q-14.15-4.3-30.45-7.85a132.69,132.69,0,0,1-30-10.22q-15.32-7.46-23.57-19.83T1687.21,902a46.32,46.32,0,0,1,5.9-23.57,50.15,50.15,0,0,1,16.49-17.09A81,81,0,0,1,1735.14,851a143,143,0,0,1,33-3.53A91.79,91.79,0,0,1,1805.25,854.88Z"/><path class="cls-2" d="M328,888c-2.93,4.63-5.7,9-8.26,13.57a135.27,135.27,0,0,0-7.16,15.84c-.2.51-.41,1-.62,1.54L304,946.83v0c-10.77,36.38-40.6,69.72-76,84.94a113.05,113.05,0,0,1-58,8.61A76.28,76.28,0,0,0,188.62,1056c1.9,1.12,3.88,2.16,5.84,3.13s4.09,1.71,6.17,2.43a76.55,76.55,0,0,0,25,4.08c23.67,0,48.67-10,68.39-28.35,26.85-25,43-64.59,41-100.65l-1.95-29.24c.27-6.78.42-13.31,1.56-20.11.91-5.39,2.11-10.72,3.31-16.07-2.33,4.46-4.91,8.75-7.44,12.8C329.67,885.35,328.82,886.68,328,888Z"/><path class="cls-3" d="M228,1031.81c35.39-15.22,65.22-48.56,76-84.94v0l7.93-27.9c.21-.51.42-1,.62-1.54a135.27,135.27,0,0,1,7.16-15.84c2.56-4.57,5.33-8.94,8.26-13.57.81-1.3,1.66-2.63,2.49-4,2.53-4,5.11-8.34,7.44-12.8.33-1.45.65-2.9,1-4.36,2.81-12.92,5.26-26.69,1.7-38.75-.12-.3-.17-.63-.28-.92a36.72,36.72,0,0,0-6.82-12.2,49.06,49.06,0,0,1,2.12,15.59c0,.39,0,.73,0,1h0l0,.53a64.36,64.36,0,0,1-6.24,22.83,160.07,160.07,0,0,1-10.65,18.87h0c-.85,1.32-1.7,2.66-2.54,3.95-2.92,4.54-5.68,8.82-8.2,13.23a130.63,130.63,0,0,0-6.93,15l-.51,1.24-8.06,27.49,0,.06,0,.07c-5.71,18.7-16.27,36.88-30.55,52.57a142.9,142.9,0,0,1-49.71,35.67h0a123.57,123.57,0,0,1-23.24,7.16,118.86,118.86,0,0,1-23.46,2.37c-.45,0-.88,0-1.33,0a85,85,0,0,0,6,7.78A113.05,113.05,0,0,0,228,1031.81Z"/><path class="cls-1" d="M352.47,824.06h0c-.07-.25-.17-.58-.3-.95A49.92,49.92,0,0,0,338.38,802a62.79,62.79,0,0,0-11-8c4.27-2.68,9.14-6,13.8-9.46,3.88-2.91,29.25-22.4,29.25-22.4l-32.94-17.89-7.77,11.12c-6.23,9.21-12.64,18.4-21.38,25.43a62.72,62.72,0,0,0-9.57-6.35,50.21,50.21,0,0,0-23.72-6l-1.58,0c-.39,0-.73,0-1,0h0l-.51,0a64.35,64.35,0,0,0-22.84,6.24,160.84,160.84,0,0,0-18.87,10.64h0l-4,2.54c-4.54,2.92-8.83,5.68-13.24,8.2A128.2,128.2,0,0,1,198,803l-1.24.52-27.48,8.06-.07,0-.06,0c-18.71,5.7-36.89,16.27-52.58,30.55a142.85,142.85,0,0,0-35.67,49.71h0a119.38,119.38,0,0,0-9,57.66,102.21,102.21,0,0,0,6.43,27.26,88.57,88.57,0,0,0,13.83,23.91h0c1.44,1.77,3.09,3.62,5,5.66l.22.22.23.22c2,1.94,3.88,3.58,5.65,5h0a89.76,89.76,0,0,0,28.94,15.63c.43.14.89.24,1.33.37a102.55,102.55,0,0,0,15,3.52c.92,1.65,1.9,3.25,2.91,4.84A99.17,99.17,0,0,0,161,1049.1a88.83,88.83,0,0,0,21.22,17.67h0c2,1.16,4.14,2.33,6.66,3.58l.28.13.29.13c2.58,1.12,4.88,2,7,2.77h0a89.09,89.09,0,0,0,29.12,4.77,101.7,101.7,0,0,0,20.41-2.11,112.26,112.26,0,0,0,20-6.13,119.73,119.73,0,0,0,19-9.93,123.52,123.52,0,0,0,17.45-13.54h0A142.91,142.91,0,0,0,337,995.83c8-19.65,11.64-40.36,10.56-59.89v-.13l-1.91-28.58c0-.45,0-.89,0-1.34A131.07,131.07,0,0,1,347,889.36c.85-5,2-10,3.14-15.23.33-1.5.68-3,1-4.58h0a159.52,159.52,0,0,0,3.49-21.38,64.48,64.48,0,0,0-2-23.59ZM111.19,1002.2c-1.7-1.4-3.36-2.9-5-4.41s-3-3.25-4.4-4.95c-19.91-24.42-23.63-62.18-9.42-96.08s45.82-62.59,80.36-73.13l28.13-8.25c6.26-2.59,12.34-5,18.33-8.4s11.82-7.3,17.7-11.05c11.17-7.1,23.24-14.15,35.8-15h0c.29,0,.58-.05.87-.05h0l1.34,0c9.19,0,17.23,3.48,24.13,8.64a9.47,9.47,0,0,0-.31,2.38c0,2.45.95,5.58,4.32,9a12.72,12.72,0,0,0,11,3.51c5.62,7.34,9.34,16,9,26,0,.32-.06.64-.06,1-.81,12.55-7.85,24.63-14.95,35.79-3.75,5.89-7.61,11.67-11.06,17.7s-5.81,12.07-8.4,18.34l-8.25,28.12c-10.53,34.54-39.31,66.16-73.13,80.36a108.71,108.71,0,0,1-41.74,8.56h-.12C145,1020.17,125.74,1014.06,111.19,1002.2Zm54.22,30.49a118.86,118.86,0,0,0,23.46-2.37,123.57,123.57,0,0,0,23.24-7.16h0a142.9,142.9,0,0,0,49.71-35.67c14.28-15.69,24.84-33.87,30.55-52.57l0-.07,0-.06,8.06-27.49.51-1.24a130.63,130.63,0,0,1,6.93-15c2.52-4.41,5.28-8.69,8.2-13.23.84-1.29,1.69-2.63,2.54-3.95h0a160.07,160.07,0,0,0,10.65-18.87,64.36,64.36,0,0,0,6.24-22.83l0-.53h0c0-.27,0-.61,0-1A49.06,49.06,0,0,0,333.51,815a36.72,36.72,0,0,1,6.82,12.2c.11.29.16.62.28.92,3.56,12.06,1.11,25.83-1.7,38.75-.32,1.46-.64,2.91-1,4.36-1.2,5.35-2.4,10.68-3.31,16.07-1.14,6.8-1.29,13.33-1.56,20.11L335,936.64c2,36.06-14.11,75.65-41,100.65-19.72,18.33-44.72,28.35-68.39,28.35a76.55,76.55,0,0,1-25-4.08c-2.08-.72-4.16-1.56-6.17-2.43s-3.94-2-5.84-3.13a76.28,76.28,0,0,1-18.54-15.58,85,85,0,0,1-6-7.78C164.53,1032.65,165,1032.69,165.41,1032.69Z"/><path class="cls-3" d="M165.41,1020.17h.12a84.86,84.86,0,0,1-10.9-3h0A74.67,74.67,0,0,1,132.74,1005c-1.52-1.22-3.11-2.62-4.87-4.28l-.11-.1-.1-.11c-1.68-1.74-3.09-3.32-4.33-4.82-19.66-23.89-23.58-60.84-10-94.12,13.44-32.84,43.49-60.89,76.57-71.47l.05,0,25.34-7.81,1.41-.6a124,124,0,0,0,14.36-6.87c4.14-2.44,8.09-5.07,12.29-7.85,1.16-.78,2.37-1.58,3.57-2.36a140.63,140.63,0,0,1,16.5-9.63,53.26,53.26,0,0,1,18.8-5.45h.3c.19,0,.49-.05.84-.06a39,39,0,0,1,14.92,2.25c.18.07.36.17.55.24a9.47,9.47,0,0,1,.31-2.38c-6.9-5.16-14.94-8.64-24.13-8.64l-1.34,0h0c-.29,0-.58.05-.87.05h0c-12.56.81-24.63,7.86-35.8,15-5.88,3.75-11.67,7.6-17.7,11.05s-12.07,5.81-18.33,8.4l-28.13,8.25c-34.54,10.54-66.15,39.31-80.36,73.13s-10.49,71.66,9.42,96.08c1.39,1.7,2.89,3.36,4.4,4.95s3.25,3,5,4.41C125.74,1014.06,145,1020.17,165.41,1020.17Z"/><path class="cls-2" d="M283.38,789.42c-.35,0-.65,0-.84.06h-.3a53.26,53.26,0,0,0-18.8,5.45,140.63,140.63,0,0,0-16.5,9.63c-1.2.78-2.41,1.58-3.57,2.36-4.2,2.78-8.15,5.41-12.29,7.85a124,124,0,0,1-14.36,6.87l-1.41.6L190,830.06l-.05,0c-33.08,10.58-63.13,38.63-76.57,71.47-13.6,33.28-9.68,70.23,10,94.12,1.24,1.5,2.65,3.08,4.33,4.82l.1.11.11.1c1.76,1.66,3.35,3.06,4.87,4.28a74.67,74.67,0,0,0,21.89,12.14h0a84.86,84.86,0,0,0,10.9,3,108.71,108.71,0,0,0,41.74-8.56c33.82-14.2,62.6-45.82,73.13-80.36l8.25-28.12c2.59-6.27,5-12.34,8.4-18.34s7.31-11.81,11.06-17.7c7.1-11.16,14.14-23.24,14.95-35.79,0-.32.06-.64.06-1,.36-10-3.36-18.63-9-26a12.72,12.72,0,0,1-11-3.51c-3.37-3.37-4.32-6.5-4.32-9-.19-.07-.37-.17-.55-.24A39,39,0,0,0,283.38,789.42Zm-114.11,209a6,6,0,1,1,0-8.42A6,6,0,0,1,169.27,998.38Zm15.43,1.4a7.93,7.93,0,1,1,11.22,0A7.93,7.93,0,0,1,184.7,999.78Z"/><path class="cls-3" d="M195.92,988.56a7.93,7.93,0,1,0,0,11.22A7.93,7.93,0,0,0,195.92,988.56Z"/><path class="cls-3" d="M160.86,990a6,6,0,1,0,8.41,0A6,6,0,0,0,160.86,990Z"/><path class="cls-3" d="M1486.16,1120.94a19.62,19.62,0,0,1,6.27-5.88,28.7,28.7,0,0,1,8.56-3.29,43.58,43.58,0,0,1,9.25-1,33.88,33.88,0,0,1,6.54.65,37.69,37.69,0,0,1,6.43,1.93,31.62,31.62,0,0,1,5.86,3.14,25.12,25.12,0,0,1,4.86,4.31l-7.79,7a19.27,19.27,0,0,0-7.74-4.89,29.6,29.6,0,0,0-9.26-1.37,29.15,29.15,0,0,0-4.71.39,18,18,0,0,0-4.41,1.33,8.92,8.92,0,0,0-3.29,2.43,5.67,5.67,0,0,0-1.27,3.74,10.92,10.92,0,0,0,.67,4.14,6.51,6.51,0,0,0,1.93,2.69,11.16,11.16,0,0,0,3,1.78c1.16.47,2.43.93,3.85,1.42a97.91,97.91,0,0,0,9.83,2.67,42.53,42.53,0,0,1,9.71,3.4,22.91,22.91,0,0,1,8.45,6.67q3.2,4.15,3.19,10.84a18.08,18.08,0,0,1-2.43,9.71,19.57,19.57,0,0,1-6.28,6.39,26.22,26.22,0,0,1-8.65,3.44,47.12,47.12,0,0,1-9.67,1,37.61,37.61,0,0,1-8.39-1,33.72,33.72,0,0,1-7.85-2.9,30,30,0,0,1-6.75-4.76,25.21,25.21,0,0,1-5-6.67l9.4-5a20.71,20.71,0,0,0,7.66,7.1,23.12,23.12,0,0,0,11.08,2.52,31.33,31.33,0,0,0,5.62-.51,17.35,17.35,0,0,0,5-1.62,9.69,9.69,0,0,0,3.55-3,7.47,7.47,0,0,0,1.37-4.5,9.66,9.66,0,0,0-.71-3.89,6.71,6.71,0,0,0-2-2.58,14.45,14.45,0,0,0-3.05-1.74c-1.14-.46-2.35-.89-3.64-1.3a90.77,90.77,0,0,0-10-2.84,43.42,43.42,0,0,1-9.77-3.44,44.94,44.94,0,0,1-4.8-2.78,14.37,14.37,0,0,1-3.7-3.55,16.61,16.61,0,0,1-2.37-4.81,21.77,21.77,0,0,1-.86-6.57A15.35,15.35,0,0,1,1486.16,1120.94Z"/><path class="cls-3" d="M1577.58,1182.34h-11.44V1122.6h-22.27V1112H1601l-3.35,10.63h-20Z"/><path class="cls-3" d="M1621.41,1151.36a52.15,52.15,0,0,0,.76,9.41,16.85,16.85,0,0,0,2.67,6.73,11.83,11.83,0,0,0,5.33,4,23.16,23.16,0,0,0,8.65,1.37,21.55,21.55,0,0,0,8.41-1.42,12.15,12.15,0,0,0,5.3-4.15,16.85,16.85,0,0,0,2.79-6.78,47.12,47.12,0,0,0,.82-9.21V1112h11.43v40.1a52.61,52.61,0,0,1-1.51,13.21,25.06,25.06,0,0,1-4.91,9.86,21.75,21.75,0,0,1-8.92,6.24,36.83,36.83,0,0,1-13.41,2.17,39.3,39.3,0,0,1-13.71-2.07,20.53,20.53,0,0,1-8.86-6.13,24.68,24.68,0,0,1-4.82-9.92,55.71,55.71,0,0,1-1.46-13.36V1112h11.44Z"/><path class="cls-3" d="M1681.44,1182.34V1112h33.1a27,27,0,0,1,12.92,2.84,23.4,23.4,0,0,1,8.38,7.55,30.76,30.76,0,0,1,4.56,10.87,58.87,58.87,0,0,1,1.37,12.86,76.79,76.79,0,0,1-1.16,13.53,33.44,33.44,0,0,1-4.21,11.58,22.51,22.51,0,0,1-8.29,8.09q-5.27,3.06-13.36,3Zm29.76-10.64c4,0,7.27-.72,9.68-2.16a15.09,15.09,0,0,0,5.51-5.74,23.16,23.16,0,0,0,2.52-8.18,72.88,72.88,0,0,0,.62-9.53,55.19,55.19,0,0,0-.71-8.95,19.73,19.73,0,0,0-2.73-7.49,14.9,14.9,0,0,0-5.62-5.12,19.91,19.91,0,0,0-9.36-1.93h-18.24v49.1Z"/><path class="cls-3" d="M1766.06,1182.34h-11.44V1112h11.44Z"/><path class="cls-3" d="M1798.42,1180.86a28.5,28.5,0,0,1-10.69-7.53,32.56,32.56,0,0,1-6.43-11.55,46.82,46.82,0,0,1-2.18-14.68v-2.73a35.59,35.59,0,0,1,2.54-13.62,30.73,30.73,0,0,1,7.08-10.63,33.07,33.07,0,0,1,10.83-6.88,39.47,39.47,0,0,1,27.54,0,32.33,32.33,0,0,1,10.78,6.88,31.18,31.18,0,0,1,7,10.63,35.59,35.59,0,0,1,2.54,13.62v2.73a48,48,0,0,1-2.13,14.68,32,32,0,0,1-6.43,11.55,29,29,0,0,1-10.68,7.53,42.61,42.61,0,0,1-29.8,0Zm-1.84-53.19c-3.73,4.18-5.62,9.82-5.62,16.91v2.33a44.76,44.76,0,0,0,1.12,10.31,21.79,21.79,0,0,0,3.74,8.26,17.87,17.87,0,0,0,6.84,5.46,24.53,24.53,0,0,0,10.48,2,27.13,27.13,0,0,0,10.78-1.87,16.77,16.77,0,0,0,6.87-5.32,21.38,21.38,0,0,0,3.7-8.24,46.67,46.67,0,0,0,1.12-10.58v-2.33c0-7.09-1.86-12.73-5.62-16.91s-9.3-6.28-16.65-6.28S1800.32,1123.48,1796.58,1127.67Z"/></svg>