<svg width="80" height="80" viewBox="0 0 105 105" fill="none" xmlns="http://www.w3.org/2000/svg">
<path d="M83.7436 21.8751C91.4799 29.7665 96.25 40.5763 96.25 52.5C96.25 64.5654 91.3657 75.4902 83.4671 83.405M21.875 83.7441C13.7753 75.8034 8.75 64.7386 8.75 52.5C8.75 40.4031 13.6597 29.4529 21.5951 21.5332" stroke="black" stroke-width="6" stroke-linecap="round" stroke-linejoin="round"/>
<path d="M71.2464 35.1924C75.8879 39.6321 78.75 45.7135 78.75 52.4221C78.75 59.2104 75.8196 65.3564 71.0802 69.8092M34.125 70C29.2652 65.5327 26.25 59.3075 26.25 52.4221C26.25 45.6164 29.1958 39.4556 33.9571 35" stroke="black" stroke-width="6" stroke-linecap="round" stroke-linejoin="round"/>
<path d="M59.7463 45.7236C63.6654 48.601 65.625 50.0395 65.625 52.5C65.625 54.9605 63.6654 56.399 59.7463 59.2764C58.6648 60.0705 57.5916 60.8186 56.6055 61.4416C55.7406 61.9885 54.761 62.5538 53.7464 63.1089C49.8369 65.2488 47.8818 66.3189 46.1287 65.1341C44.3752 63.9494 44.2159 61.4696 43.8974 56.5101C43.8073 55.1075 43.75 53.7324 43.75 52.5C43.75 51.2676 43.8073 49.8925 43.8974 48.4899C44.2159 43.5302 44.3752 41.0505 46.1287 39.8659C47.8818 38.6813 49.8369 39.7512 53.7464 41.891C54.761 42.4462 55.7406 43.0116 56.6055 43.5583C57.5916 44.1814 58.6648 44.9295 59.7463 45.7236Z" stroke="black" stroke-width="6"/>
</svg>
