<?xml version="1.0" encoding="UTF-8"?>
<!DOCTYPE svg PUBLIC "-//W3C//DTD SVG 1.1//EN" "http://www.w3.org/Graphics/SVG/1.1/DTD/svg11.dtd">
<!-- Creator: CorelDRAW 2020 (64-Bit) -->
<svg xmlns="http://www.w3.org/2000/svg" xml:space="preserve" width="8in" height="8in" version="1.1" style="shape-rendering:geometricPrecision; text-rendering:geometricPrecision; image-rendering:optimizeQuality; fill-rule:evenodd; clip-rule:evenodd"
viewBox="0 0 8000 8000"
 xmlns:xlink="http://www.w3.org/1999/xlink"
 xmlns:xodm="http://www.corel.com/coreldraw/odm/2003">
 <defs>
  <style type="text/css">
   <![CDATA[
    .fil1 {fill:#0172BA}
    .fil2 {fill:#01A508}
    .fil0 {fill:#1A1A1A}
    .fil3 {fill:#515151}
   ]]>
  </style>
    <clipPath id="id0">
     <rect x="530.45" y="906.63" width="4645.44" height="1710.9"/>
    </clipPath>
 </defs>
 <g id="Layer_x0020_1">
  <metadata id="CorelCorpID_0Corel-Layer"/>
  <g id="_2282144502528">
   <g style="clip-path:url(#id0)">
    <image x="530.45" y="906.63" width="4645.43" height="1710.9" xlink:href="SIBAN Logo_Images\SIBAN Logo_ImgID1.png"/>
   </g>
   <path class="fil0" d="M2537.72 1597.54l-345.45 0c0,18.6 1.82,30.24 1.82,49.09l0 94.54c106.67,0 213.33,0 320,0 45.67,0 152.67,-7.48 189.74,10.27 48.39,23.15 43.9,83.84 36.77,130.79 -2.63,17.31 -6.04,28.77 -14.49,40.06 -15.58,20.79 -49.2,24.35 -84.74,24.35l-536.36 0 0 -541.81 540 -0.01c68.31,-0.25 78.18,30.7 78.18,103.64 0,111.85 -83.43,89.09 -185.45,89.09zm-610.91 525.45c77.7,0 149.53,1.82 227.27,1.82l436.36 0c15.16,0.01 25.31,-1.86 38.12,-1.88 13.18,-0.02 27.02,0.52 40.12,0.12 8.98,-0.27 9.09,-1.68 18.07,-1.94 97.73,-2.8 182.11,-25.76 215.33,-121.04 6.51,-18.69 11.37,-44.96 13.54,-66.46 4.56,-45.31 5.5,-107.43 -2.87,-151.11 -7.97,-41.67 -27.57,-78.78 -63.53,-100.1 -12.61,-7.48 -42.11,-21.22 -60.59,-21.22l0 -3.64c20.11,-1.67 67.18,-25.47 84.02,-52.35 26.22,-41.85 25.07,-89.41 25.07,-138.56 0,-125.31 -24.11,-214.86 -160.28,-234.26 -83.57,-11.91 -170.13,-9.37 -254.26,-9.37 -23.55,0 -40.27,1.82 -63.64,1.82l-480.2 -0.21c-8.6,0.06 -9.29,-1.3 -10.72,5.64l0.02 629.11c0,88.85 -1.82,173.69 -1.82,263.63z"/>
   <path class="fil0" d="M4199.53 1230.26l0 892.72 169.09 0 0 -656.36c6.81,4.27 6.56,2.26 12.32,7.67 11.52,10.8 12.78,14.81 19.92,21.91l40.97 44.48c4.63,4.81 5.28,7.36 9.9,11.92l51.87 51.76c42.86,48.67 101.52,102.9 144.57,151.79l73.62 75.47c3.67,3.67 6.56,6.23 10.02,9.98 4.3,4.65 5.26,7.15 9.94,11.88 14.21,14.36 29.74,27.19 42.17,43.29 11.41,14.78 28.9,27.84 41.49,42.15 19.31,21.93 34.74,35 51,54.45l83.59 85.5c44.04,45.75 31.41,49.08 132.31,47.83 10.67,-0.13 14.94,-1.98 27.17,-1.91 21.37,0.12 36.43,-1.8 56.39,-1.8l0 -712.72c0,-19.04 -20.26,-33.89 -36.82,-50.45 -39.91,-39.91 -79.17,-81.21 -120.92,-119.08 -4.24,-3.85 -8.26,-6.05 -13.17,-8.65l0 638.18c-15.55,-10.41 -27.13,-24.4 -40.45,-37.73l-113.32 -121.22c-18.2,-23.56 -92.91,-95.12 -104.68,-109.87 -3.88,-4.87 -4.62,-6.16 -9.26,-10.74l-48.12 -48.25c-15.72,-18.81 -24.33,-24.8 -38.29,-39.89 -4.08,-4.41 -4.71,-6.48 -9.03,-10.97 -6.93,-7.2 -13.18,-12.77 -20.06,-19.89l-94.52 -100.07c-3.75,-3.73 -6.6,-6.15 -9.82,-10.18 -11.06,-13.86 -34.7,-36.16 -48.36,-49.82l-47.3 -50.89c-5.34,-5.74 -24.2,-27.8 -25.89,-34.11 -14.93,0 -166.32,1 -177.43,-0.78 -6.96,-1.12 -18.93,-4.21 -18.93,4.42z"/>
   <path class="fil0" d="M2941.35 2122.99c53.94,0 107.88,0 161.82,0 10.93,0 30.48,2.87 36.96,-3.04 3.86,-3.52 12.35,-19.09 15.78,-24.23 19.08,-28.67 42.49,-73.41 58.15,-103.66l95.2 -188.44c4.79,-9.98 7.81,-17.51 12.7,-27.3 32.01,-64.01 52.66,-98.12 85.47,-158.16l101.77 -181.86c2.85,-5.14 4.07,-8.11 7.05,-12.96 3.05,-4.96 5.5,-8.8 6.92,-14.9 8.05,2.15 11.07,10.77 15.13,17.59 4.74,7.98 8.25,13.52 12.77,21.78 32.3,59.16 62.37,119.74 96.78,177.76l95.33 179.22c17.48,34.61 31.3,70.94 49.19,105.36 21.49,41.34 45.37,81.21 65.96,123.13l48.48 89.7 200 0c-0.61,-7.39 -2.93,-8.57 -6.02,-13.98 -3.04,-5.29 -4.28,-9.02 -7.47,-14.35 -3.33,-5.57 -4.68,-8.13 -7.69,-14.13 -3.03,-6.02 -5.12,-8.5 -7.91,-13.91l-30.92 -56.35c-4.89,-9.45 -9.57,-18.77 -15.29,-28.35 -3.32,-5.57 -4.68,-8.13 -7.69,-14.12l-184.89 -336.92c-23.81,-47.28 -62.82,-110.44 -84.83,-155.18l-30.91 -56.36c-16.57,-33.68 -37.06,-65.34 -53.91,-98.81l-23.22 -42.24c-3.33,-5.57 -4.68,-8.13 -7.69,-14.12l-15.49 -28.15c-2.66,-4.53 -4.65,-11.22 -10.59,-11.22l-165.46 0c-7.1,0 -10.53,3.48 -14.07,7.75 -16.95,20.46 -28.37,44.56 -41.94,67.15l-85.22 156.6c-2.79,5.61 -4.43,9.26 -7.5,14.31l-46.41 84.5c-5.14,9.65 -11,18.64 -15.77,27.87l-62.86 113.5c-16.37,27.43 -29.96,56.98 -46.57,84.34l-78.19 141.81c-28.44,46.78 -63.98,120.34 -91.79,170.02l-15.13 30.33z"/>
   <path class="fil1" d="M695.91 1513.9l68.3 42.61c11.11,6.72 62.41,36.11 72.73,38.14 18.42,3.61 123.2,-75.3 144.43,-75.3 18.35,0 61.4,30.12 78.08,40.1l74.3 43.88c22.13,13.31 135.88,81.52 151.26,85.11l1.82 349.09c0,6.47 -10.62,9.85 -16.02,13.08l-132.28 76.81c-25.69,15.56 -50.47,28.29 -76.39,43.62 -13.65,8.07 -70.69,40.43 -78.19,41.82 -11.57,2.15 -145.61,-78.01 -153.39,-82.7l-113.87 -66.13c-8.29,-4.9 -31.41,-19.29 -38.96,-21.04l0 -178.18 -145.45 0 0 258.18c0,5.15 6.91,7.43 11.67,10.15l321.15 186.12c9.27,5.34 18.12,10.7 27.78,15.85 10.75,5.73 18.67,10.8 29.09,16.36 76.89,41.01 47.04,37.9 115.75,2.41 9.81,-5.06 17.91,-10.27 27.91,-15.73l42.68 -24.59c4.91,-2.97 8.47,-5.3 13.69,-8.13l140.14 -81.68c19.56,-11.5 37.14,-20.91 56.64,-32.45 8.2,-4.85 106.69,-63.09 113.5,-64.68l0 -520c-17.28,-11.57 -35.91,-22.02 -54.2,-33.07 -18.99,-11.46 -36.93,-21.42 -56.13,-32.96 -18.68,-11.22 -36.86,-21.49 -55.21,-32.06l-84.59 -48.14c-9.85,-5.83 -18.45,-10.18 -27.96,-15.67 -43.45,-25.07 -99.74,-55 -141.56,-80.26 -37.87,-22.87 -32.54,-18.68 -104.09,23.88l-52.62 31.01c-37.5,20.28 -86.18,50.26 -125.36,72.82 -7.16,4.12 -30.85,16.54 -34.64,21.72z"/>
   <path class="fil2" d="M1050.45 943l-138.19 0 -380 219.99 0 489.09c0.02,20 -1.63,22.27 -1.82,30.91 6.44,4.31 14.84,8.95 21.82,12.73 50.5,27.35 108.89,63.84 160.62,92.1 44.35,24.23 94.52,55.5 137.56,78.81l113.98 66.02c29.09,12.35 44.03,-2.24 75.46,-22.03 64.8,-40.78 119.72,-68.27 182.92,-106.17l45.81 -26.91c-7.63,-11.4 -134.8,-84.08 -144.89,-82.72l-129.57 71.89c-20.2,10.28 -36.3,-5.29 -59.3,-19.06l-237.75 -138.61c-7.06,-3.5 -12.96,-6.29 -19.4,-9.69 0,-30.93 -1.82,-55.87 -1.82,-87.27l1.82 -265.45c13.85,-3.23 195.07,-112.64 225.45,-129.09 94.62,-51.24 64.31,-48.46 116.96,-22.41 54.93,27.18 150.18,88.22 206.68,118.77l58.18 32.73c0,31.24 1.82,56.03 1.82,87.27 0,29.7 0,59.39 0,89.09l145.45 0 0 -260 -381.81 -219.99z"/>
   <path class="fil0" d="M1590.45 2122.99l176.36 0 0 -703.63 -180 0c0,58.74 1.82,114.36 1.82,174.54l1.82 529.09z"/>
   <path class="fil0" d="M1590.45 1353.9c0,7.37 6.72,5.67 14.44,5.56l163.74 -1.92 0 -180c0,-8.98 -22.19,-5.45 -40,-5.45l-138.18 -1.82 0 183.64z"/>
   <path class="fil0" d="M3317.72 2437.53l-41.82 0 0 -36.36c36.68,0 67.27,-6.52 67.27,20 0,13.11 -12.34,16.36 -25.45,16.36zm7.27 -49.09l-49.09 0 0 -30.91 43.63 0c10.83,0 18.76,4.2 20.79,13.72 2.02,9.44 -5.19,17.19 -15.33,17.19zm-63.64 -32.73l0 83.64c0,7.72 -1.85,-0.87 -5.45,9.09 21.26,0 78.82,3.72 90.52,-5.85 18.74,-15.33 11.75,-42.39 -5.06,-46.88 0.33,-0.28 0.87,-1.12 1.01,-0.81 0.15,0.31 0.8,-0.64 1,-0.81l2 -1.64c2.01,-1.78 2.74,-2.32 4.41,-4.68 9.09,-12.85 7.18,-40.11 -30.31,-42.9 -19.05,-1.42 -43.88,-0.07 -63.56,-0.07 1.37,12.53 5.45,0.86 5.45,10.91z"/>
   <path class="fil0" d="M4248.62 2448.44c8.63,0 15.81,-1.07 21.82,1.82 -0.9,-10.8 -3.64,0.96 -3.64,-40 0,-15.15 0,-30.3 0,-45.46l63.11 71.67c5.48,7.08 2.54,4.41 0.52,11.97l25.46 0c-3.21,-8.86 -0.25,0.95 -3.43,-5.66 -1.86,-3.87 -2.02,0.7 -2.02,-7.07l0 -76.36c0,-9.21 -0.02,-2.54 2.1,-7 3.51,-7.41 2.08,4.08 3.36,-7.55l-21.82 0c-2.78,13.11 2.43,-3.25 3.76,14.38l-0.12 65.62 -59.45 -67.98c-4.85,-8.26 0.3,-0.33 1.27,-12.02l-30.91 0c1.44,13.2 3.91,-4.62 3.65,23.62l-0.04 69.09c-1.02,9.37 -1.41,2.69 -3.62,10.93z"/>
   <path class="fil0" d="M1774.09 2612.07l21.81 0c-2.39,-8.96 -3.8,-3.3 -3.72,-18.09l0.08 -65.54 44.41 50.14c3.64,4.69 5.72,5.94 9.37,10.63 16.13,20.64 13.14,10.57 9.86,22.87l25.46 0c-2.23,-8.35 -5.46,-4.59 -5.46,-10.91l0 -78.19c0,-11.55 4.2,-3.1 5.46,-14.54l-21.82 0c0.86,10.32 3.33,2.39 3.76,16.24l-0.12 63.76 -59.17 -68.27c-5.26,-8.96 -0.08,1.03 0.98,-11.73l-30.91 0c1.44,13.2 3.9,-4.62 3.65,23.62l-0.04 69.09c-1.02,9.37 -1.41,2.69 -3.61,10.93z"/>
   <path class="fil0" d="M4026.8 2519.35l0 83.63c0,5.91 -1.58,1.37 -3.64,9.09l21.82 0c-2.37,-6.56 -5.33,-2.65 -5.58,-16.24l0.13 -69.22 53.49 61.05c8.18,10.56 15.42,9.56 11.96,24.4l25.45 0c-0.92,-3.44 -0.95,-1.84 -1.98,-3.48 -0.25,-0.39 -1.23,-1.67 -1.49,-2.15l-1.41 -88.35c3.56,-11.16 3.46,3.36 4.88,-9.67l-23.63 0c1.95,17.82 5.46,-15.23 5.45,36.36 0,14.55 0,29.09 0,43.64 -7.53,-5.04 -17.18,-19.11 -23.21,-25.88l-15.4 -17.33c-3.44,-3.86 -3.63,-5.11 -7.31,-9.06 -5.86,-6.31 -9.33,-12.41 -15.9,-16.82 1.5,-13.74 2.13,2.83 3.63,-10.91l-30.91 0c-2.69,12.68 3.64,0.59 3.64,10.91z"/>
   <path class="fil0" d="M4488.62 2555.71l-40 0 0 -34.54c17.97,0 65.46,-5.04 65.46,10.91 0,14.48 1.25,23.63 -25.46,23.63zm-54.54 -36.36l0 83.63c0,5.91 -1.57,1.37 -3.64,9.09l23.64 0c-5.98,-16.5 -5.46,15.62 -5.46,-45.45 45,0 31.83,-6.75 58.04,33.1 5.17,7.86 2.29,4.32 0.14,12.35l25.46 0c-2.65,-7.33 -2.86,-2.2 -8.33,-9.85l-22.57 -35.61c11.2,-0.93 27.27,-10.26 27.27,-27.27 0,-40.99 -55.9,-30.91 -98.18,-30.91 0.89,10.71 3.64,3.79 3.64,10.91z"/>
   <path class="fil0" d="M2597.72 2437.53l-32.73 0 0 -80c48.12,0 72.73,-6.31 72.73,43.64 0,25.92 -15.2,36.36 -40,36.36zm-47.27 -81.82l0 83.64c0,7.72 -1.85,-0.87 -5.45,9.09 58.85,0 107.27,13.52 107.27,-56.36 0,-21.84 -14.05,-39.74 -32,-44.37 -18.25,-4.71 -52.67,-2.91 -75.28,-2.91 1.37,12.53 5.45,0.86 5.45,10.91z"/>
   <path class="fil0" d="M2272.26 2561.17c0,27.52 24.84,52.73 52.73,52.73 16.54,0 25.29,0.98 40.68,-6.59 8.06,-3.96 14.43,-11.62 21.14,-13.41l0 -3.63c-7.02,-1.88 -6.28,-4.43 -5.74,-14.61 0.93,-17.6 2.34,-1.76 5.74,-14.48l-41.64 -0.18c-4.18,-0.86 -2.02,-0.41 -5.02,-2.25 -4.56,-2.8 4.56,0.16 -4.24,-3.03 -2.88,6.01 -1.82,13.19 -1.82,21.82 14.65,-1.6 -9.95,-3.64 32.72,-3.64 0,19.67 2.37,27.28 -41.81,27.28 -50.48,0 -51.67,-81.82 5.45,-81.82 6.76,0 20.59,3.41 25.47,5.44 21.46,8.96 10.85,6.6 14.53,14.56 5,-3.35 8.41,-9.41 11.94,-15.8 2.04,-3.69 5.52,-4.41 -0.74,-4.9 -9.72,-0.77 3.96,6.46 -12.08,-1.88l-15.4 -6.59c-5.31,-1.48 -18.31,-3.93 -24.99,-3.16 -29.04,3.36 -56.91,19.55 -56.91,54.15z"/>
   <path class="fil0" d="M2315.9 2397.53c0,-54.86 94.54,-54.5 94.54,-3.63 0,55.06 -65.64,50.04 -82.57,31.66 -3.68,-4 -6.38,-6.7 -8.42,-11.59 -1.02,-2.45 -3.56,-13.02 -3.56,-16.44zm-14.55 0c0,25.32 22.85,52.73 54.54,52.73 19.55,0 35.97,1.3 52.32,-14.95 5.17,-5.14 8.26,-7.32 11.37,-14.09 19.99,-43.36 -17.53,-81.16 -57.92,-78.04 -16.36,1.26 -32.11,5.8 -41.75,14.74 -10.36,9.61 -18.57,25.53 -18.57,39.61z"/>
   <path class="fil0" d="M1912.26 2561.17c0,-55.19 94.55,-55.83 94.55,0 0,14.03 -4.15,21.03 -11.56,28.44 -17.19,17.18 -54.65,15.07 -71.34,-0.08 -6.94,-6.3 -11.65,-16.3 -11.65,-28.36zm-14.54 -1.81c0,30.22 24.33,54.54 54.54,54.54 20.71,0 35.83,0.35 52.31,-14.96 17.83,-16.56 21.87,-40.74 10.8,-62.69 -5.54,-10.98 -19.13,-21.5 -30.96,-25.41 -41.86,-13.81 -86.69,10.38 -86.69,48.51z"/>
   <path class="fil0" d="M2944.99 2601.17l-14.55 0c-35.37,0 -52.65,-46.36 -24.13,-71.41 16.84,-14.8 73.91,-19.11 79.27,27.2 2.75,23.69 -14.24,44.21 -40.59,44.21zm-67.27 -45.46c0,35.11 22.7,58.18 52.72,58.18 21.81,0 42.15,-0.26 58.19,-20 3,-3.7 5.88,-8.34 8.14,-13.68 8.48,-20.04 2.1,-45.71 -15.07,-59.39 -38.49,-30.68 -103.98,-7.98 -103.98,34.89z"/>
   <path class="fil0" d="M3572.26 2612.07l23.63 0c-2.3,-6.37 -5.57,-1.45 -5.59,-16.22l0.14 -69.23 67.27 76.36c-0.77,7.05 -0.85,1.38 -3.64,9.09l25.46 0c-2.64,-9.88 -3.83,0.5 -3.65,-23.62l0.09 -69.02c1.87,-13.48 2.08,2.53 3.56,-10.99l-21.82 0c1.94,17.76 5.46,-15.06 5.45,38.18 0,14.54 0,29.09 0,43.64l-30.45 -35c-3.67,-3.95 -3.87,-5.2 -7.31,-9.06l-24.06 -26.85c1.37,-12.57 3.47,0.47 2.61,-7.7 -0.67,-6.28 -15.43,-3.21 -31.7,-3.21 1.97,18 5.45,-18.62 5.45,50.91 0,9.69 -0.08,19.42 0.02,29.11 0.26,26.19 -2.77,13.48 -5.47,23.61z"/>
   <path class="fil0" d="M4190.44 2559.35c0,30.6 24.47,54.54 52.73,54.54 36.42,0 32.7,-1.72 60,-20 -2.2,-8.25 -3.97,-3.09 -3.89,-16.38 0.1,-15.95 2.76,-6.07 3.89,-16.35 -9.15,0 -37.37,2.16 -44.85,-2.43 -4.56,-2.8 4.56,0.16 -4.24,-3.03 -2.88,6.01 -1.82,13.19 -1.82,21.82 14.65,-1.6 -9.95,-3.64 32.73,-3.64l0 18.19c-5.85,1.56 -5.96,3.5 -12.16,6.02 -20.47,8.31 -67.84,4.66 -67.84,-36.93 0,-45.36 55.69,-49.51 80.05,-30.93 8.72,6.65 -1.28,-1.41 3.59,9.12 5,-3.35 8.41,-9.4 11.94,-15.8 2.04,-3.69 5.52,-4.4 -0.73,-4.91 -9.56,-0.78 2.69,4.53 -8.77,0.26 -7.51,-2.8 -22.43,-13.61 -42.12,-12.09 -21.53,1.67 -34.21,7.85 -46.11,21.29 -0.25,0.28 -0.6,0.69 -0.85,0.97 -0.24,0.28 -0.6,0.69 -0.85,0.97l-1.67 1.97c-4.91,6.2 -9.02,18.02 -9.02,27.34z"/>
   <path class="fil0" d="M3095.9 2355.71l0 83.64c0,7.72 0.24,0.21 -2.57,4.7 -3.81,6.12 0.1,-3.86 -2.89,4.39l23.64 0c-2.31,-6.37 -5.57,-1.45 -5.59,-16.22l0.14 -69.23c3.48,2.55 12.7,14.24 16.09,18.44l51.18 57.92c-0.72,6.52 -0.01,1.16 -1.24,4.22 -1.35,3.36 0.01,-1.79 -2.4,4.87l25.46 0c-1.93,-7.22 -2.22,-2.17 -3.41,-9.32l-0.23 -88.86c9.83,-0.84 10.47,-5.46 -18.18,-5.46 1.94,17.76 5.45,-15.05 5.45,38.19 0,14.54 0,29.09 0,43.63l-45.45 -52.72c-2.71,-3.53 -13.27,-16.11 -16.36,-18.19 0.84,-7.74 9.85,-10.27 -5.16,-11.07 -7.14,-0.38 -16.5,0.17 -23.93,0.17 1.37,12.53 5.46,0.86 5.46,10.91z"/>
   <path class="fil0" d="M2148.63 2561.17c0,-54.87 94.55,-56.34 94.55,0 0,14 -4.16,21.04 -11.56,28.44 -21.16,21.15 -82.98,16.35 -82.98,-28.44zm-14.54 0c0,28.22 25.67,52.73 54.55,52.73 19.91,0 34.89,1.22 52.31,-14.96 23.63,-21.95 22.78,-55.3 -2.76,-78.22 -5.54,-4.98 -11.34,-8.04 -18.77,-10.32 -41.31,-12.66 -85.33,10.48 -85.33,50.78z"/>
   <path class="fil0" d="M3804.98 2601.17l-16.36 0c-35.85,0 -52.4,-46.58 -24.13,-71.41 26.51,-23.29 97.12,-6.62 76.7,47.61 -2.4,6.38 -3.63,6.8 -8.42,11.59 -6.58,6.58 -15.46,12.21 -27.79,12.21zm-69.09 -41.82c0,32.85 26.13,54.54 52.73,54.54 19.17,0 38.98,0.3 54.15,-14.94 22.62,-22.72 21.48,-55.79 -1.81,-77.41 -30.05,-27.89 -105.07,-15.96 -105.07,37.8z"/>
   <path class="fil0" d="M3537.71 2437.53c-18.06,0 -27.13,1.57 -41.18,-11.55 -25.69,-24 -8.93,-70.27 33.91,-70.27 66.25,0 61.44,81.82 7.27,81.82zm-67.27 -41.81c0,17.52 4.35,27.11 15.85,38.69 29.91,30.13 107.78,19.07 107.78,-36.87 0,-16.7 -8.63,-29.98 -17.66,-38.7 -21.04,-20.3 -68.87,-22.65 -93.99,5.23 -7.45,8.28 -11.98,19.16 -11.98,31.65z"/>
   <path class="fil0" d="M3501.35 2601.17l-16.36 0c-51.07,0 -53.52,-81.82 7.27,-81.82 47.52,0 62.04,44.46 36.88,69.61 -6.58,6.58 -15.47,12.21 -27.79,12.21zm-69.09 -41.82c0,32.85 26.13,54.54 52.73,54.54 19.17,0 38.98,0.3 54.15,-14.94 22.62,-22.72 21.48,-55.79 -1.81,-77.41 -30.05,-27.89 -105.07,-15.96 -105.07,37.8z"/>
   <path class="fil0" d="M2835.9 2392.08c-46.64,0 -38.18,8.15 -38.18,-34.55 26.35,0 67.27,-6.51 67.27,16.37 0,16.04 -13.26,18.18 -29.09,18.18zm-50.91 -36.37l0 81.82c0,6.32 -3.22,2.56 -5.45,10.91l23.64 0c-4.46,-16.72 -5.46,12.32 -5.46,-40 0,-7.67 8.2,-5.65 16.3,-5.52 7.3,0.12 14.59,0.06 21.88,0.06 2.11,7.91 17.09,27.02 20.83,33.99 3.85,7.16 0.38,8.12 -0.83,11.47l27.27 0c-3.42,-8.47 -0.83,1.88 -9.19,-9 -2.8,-3.64 -4.71,-8.08 -7.52,-12.47 -4.35,-6.79 -12.42,-16.33 -14.2,-23.99 7.81,-1.82 13.59,-3.79 18.43,-8.83 12.49,-12.99 10.34,-33.57 -4.59,-43.19 -13.87,-8.95 -62.84,-6.15 -86.57,-6.15 1.37,12.53 5.45,0.86 5.45,10.91z"/>
   <path class="fil0" d="M2766.81 2539.35c0,9.25 5.2,17.36 11.76,20.97 27.05,14.93 71.88,-4.11 71.88,22.66 0,22.66 -43.67,21.63 -63.09,12.17 -8.91,-4.33 -8.52,-3.57 -10.8,-8.28 -2.33,-4.81 4.67,-1.13 -2.48,-3.89 -4.02,-1.55 -11.83,16.16 -12.72,20 22,-5.12 5.04,10.91 65.45,10.91 9.33,0 20.18,-5.15 25.55,-9 20.7,-14.82 17.8,-50.33 -21.85,-51.06 -20.48,-0.37 -49.15,0.78 -49.15,-14.48 0,-22.48 34.62,-22.02 57.11,-15.28 15.97,4.78 8.41,5.74 11.98,13.46 3.27,-2.4 12.3,-16.15 11.92,-20.15 -0.74,-7.65 -2.96,-1.64 -4.12,-1.5 -8.26,1 -9.77,-4.24 -34.52,-8.03 -24.07,-3.69 -56.91,6.11 -56.91,31.51z"/>
   <path class="fil0" d="M1699.54 2437.53c-18.65,0 -23.47,1.55 -40.7,-6.58 -18.89,-8.92 -1.9,-10.23 -13.85,-13.42 -2.37,10.17 -8.6,13.18 -10.91,21.82 16.42,-1.37 7.85,-1.59 22.57,4.7 33.23,14.23 81.07,4.12 81.07,-21.07 0,-10.91 0.72,-19.96 -12.23,-27.78 -10.48,-6.32 -35.42,-5.06 -54.81,-7 -34.77,-3.48 -13.3,-44.48 39.44,-28.54 9.13,2.76 11.52,4.31 12.75,9.47l0.3 2.94c7.94,-2.12 13.39,-18.68 13.39,-18.68 0,-8.64 -0.2,2.06 -11.24,-1.41 -2.74,-0.86 -5.07,-2.26 -7.85,-3.3 -62.17,-23.19 -101.41,31.17 -62.19,49.45 12.06,5.62 24.25,3.68 40.52,4.93 50.07,3.85 25.61,34.46 3.73,34.46z"/>
   <path class="fil0" d="M2737.72 2581.17c0,29.12 -61.22,22.35 -73.7,8.44 -6.33,-7.05 2.33,2.34 -2.66,-8.44 -4.99,3.34 -6.75,8.03 -10.4,13.56 -7.18,10.88 -3.43,6.36 4.53,7.28 1.26,0.15 51.17,25.71 81.54,3.93 26.41,-18.94 14.52,-47.89 -12.43,-51.64 -16.93,-2.36 -46.04,2.03 -54.14,-7.77 -18.35,-22.21 35.4,-35.28 60.52,-20.42 4.37,2.59 4.78,3.09 4.93,9.61 6.92,-1.85 16.47,-18.98 12.16,-20.52 -9.69,-3.44 5.55,5.68 -11.02,-0.34 -5.49,-2 -9.36,-3.87 -14.98,-5.29 -66.26,-16.67 -91.91,44.13 -45.76,54.85 18.48,4.29 61.43,-2.59 61.43,16.76z"/>
   <path class="fil0" d="M2895.9 2373.9c0,12.96 8.83,21.84 18.33,25.3 21.84,7.94 67.94,-3.27 66.66,19.93 -1.26,22.77 -43.32,21.98 -64.45,12.41 -15.61,-7.09 -7.97,-5.57 -11.45,-14 -4.35,1.57 -4.33,3.02 -8.34,9.84 -2.64,4.48 -4.98,7.41 -6.2,11.98 15.88,-1.32 8.26,-1.91 22.39,4.87 25.46,12.21 81.24,7.61 81.24,-23.06 0,-56.54 -83.63,-11.96 -83.63,-47.27 0,-6.62 6.67,-11.62 11.89,-13.56 28.71,-10.66 38.81,0.19 57.19,4.46 -0.72,8.67 -2.29,3.55 0,9.09 6.63,-4.44 5.24,-5.81 9.28,-12.67 1.77,-3.01 3.13,-3.47 3.95,-6.86 1.89,-7.85 -2.08,-2.58 -3.83,-2.39 -17.66,1.97 -32.67,-18.68 -72.33,-2.84 -10.7,4.28 -20.7,14.67 -20.7,24.76z"/>
   <path class="fil0" d="M2070.45 2346.62c2.94,8.14 -0.37,-0.91 2.89,4.39 2.78,4.5 2.57,-3.03 2.57,4.7l0 83.64c0,7.72 -1.85,-0.87 -5.45,9.09 9.8,0 76.37,-1.89 84.06,1.39 8.94,3.82 -3.52,2.73 8.67,4.06l0 -21.81c-12.53,1.37 -0.86,5.45 -10.91,5.45l-61.81 0 0 -36.36 36.36 0c11.55,0 3.1,4.2 14.55,5.45l0 -21.81c-20.85,2.28 22.9,5.45 -50.91,5.45l0 -32.73 61.81 0c7.72,0 -0.87,1.85 9.09,5.46 2.88,-6.01 1.82,-13.19 1.82,-21.82 -4.7,0.51 -2.62,0.87 -4.06,1.4 -5.49,2.04 1.83,-0.03 -3.94,1.51 -13.8,3.68 -71.56,-3.78 -84.73,2.54z"/>
   <path class="fil0" d="M4321.35 2508.44c0.89,10.71 3.64,3.79 3.64,10.91l0 83.63c0,5.91 -1.57,1.37 -3.64,9.09l71 -0.09c18.96,-0.15 9.13,2.67 19.91,5.55l0 -21.82c-9.93,3.59 -1.39,5.46 -9.09,5.46l-63.64 0 0 -36.37c73.81,0 30.06,3.17 50.91,5.46l0 -21.82c-20.85,2.28 22.91,5.45 -50.91,5.45l0 -32.72 61.82 0c10.05,0 -1.62,4.08 10.91,5.45l0 -21.82c-5.04,0.55 -2.07,1.33 -8,2.91 -3.88,1.03 -7.7,0.83 -11.93,0.79 -7.91,-0.08 -15.8,-0.07 -23.7,-0.07 -15.76,0 -31.52,0 -47.28,0z"/>
   <path class="fil0" d="M1414.09 2508.44c1.37,12.53 5.46,0.86 5.46,10.91l0 83.63c0,7.72 0.23,0.21 -2.57,4.71 -3.81,6.11 0.09,-3.86 -2.89,4.38l72.82 -0.1c23.22,-0.22 6.56,4.09 19.91,5.56l0 -21.82c-12.53,1.37 -0.86,5.46 -10.91,5.46l-61.82 0 0 -36.37 38.18 0c6.32,0 2.56,3.22 10.91,5.46l0 -21.82c-16.8,6.08 16.83,5.45 -49.09,5.45l0 -32.72 61.82 0c7.72,0 -0.88,1.85 9.09,5.45l0 -21.82c-8.31,2.22 -1.74,3.87 -19.94,3.69 -7.9,-0.07 -15.8,-0.06 -23.69,-0.06 -15.76,0 -31.52,0 -47.27,0z"/>
   <path class="fil0" d="M1648.63 2510.26c3.59,9.93 5.46,1.39 5.46,9.09l0 83.63c0,7.72 0.23,0.21 -2.57,4.71 -3.81,6.11 0.09,-3.86 -2.89,4.38l23.64 0c-2.06,-7.72 -3.64,-3.18 -3.64,-9.09l0 -38.18 65.45 0 0 38.18c0,5.91 -1.57,1.37 -3.63,9.09l23.63 0c-3.59,-9.93 -5.45,-1.38 -5.45,-9.09l0 -83.63c0,-10.05 4.08,1.62 5.45,-10.91l-23.63 0c0.55,5.04 1.33,2.07 2.91,8l0.72 37.45 -65.45 0 0 -40c20.48,-1.74 -14.37,-9.98 -20,-3.63z"/>
   <path class="fil0" d="M2179.54 2346.62c2.94,8.14 -0.37,-0.91 2.89,4.39 2.77,4.5 2.57,-3.03 2.57,4.7l0 83.64c0,7.72 -1.85,-0.87 -5.45,9.09l23.63 0c-2.06,-7.72 -3.64,-3.18 -3.64,-9.09l0 -38.18 65.46 0 0 38.18c0,5.91 -1.58,1.37 -3.64,9.09l23.64 0c-3.59,-9.93 -5.46,-1.39 -5.46,-9.09l0 -83.64c0,-10.05 4.09,1.62 5.46,-10.91l-23.64 0c0.75,6.82 3.88,1.86 3.7,19.93 -0.09,8.51 -0.07,17.01 -0.07,25.52l-65.46 0 0 -34.55c0,-7.11 2.75,-0.2 3.64,-10.91 -6,0 -21.17,-0.97 -23.63,1.82z"/>
   <path class="fil0" d="M2670.44 2344.8c1.16,10.62 5.45,3.45 5.45,14.55l0 78.18c0,6.32 -3.22,2.56 -5.45,10.91 8.07,0 78.28,-1.47 84.34,1.11 8.66,3.69 -4.43,2.94 8.39,4.34l0 -21.81c-12.53,1.37 -0.86,5.45 -10.91,5.45l-58.18 0c-8.39,0 -5.46,-10.22 -5.46,-30.91 0,-9.1 15.5,-5.45 40,-5.45 10.05,0 -1.62,4.08 10.91,5.45l0 -21.81c-20.21,2.21 20.55,5.45 -45.45,5.45 -8.54,0 -5.46,-11.17 -5.46,-32.73l63.64 0c7.72,0 -0.87,1.85 9.09,5.46l0 -21.82c-8.31,2.22 -1.74,3.86 -19.95,3.69 -7.9,-0.07 -15.79,-0.06 -23.69,-0.06 -15.76,0 -31.52,0 -47.27,0z"/>
   <path class="fil0" d="M1957.72 2448.44c8.8,0 17.58,-1.09 23.64,1.82 -1.36,-16.29 -3.64,11 -3.64,-38.18 0,-6.49 17.54,-17.04 21.82,-18.18l31.01 39.94c6.5,8.07 4.46,5.26 3.54,16.42 6.13,-2.94 18.14,-1.82 27.27,-1.82 -2.61,-7.22 -4.31,-1.05 -14.31,-14.78 -4.31,-5.93 -8.17,-10.65 -12.72,-16.37l-25.69 -32.48c14.85,-9.94 36.6,-31.64 49.09,-34.55l0 -5.46 -29.09 0 2.02 6.23c0.25,4.56 -46.45,38.52 -52.93,42.86l0.08 -38.1c1.87,-13.48 2.08,2.53 3.56,-10.99l-23.64 0c1.97,18.01 5.45,-18.62 5.45,50.91l-0.28 43.35c-1.65,6.7 -3.43,2.84 -5.17,9.38z"/>
   <path class="fil0" d="M3974.07 2355.71l0 81.82c0,6.32 -3.22,2.56 -5.45,10.91l23.63 0c-4.53,-16.96 -5.45,13.06 -5.45,-41.82 0,-4.19 1.26,-5.45 5.45,-5.45l61.82 0 0 38.18c0,7.72 -1.85,-0.87 -5.45,9.09l23.63 0c-2.06,-7.72 -3.64,-3.18 -3.64,-9.09l0 -83.64c0,-7.11 2.75,-0.2 3.64,-10.91 -8.8,0 -17.58,-1.09 -23.63,1.82 5.96,16.47 5.45,-15.17 5.45,43.64l-61.82 0c-8.39,0 -5.45,-10.22 -5.45,-30.91 0,-11.55 4.2,-3.1 5.45,-14.55l-23.63 0c1.37,12.53 5.45,0.86 5.45,10.91z"/>
   <path class="fil0" d="M3735.89 2346.62c3.59,9.93 5.46,1.39 5.46,9.09l0 83.64c0,7.72 -1.85,-0.87 -5.46,9.09l23.64 0c-2.06,-7.72 -3.64,-3.18 -3.64,-9.09l0 -27.27c0,-4.41 1.05,-3.58 9.65,-10.35 4.29,-3.38 8.38,-7.11 12.17,-9.65 1.39,5.19 16.48,22.82 20.79,28.3 22.04,28.04 16.63,17.28 13.76,28.06 9.13,0 21.14,-1.13 27.28,1.82 -1.37,-12.53 2.3,3.28 -13.16,-15.93l-25.59 -32.59c-5.65,-6.97 -10.63,-11.23 -12.15,-16.93 3.85,-5.25 17.86,-14.46 24.06,-19.58l19.19 -13.54c6.85,-3.93 3.13,1.67 5.85,-5.06 -6.52,-3.13 -19.67,-1.82 -29.09,-1.82 1.02,12.3 4.13,5.06 -22.38,26.71l-21.45 16.73c-4.84,3.92 -2.51,3.94 -8.89,5.65 0,-7.24 -1.11,-35.24 1.2,-40.77 3.59,-8.56 4.99,3.73 2.44,-8.33 -6,0 -21.17,-0.97 -23.64,1.82z"/>
   <path class="fil0" d="M3234.08 2528.44l3.63 0c0.93,11.11 15.25,31.05 18.19,43.63l-40 0c3.04,-13.03 15.5,-32.15 18.18,-43.63zm-54.55 83.63l23.64 0c-2.16,-8.07 -5.23,-4.36 -0.81,-13.31 2.86,-5.8 4.76,-7.51 6.27,-13.96l54.54 0c1.54,6.6 2.49,7.7 5.03,13.37 4.27,9.52 0.82,7.79 -1.39,13.91l27.27 0c-2.86,-7.91 -4.15,-2.42 -9.75,-12.06 -3.3,-5.69 -4.38,-10.32 -7.21,-16.43 -2.6,-5.6 -4.76,-8.89 -7.2,-14.62l-14.04 -31.41c-1.67,-3.74 -7,-12.44 -7.96,-15.94 -3.52,-12.8 10.76,-8.69 -1.28,-12.73 -2.91,-0.98 -19.2,-0.44 -23.46,-0.44 1.37,16.52 8.51,-5.48 -4.93,25.98l-30.53 65.83c-3.96,6.72 -6.09,3.98 -8.18,11.82z"/>
   <path class="fil0" d="M2584.99 2528.44l3.63 0c2.86,12.29 15.41,31.76 18.19,43.63l-40 0c2.86,-12.29 15.42,-31.75 18.19,-43.63zm-54.55 83.63l25.46 0c-2.59,-7.16 -0.28,-0.2 -5.46,-7.27 0.25,-0.37 0.56,-1.43 0.66,-1.16l8.43 -18.84 54.54 0c1.22,5.24 2,5.57 4.09,10.45 0.5,1.17 1.5,3.85 2.15,5.13 2.21,4.33 0.57,1.8 2.85,4.42 -5.19,7.07 -2.87,0.11 -5.46,7.27l27.28 0c-2.57,-9.63 -2.48,-1.56 -8.36,-9.82 -2.06,-2.9 -4.43,-10.3 -6.17,-13.84l-30.26 -64.5c-0.18,-0.4 -0.46,-0.86 -0.63,-1.25 -2,-4.82 -2.58,2.59 -1.13,-6.24 1.33,-8.07 1.51,4.75 2.9,-7.99l-27.27 0c1,12.07 7.85,0.97 -4.84,26.07 -4.67,9.23 -7.5,16.89 -12.11,26.07l-18.29 39.89c-5.37,11.2 -5.7,1.47 -8.4,11.6z"/>
   <path class="fil0" d="M1890.44 2364.8l3.64 0c0.93,11.15 15.41,31.71 18.18,43.64l-40 0c3.04,-13.03 15.5,-32.15 18.18,-43.64zm-54.54 83.64l23.64 0c-2.16,-8.07 -5.23,-4.36 -0.82,-13.31 2.86,-5.8 4.77,-7.51 6.27,-13.96l54.55 0c3.52,15.14 9.38,14.76 5.69,23.67 -0.15,0.36 -0.48,0.89 -0.63,1.22l25.85 2.39c-2.86,-7.91 -4.15,-2.42 -9.75,-12.07l-28.46 -62.45c-1.66,-3.74 -6.99,-12.44 -7.96,-15.94 -3.52,-12.8 10.76,-8.69 -1.28,-12.73 -2.91,-0.98 -19.2,-0.44 -23.46,-0.44 1.37,16.52 8.51,-5.48 -4.93,25.98l-30.53 65.83c-3.96,6.72 -6.09,3.98 -8.18,11.82z"/>
   <path class="fil0" d="M4139.53 2362.99l20 45.45 -41.82 0c5.21,-9.84 16.56,-39.4 21.82,-45.45zm-58.18 85.45c8.97,0 19.35,-1.11 25.46,1.82 -1.01,-12.15 -6.96,-3.15 -1.44,-15.76 7.96,-18.19 5.94,-13.33 55.98,-13.33 5.37,0 7.78,7.45 9.8,12.2 4.61,10.86 1.62,6.37 -0.7,15.07l25.46 0c-2.6,-9.73 -2.19,-0.98 -7.93,-10.26 -2.59,-4.18 -3.59,-9.04 -5.99,-14.01l-30.54 -66.07c-5.09,-11.84 -0.29,0.04 0.82,-13.3 -21.25,0 -26.83,-2.4 -25.93,4.27 0.43,3.2 4.32,-2.49 1.19,8.91 -0.77,2.79 -5.72,11.34 -7.4,14.69 -6.17,12.32 -27.21,61.93 -33.08,68.74 -5.68,6.59 -3.17,0.09 -5.69,7.04z"/>
   <path class="fil0" d="M1521.36 2555.71c0,20.76 1.73,27.23 14.81,41.56l14.24 11.22c18.67,8.67 45.75,7.46 63.74,-1.81 9.02,-4.65 8.11,-7.19 17.07,-8.79 1.95,-0.35 1.09,0.48 2.87,-0.36 -2.09,-7.83 -8.56,-14.18 -14.54,-18.18 -3.31,8.01 3.83,0.21 -2.36,8.52 -13.75,18.46 -81.28,26.14 -81.28,-30.34 0,-30.14 34.3,-45.76 69.41,-33.04 3.79,1.37 6.83,2.3 9.51,5.03 5.25,5.33 0.34,5.28 6.54,9.83 2.26,-8.45 8.8,-12.76 10.91,-21.82 -8.46,0.7 -4.68,2.83 -12.15,-0.45 -4.45,-1.95 -6.42,-3.63 -11.22,-5.27 -45.13,-15.36 -87.54,9.76 -87.54,43.9z"/>
   <path class="fil0" d="M3015.9 2555.71l0 10.91c0,23.14 26,47.27 49.09,47.27 33.73,0 30,0.04 53.54,-13.85 6.49,-3.83 3.99,-0.83 11.92,-2.51 -2.4,-3.59 -4.54,-5.56 -7.25,-9.11 -3.39,-4.44 -4.36,-5.89 -9.11,-9.07 -2.24,5.41 2.82,5.41 -10.56,14.89 -10.96,7.76 -21.38,6.93 -34.89,6.93 -11.27,0 -19.3,-5.9 -25.54,-10.83 -30.89,-24.37 -6.01,-90.57 56.54,-65.63 17.01,6.78 8.12,8.67 16.27,14.64 1.95,-7.31 8.96,-14.51 10.91,-21.82 -20.56,1.71 -2.74,1.3 -23.37,-5.72 -42.94,-14.62 -87.54,7.24 -87.54,43.9z"/>
   <path class="fil0" d="M3608.62 2395.72c0,19.26 4.16,26.25 14.81,37.92 1.09,1.19 1.47,1.71 2.6,2.85 18.44,18.62 55.48,17.33 76.57,5.94 4.43,-2.4 6.07,-4.42 10.06,-6.44 9.26,-4.69 3.54,0.79 10.51,-2.09 -4.37,-6.52 -9.87,-13.84 -16.36,-18.19 -2.28,5.53 3.47,4.22 -6.1,12l-3.16 2.37c-17.02,11.55 -44.84,10.72 -62.76,-4.16 -28.36,-23.54 -6.33,-87.63 57.77,-65.04 20.05,7.06 6.89,8.11 16.07,14.83 2.26,-8.44 8.8,-12.76 10.91,-21.82 -16.06,3.74 -8.42,-3.22 -31.94,-8.06 -24.31,-4.99 -49.77,-1.72 -66.53,16.85 -6.71,7.43 -12.43,19.22 -12.43,33.02z"/>
   <path class="fil0" d="M4634.07 2528.44l3.64 0c0.93,11.11 15.25,31.05 18.18,43.63l-40 0c2.3,-9.89 5.5,-13.84 9.07,-21.84 2.48,-5.55 7.88,-16.5 9.11,-21.79zm-54.54 83.63l23.64 0c-2.16,-8.07 -5.23,-4.36 -0.82,-13.31 2.86,-5.8 4.77,-7.51 6.27,-13.96l54.55 0c1.54,6.6 2.48,7.7 5.03,13.37 2.21,4.94 2.8,5.13 0.66,10.3l25.22 3.6c-2.86,-7.91 -4.15,-2.42 -9.75,-12.06l-36.41 -78.4c-2.58,-9.38 0.61,-7.05 0.79,-7.8 0.11,-0.45 6.15,-2.17 -2.07,-4.93 -2.91,-0.98 -19.2,-0.44 -23.46,-0.44 1.37,16.52 8.51,-5.48 -4.93,25.98l-24.19 52.17c-1.35,3.02 -4.48,10.5 -6.33,13.66 -3.96,6.72 -6.09,3.98 -8.18,11.82z"/>
   <path class="fil0" d="M3839.53 2397.53c0,4.4 3.19,16.78 4.84,20.62 16.21,37.7 66.41,37.51 88.52,25.46 4.32,-2.35 5.93,-4.2 9.93,-6.58 8.94,-5.33 4.85,-0.49 11.26,-3.14 -1.27,-4.76 -10.33,-15.37 -14.54,-18.19 -1.56,3.24 -0.56,2.27 -1.27,4.19 -10.21,27.72 -88.08,26.02 -83.79,-25.56 4.3,-51.6 73.34,-40.25 81.31,-26.32 0.13,0.22 0.28,0.75 0.37,0.98l0.46 2.07c0.09,0.23 0.16,0.8 0.27,1.01 2.18,4.28 -5.95,0.85 4.46,3.63 1.9,-8.15 6.8,-13.87 10.91,-20 -8.7,-4.02 -1.08,2.54 -14.57,-3.49 -29.47,-13.19 -62.5,-12.83 -85.02,11.18 -7.93,8.45 -13.14,24.16 -13.14,34.13z"/>
   <path class="fil0" d="M3875.89 2508.44c1.97,18 5.46,-18.62 5.46,50.91 0,9.69 -0.08,19.42 0.02,29.11 0.26,26.19 -2.77,13.48 -5.47,23.61 8.8,0 17.58,-1.09 23.64,1.82 -0.89,-10.71 -3.64,-3.79 -3.64,-10.91l0 -38.18 41.82 0c7.71,0 0.21,-0.24 4.7,2.57 6.11,3.81 -3.86,-0.09 4.39,2.89 0,-8.63 -1.06,-15.81 1.82,-21.82 -21,2.3 23.46,5.45 -52.73,5.45l0 -32.72 63.63 0c7.72,0 0.21,-0.24 4.71,2.56 6.11,3.81 -3.86,-0.09 4.39,2.89 2.88,-6.01 1.81,-13.19 1.81,-21.82 -6.81,0.75 -1.85,3.88 -19.93,3.7l-74.61 -0.07z"/>
   <path class="fil0" d="M1305 2526.62c16.29,-5.9 -14.52,-5.45 41.82,-5.45l0 81.81c0,5.91 -1.58,1.37 -3.64,9.09l23.63 0c-3.59,-9.93 -5.45,-1.38 -5.45,-9.09l0 -81.81 32.73 0c7.72,0 -0.87,1.85 9.09,5.45 2.88,-6.01 1.82,-13.19 1.82,-21.82 -12.77,1.4 0.91,1.2 -9.44,3.3l-66.94 0.36c-25,0.19 -13.49,-0.94 -23.62,-3.65l0 21.82z"/>
   <path class="fil0" d="M3281.35 2526.62c8.14,-2.95 -0.91,0.37 4.39,-2.89 4.5,-2.77 -3.03,-2.56 4.7,-2.56l32.73 0 0 81.81c0,5.91 -1.57,1.37 -3.64,9.09l23.64 0c-3.59,-9.93 -5.46,-1.38 -5.46,-9.09l0 -81.81c66,0 21.61,3.04 43.64,5.45l0 -21.82c-12.95,1.42 3.77,3.95 -21.78,3.67l-67.29 -0.06c-9.37,-1.02 -2.68,-1.41 -10.93,-3.61l0 21.82z"/>
   <path class="fil0" d="M1748.63 2362.99c16.29,-5.9 -14.52,-5.46 41.82,-5.46l0 81.82c0,7.72 -1.85,-0.87 -5.46,9.09l23.64 0c-2.06,-7.72 -3.64,-3.18 -3.64,-9.09l0 -81.82 32.73 0c7.72,0 -0.87,1.85 9.09,5.46l0 -21.82c-9.17,2.45 -0.36,3.87 -21.79,3.67l-67.22 -0.11c-13.48,-1.87 2.53,-2.08 -10.99,-3.56 0,8.63 -1.06,15.81 1.82,21.82z"/>
   <path class="fil0" d="M2392.26 2513.89c10.73,2.87 45.45,54.27 45.45,56.37 0,54.87 -0.93,24.85 -5.45,41.81l23.63 0c-4.19,-15.68 -5.45,6.96 -5.45,-41.81 0,-3.91 25.87,-37.97 31.15,-45.22 4.17,-5.72 6.4,-9.3 14.31,-11.15l0 -5.45 -27.28 0c1.04,9.54 1.69,3.24 2.31,6.52 1,5.29 -5.09,11.77 -10.08,18.44l-17.68 22.31c-1.33,-4.99 -3.97,-7.23 -7.01,-11.18 -3.03,-3.94 -4.83,-6.78 -7.55,-10.63 -2.59,-3.66 -5.17,-6.2 -7.82,-10.49 -4.81,-7.78 -1.99,-6.2 -1.26,-14.98l-27.27 0 0 5.45z"/>
   <path class="fil3" d="M912.27 943l138.19 0c-7.47,-1.1 -60.61,-35.41 -68.82,-35.28 -8.93,0.15 -62.28,34.24 -69.36,35.28z"/>
   <path class="fil0" d="M3374.08 2448.44c8.07,0 78.28,-1.47 84.34,1.11 8.66,3.69 -4.43,2.94 8.38,4.34l0 -21.81c-12.52,1.37 -0.85,5.45 -10.91,5.45l-61.81 0 0.34 -83.29c2.1,-10.34 1.89,3.33 3.29,-9.44l-23.63 0c1.97,18.01 5.45,-18.62 5.45,50.91l-0.29 43.35c-1.65,6.7 -3.42,2.84 -5.17,9.38z"/>
   <path class="fil0" d="M2043.17 2519.35l0 83.63c0,5.91 -1.57,1.37 -3.64,9.09l71 -0.09c18.96,-0.15 9.13,2.67 19.91,5.55l0 -21.82c-12.53,1.37 -0.86,5.46 -10.91,5.46l-61.82 0 0 -81.82c0,-7.72 1.85,0.87 5.45,-9.09 -6.06,-2.91 -14.84,-1.82 -23.64,-1.82 -2.68,12.68 3.64,0.59 3.64,10.91z"/>
   <path class="fil0" d="M2443.17 2448.44l71 -0.09c18.96,-0.16 9.13,2.67 19.91,5.54l0 -21.81c-12.97,3.46 2.8,4.28 -12.59,5.59l-60.13 -0.13 0 -81.82c0,-10.05 4.08,1.62 5.45,-10.91l-23.63 0c1.44,13.2 3.9,-4.62 3.65,23.62l-0.04 69.09c-1.02,9.37 -1.41,2.69 -3.61,10.93z"/>
   <path class="fil0" d="M4546.8 2612.07l23.64 0c-0.92,-3.44 -0.95,-1.84 -1.98,-3.48 -4.65,-7.42 -3.68,-6.02 -3.52,-18.3l0 -58.25c-0.34,-29.65 3.97,-9.74 5.49,-23.61l-23.64 0c1.4,12.77 1.2,-0.91 3.29,9.43l0.32 83.27c-1.02,9.37 -1.41,2.69 -3.61,10.93z"/>
   <path class="fil0" d="M3395.89 2519.35l0 83.63c0,7.72 -1.85,-0.87 -5.45,9.09l23.64 0c-2.64,-9.88 -3.83,0.5 -3.65,-23.62l0.09 -69.02c1.87,-13.48 2.08,2.53 3.56,-10.99l-23.64 0c1.37,12.53 5.45,0.86 5.45,10.91z"/>
   <path class="fil0" d="M4204.98 2450.26c6.06,-2.91 14.84,-1.82 23.63,-1.82 -2.94,-8.14 0.37,0.91 -2.89,-4.39 -2.78,-4.5 -2.57,3.03 -2.57,-4.7l0 -83.64c0,-10.05 4.08,1.62 5.45,-10.91l-23.63 0c1.44,13.2 3.9,-4.62 3.65,23.62l-0 56.4c0.21,28.05 -2.61,12.88 -3.65,25.44z"/>
   <path class="fil0" d="M4150.44 2612.07l23.64 0c-2.94,-8.14 0.37,0.91 -2.89,-4.38 -2.77,-4.5 -2.57,3.03 -2.57,-4.71l0 -83.63c0,-10.05 4.09,1.62 5.46,-10.91l-23.64 0c1.44,13.2 3.91,-4.62 3.65,23.62l-0.04 69.09c-1.02,9.37 -1.41,2.69 -3.62,10.93z"/>
   <path class="fil0" d="M3046.81 2346.62c3.59,9.93 5.45,1.39 5.45,9.09l0 83.64c0,7.72 0.24,0.21 -2.57,4.7 -3.81,6.12 0.1,-3.86 -2.89,4.39l23.64 0c-2.06,-7.72 -3.64,-3.18 -3.64,-9.09l0 -83.64c0,-7.11 2.74,-0.2 3.64,-10.91 -6,0 -21.17,-0.97 -23.64,1.82z"/>
   <path class="fil0" d="M3146.81 2612.07l23.64 0 -3.47 -5.62c-0.19,-0.35 -0.51,-0.76 -0.69,-1.13 -2.88,-6.24 -1.2,-62.38 -1.33,-73.28 -0.05,-4.41 -0.71,-9.8 0.61,-13.94 3.56,-11.16 3.45,3.36 4.88,-9.67l-23.64 0c1.44,13.2 3.9,-4.62 3.65,23.62l-0.04 69.09c-1.02,9.37 -1.41,2.69 -3.61,10.93z"/>
  </g>
 </g>
</svg>
