<?xml version="1.0" encoding="utf-8"?>
<!-- Generator: Adobe Illustrator 26.0.1, SVG Export Plug-In . SVG Version: 6.00 Build 0)  -->
<svg version="1.1" id="Layer_1" xmlns="http://www.w3.org/2000/svg" xmlns:xlink="http://www.w3.org/1999/xlink" x="0px" y="0px"
	 viewBox="0 0 1920 1920" style="enable-background:new 0 0 1920 1920;" xml:space="preserve">
<style type="text/css">
	.st0{fill:none;}
	.st1{fill:url(#SVGID_1_);}
	.st2{fill:#858585;}
	.st3{fill:#FEFEFE;}
	.st4{fill:#868686;}
	.st5{fill:#848484;}
	.st6{clip-path:url(#SVGID_00000079444990960515169930000014687531096426978982_);}
	.st7{fill:url(#SVGID_00000179607960632472215870000008389702279388222136_);}
	.st8{clip-path:url(#SVGID_00000083790507463927011870000003607946752144253626_);}
	.st9{fill:url(#SVGID_00000137830157148724165740000016076284859240946617_);}
	.st10{clip-path:url(#SVGID_00000039129061558037096900000000658774224470942630_);}
	.st11{fill:url(#SVGID_00000059283423590757578880000002329682149414309554_);}
</style>
<g>
	<path class="st0" d="M410.4,1146.4L410.4,1146.4l-0.1,0.1L410.4,1146.4z"/>
	<path class="st0" d="M834.7,637.7c-0.4,0.1-0.7,0.2-1.1,0.3l0,0C833.9,637.8,834.3,637.8,834.7,637.7z"/>
	<path class="st0" d="M272.1,637.3l-0.2,0.2C271.9,637.4,272,637.4,272.1,637.3L272.1,637.3z"/>
	<path class="st0" d="M829.1,640.1l-0.2,0.1L829.1,640.1L829.1,640.1z"/>
	<path class="st0" d="M842.8,636.4L842.8,636.4c-1.5,0-3,0.1-4.4,0.4l0,0C839.9,636.5,841.3,636.4,842.8,636.4z"/>
	<path class="st0" d="M1310,637.3c-1,0.6-1.9,1.4-2.8,2.1l0,0C1308.1,638.7,1309,637.9,1310,637.3z"/>
	<path class="st0" d="M1314,635.2c-0.6,0.2-1.1,0.4-1.7,0.7C1312.9,635.7,1313.4,635.5,1314,635.2z"/>
	<path class="st0" d="M242.9,617.7c-1,1.1-1.9,2.2-2.8,3.3c1-1.3,2.1-2.6,3.3-3.9C243.3,617.3,243.1,617.5,242.9,617.7z"/>
	<path class="st0" d="M356.7,1106.8l0.8,0.8l0,0L356.7,1106.8z"/>
	<path class="st0" d="M275.9,635.4c-0.3,0.1-0.6,0.3-0.9,0.4C275.3,635.7,275.6,635.5,275.9,635.4L275.9,635.4z"/>
	<path class="st0" d="M353.9,1103.5L353.9,1103.5c0.2,0.3,0.5,0.6,0.8,1l0,0C354.4,1104.2,354.2,1103.9,353.9,1103.5z"/>
	<path class="st0" d="M349,1095.4c0.2,0.4,0.3,0.7,0.5,1.1l0,0C349.3,1096.1,349.2,1095.7,349,1095.4L349,1095.4z"/>
	<path class="st0" d="M351.6,1100.2L351.6,1100.2L351.6,1100.2z"/>
	<path class="st0" d="M347.4,1091.2c0.1,0.4,0.3,0.8,0.4,1.2l0,0C347.7,1092,347.5,1091.6,347.4,1091.2L347.4,1091.2z"/>
	<path class="st0" d="M1324,633.4c-1.5,0-3,0.1-4.4,0.4l0,0C1321,633.5,1322.5,633.4,1324,633.4z"/>
	<path d="M1550,634.1c9.3,0.7,18.6,1.9,27.8,3.6C1568.6,636,1559.3,634.8,1550,634.1z"/>
	<path d="M1824.5,902.1c-0.8-6.1-1.8-12.3-3-18.6c-1.8-8.9-4.1-17.7-6.6-26.3c2.6,8.7,4.8,17.4,6.6,26.3
		C1822.7,889.8,1823.7,896,1824.5,902.1z"/>
	<path d="M1693.1,688.7c-10.9-7.8-22.3-15-34.1-21.5c-9.1-5-18.4-9.5-28-13.5c9.6,4,18.9,8.5,28,13.5
		C1670.8,673.7,1682.2,680.9,1693.1,688.7z"/>
	<path d="M1298.8,657.2L1298.8,657.2c0,0.4,0,0.8-0.1,1.3l0,0C1298.8,658.1,1298.8,657.6,1298.8,657.2z"/>
	<path d="M1303.1,644.1L1303.1,644.1c-0.2,0.3-0.4,0.5-0.5,0.8l0,0C1302.7,644.6,1302.9,644.4,1303.1,644.1z"/>
	<path d="M1319.5,633.8l-0.4,0.1L1319.5,633.8z"/>
	<path d="M1314.5,635.1l-0.4,0.2l0,0L1314.5,635.1z"/>
	<path d="M1843.2,1024.5c-13,36.2-33.8,66.4-61.8,89.9c0.9-0.8,1.8-1.6,2.8-2.3l-164.7,148.9c-6.6,6.2-13.6,11.8-21.1,16.8
		c-36.2,25-79.1,37.8-127.6,37.8h-208.2c-29.2,0-57.7-21.4-69.5-49.7l-43.7,39.6c-8.6,7.8-20.1,12.3-33.5,12.3H781.1
		c-32.7,0-64.7-27-72.9-60.8l-35.4,32c-3.4,3-7.1,5.5-11.2,7.5c-1.3,0.7-2.7,1.3-4.1,1.7c-2.9,1.1-5.9,2-9,2.6
		c-3.1,0.5-6.3,0.7-9.5,0.7c-13.3,0-26.7-4.4-39.2-12.9l-195.5-133.2l-148.3,134.2c-3.3,3-7,5.4-11,7.4c-7,3.3-14.6,4.9-22.4,4.8
		c-33.5,0-66.7-28.3-73.6-63.4L64,817.3c-3.4-17-0.3-32.8,8.8-45c1.8-2.3,3.7-4.5,5.9-6.4L244.6,616c8.9-8.8,21.1-13.7,34.9-13.7
		h161.9l6.1,31.3l2,9.6l12.7-11.6c7.8-7.1,18.3-11,30.1-11c7,0.1,14,1.4,20.5,4l24.6-22.2h158.6c28.9,0,57.3,21.1,69.1,49.4
		l37.2-33.5c8.5-8.1,20.4-13,34.1-13h334.5c28.9,0,57.2,21.1,69.1,49.1l43.6-39.3c8.6-7.9,20.4-12.7,34-12.7H1526
		c48.5,0,96.5,12.9,142.8,38.2c46,25.2,85.8,59.7,118.3,102.3c32.6,42.9,54.1,90.4,64.1,141S1858.7,981.6,1843.2,1024.5z"/>
	
		<linearGradient id="SVGID_1_" gradientUnits="userSpaceOnUse" x1="34.5451" y1="960" x2="1885.4155" y2="960" gradientTransform="matrix(1 0 0 -1 0 1920)">
		<stop  offset="1.000000e-02" style="stop-color:#FF6EFF"/>
		<stop  offset="1" style="stop-color:#0AB7F6"/>
	</linearGradient>
	<path class="st1" d="M1526,602.2c48.5,0,96.5,12.9,142.8,38.2c46,25.2,85.8,59.7,118.3,102.3c32.6,42.9,54.1,90.4,64.1,141
		s7.5,97.9-8.1,140.8c-12.8,35.5-33,65.1-60.1,88.4c-0.6,0.4-1.2,0.9-1.7,1.5l1.7-1.5c0.4-0.3,0.7-0.5,1.1-0.8l-164.7,148.9
		c-6.6,6.2-13.6,11.8-21.1,16.8c-36.2,25-79.1,37.8-127.6,37.8h-208.1c-29.2,0-57.7-21.4-69.5-49.7l-43.7,39.6
		c-8.6,7.8-20.1,12.3-33.5,12.3H781.1c-32.7,0-64.7-27-72.9-60.8l-35.4,32c-3.3,3-7.1,5.6-11.2,7.5c-1.3,0.7-2.7,1.3-4.1,1.7
		c-2.9,1.1-5.9,2-9,2.6c-3.1,0.5-6.3,0.7-9.5,0.7c-13.3,0-26.7-4.4-39.2-12.9l-195.5-133.2l-148.3,134.2c-3.3,3-7,5.4-11,7.4
		c-7,3.3-14.6,4.9-22.4,4.8c-33.5,0-66.7-28.3-73.6-63.4L64,817.3c-3.4-17-0.3-32.8,8.8-45c1.8-2.3,3.7-4.5,5.9-6.4L244.6,616
		c8.9-8.8,21.1-13.7,34.9-13.7h161.9l6.1,31.3l2,9.6l12.7-11.6c7.8-7.1,18.3-11,30.1-11c7,0.1,14,1.4,20.5,4l24.6-22.2h158.6
		c28.9,0,57.3,21.1,69.1,49.4l37.2-33.5c8.5-8.1,20.4-13,34.1-13h334.5c28.9,0,57.2,21.1,69.1,49.1l43.6-39.3
		c8.6-7.9,20.4-12.7,34-12.7L1526,602.2 M1526,574.1h-208.3c-20,0-38.8,7.2-53,20.2l-19.2,17.3c-19.6-21.3-46.9-34.5-74.4-34.5
		H836.6c-20.2,0-39.1,7.3-53.2,20.5l-12.7,11.4c-19.6-21.4-46.9-34.7-74.5-34.7H526.7l-8,7.2l-13.4,12.1c-4.3-0.7-8.6-1.1-12.9-1.1
		c-8,0-15.9,1.2-23.5,3.7l-4.3-21.9H279.6c-20.7,0-40,7.6-54.2,21.3L59.9,745c-3.5,3.1-6.8,6.6-9.6,10.4
		c-13.9,18.7-18.8,42.6-13.9,67.4l85.1,421.1c9.5,48.2,54,86,101.2,86c11.9,0.1,23.7-2.5,34.5-7.6c6.3-3,12.2-6.9,17.4-11.6
		l132.2-119.6L584,1311.8c17,11.6,36.1,17.8,55,17.8c4.5,0,9-0.3,13.5-1l0.5-0.1l0.5-0.1c4.6-0.8,9-2,13.4-3.7
		c2.6-0.9,5.2-1.9,7.6-3.2c6.3-3.1,12.1-7,17.3-11.8l7.6-6.9c19.5,26.1,49.9,43.1,81.7,43.1h334.7c20.1,0,38.2-6.8,52.4-19.6
		l19.4-17.6c19.7,21.5,47.2,34.9,74.9,34.9h208.2c54.3,0,102.6-14.4,143.7-42.8c8.6-5.8,16.7-12.3,24.3-19.4l164.3-148.6l-0.1-0.1
		c30.1-26.3,52.6-59.6,66.7-98.9c17.3-47.7,20.4-100.2,9.2-155.9c-10.9-55-34.2-106.2-69.3-152.4s-78-83-127.2-110
		C1631.8,588,1579.2,574,1526,574.1L1526,574.1z"/>
	<path d="M1301.1,647.7L1301.1,647.7c0,0,0,0.1,0,0.1l0,0C1301.1,647.8,1301,647.7,1301.1,647.7z"/>
	<path d="M1299.7,651.6L1299.7,651.6l0.2-0.7C1299.8,651.2,1299.8,651.4,1299.7,651.6z"/>
	<path d="M1299.2,653.8c-0.1,0.4-0.1,0.8-0.2,1.2l0,0C1299.1,654.6,1299.1,654.2,1299.2,653.8z"/>
	<path d="M1305,641.5L1305,641.5c-0.2,0.3-0.5,0.6-0.7,0.8l0,0C1304.5,642.1,1304.8,641.8,1305,641.5z"/>
	<path d="M1307.1,639.4c-0.2,0.2-0.5,0.5-0.7,0.7l0,0C1306.6,639.9,1306.9,639.7,1307.1,639.4L1307.1,639.4z"/>
	<path class="st2" d="M1298.7,658.5c0,0.2,0,0.5,0,0.7C1298.7,659,1298.7,658.7,1298.7,658.5z"/>
	<path class="st2" d="M1303.9,642.9c-0.3,0.4-0.6,0.8-0.8,1.3l0,0C1303.3,643.7,1303.6,643.3,1303.9,642.9z"/>
	<path class="st2" d="M1304.3,642.4c-0.1,0.2-0.3,0.3-0.4,0.5C1304,642.7,1304.2,642.6,1304.3,642.4z"/>
	<path class="st2" d="M1305.6,640.9c-0.2,0.2-0.4,0.4-0.6,0.6l0,0C1305.2,641.3,1305.4,641.2,1305.6,640.9z"/>
	<path class="st2" d="M1302.5,644.9c-0.2,0.3-0.4,0.7-0.6,1C1302.2,645.6,1302.3,645.2,1302.5,644.9z"/>
	<path class="st2" d="M1301,647.8c-0.4,0.8-0.7,1.7-1,2.5C1300.3,649.5,1300.6,648.6,1301,647.8L1301,647.8z"/>
	<path class="st3" d="M1821.4,883.6c-1.8-8.9-4.1-17.7-6.6-26.3c-10.7-35.7-27.8-69.2-50.4-98.8c-13.9-18.3-29.6-35.2-46.9-50.4
		c-4.5-3.9-9.1-7.7-13.7-11.4c-3.5-2.7-7.1-5.4-10.7-8c-10.9-7.9-22.3-15-34.1-21.5c-9.1-5-18.4-9.5-28-13.5
		c-3.1-1.3-6.3-2.6-9.4-3.7c-6.3-2.4-12.6-4.5-18.9-6.3c-6.3-1.8-12.7-3.4-19.1-4.8c-1.9-0.4-3.8-0.8-5.6-1.1
		c-9.2-1.7-18.5-2.9-27.8-3.6c-5.9-0.4-11.8-0.7-17.8-0.7H1324c-1.5,0-3,0.1-4.4,0.4l-0.4,0.1l-0.4,0.1c-0.2,0-0.5,0.1-0.8,0.1
		c-1.1,0.2-2.1,0.6-3.2,0.9l-0.2,0.1l-0.4,0.2c-0.6,0.2-1.1,0.4-1.7,0.7c-0.8,0.4-1.7,0.9-2.4,1.4c-1,0.6-1.9,1.4-2.8,2.1
		c-0.3,0.2-0.5,0.5-0.8,0.7l0,0c-0.3,0.3-0.5,0.5-0.8,0.8s-0.4,0.4-0.6,0.6s-0.5,0.6-0.7,0.8s-0.3,0.3-0.4,0.5
		c-0.3,0.4-0.6,0.8-0.8,1.3s-0.4,0.5-0.5,0.8s-0.4,0.7-0.6,1c-0.3,0.6-0.6,1.1-0.9,1.7l0,0c0,0,0,0.1,0,0.1c-0.4,0.8-0.7,1.7-1,2.5
		c0,0.1-0.1,0.2-0.1,0.3c0,0.1-0.1,0.2-0.1,0.4l-0.2,0.7l0,0c-0.2,0.7-0.4,1.4-0.5,2.2l0,0c-0.1,0.4-0.1,0.8-0.2,1.2l0,0
		c-0.1,0.7-0.2,1.4-0.2,2.2l0,0c0,0.4,0,0.8-0.1,1.3c0,0.2,0,0.5,0,0.7c0,2.2,0.2,4.4,0.7,6.5l86.7,435.1c0.2,1.1,0.5,2.2,0.8,3.3
		c0.1,0.4,0.3,0.7,0.4,1.1c1.1,3.2,2.5,6.3,4.4,9.1c0.9,1.4,1.8,2.7,2.9,4c0.9,1.1,1.8,2.1,2.7,3.1c7.1,7.2,16.7,11.8,26.3,11.8
		h208.3c5.4,0,10.7-0.2,16-0.5c36.7-2.4,69.1-13.4,97.3-33c32.3-22.3,55.3-52.6,69.1-90.8c11.9-33,15.3-68.5,10.2-106.6
		C1823.7,896,1822.7,889.8,1821.4,883.6z"/>
	<path d="M1225.5,896.7c39,0,41.2,32.2,49.1,71.9l26.8,134.4c0.4,2.1,0.7,4.3,0.7,6.5c0-2.2-0.2-4.4-0.7-6.5l-26.8-134.4
		c-7.9-39.7-10.1-71.9-48.2-71.9c-6.3,0-11.7-4.3-13.3-10.4C1214.4,892.1,1219.9,896.7,1225.5,896.7z"/>
	<path d="M817.7,660.2c0,0.4,0,0.8-0.1,1.3C817.6,661.1,817.6,660.6,817.7,660.2z"/>
	<path d="M823.9,644.5c-0.2,0.3-0.5,0.6-0.7,0.8l0,0C823.4,645.1,823.7,644.8,823.9,644.5z"/>
	<path d="M838.4,636.8c-0.3,0-0.6,0.1-0.9,0.2l0,0C837.8,636.8,838.1,636.8,838.4,636.8L838.4,636.8z"/>
	<path d="M818.1,656.8c0,0.2-0.1,0.5-0.1,0.7C818,657.3,818.1,657,818.1,656.8z"/>
	<path d="M842.8,636.4h334.5c5.3,0.1,10.6,1.3,15.3,3.8c-4.7-2.4-10-3.7-15.3-3.8H842.8z"/>
	<path d="M833.6,638l-0.6,0.3L833.6,638z"/>
	<path d="M826,642.4c-0.3,0.2-0.5,0.5-0.8,0.7l0,0C825.5,642.9,825.8,642.6,826,642.4z"/>
	<path d="M818.9,653.6c-0.1,0.2-0.1,0.5-0.2,0.7C818.7,654.1,818.8,653.8,818.9,653.6z"/>
	<path d="M829.7,639.8L829.7,639.8c-0.2,0.1-0.4,0.2-0.5,0.3l0,0C829.3,640,829.5,639.9,829.7,639.8z"/>
	<path d="M820,650.6C820,650.7,820,650.7,820,650.6L820,650.6L820,650.6z"/>
	<path d="M822,647.1c-0.2,0.3-0.4,0.5-0.5,0.8l0,0C821.6,647.6,821.8,647.4,822,647.1L822,647.1z"/>
	<path class="st2" d="M817.8,659c0,0.4-0.1,0.8-0.1,1.2l0,0C817.7,659.8,817.8,659.4,817.8,659z"/>
	<path class="st2" d="M822.9,645.8c-0.3,0.4-0.6,0.8-0.9,1.3l0,0C822.2,646.7,822.6,646.2,822.9,645.8z"/>
	<path class="st2" d="M821,648.6c-0.4,0.7-0.8,1.3-1.1,2l0,0C820.3,649.9,820.6,649.3,821,648.6z"/>
	<path class="st2" d="M819.4,652.2c-0.2,0.5-0.4,0.9-0.5,1.4l0,0C819,653.1,819.2,652.7,819.4,652.2z"/>
	<path class="st2" d="M818.5,655.2c-0.1,0.5-0.3,1.1-0.4,1.6l0,0C818.2,656.2,818.3,655.7,818.5,655.2z"/>
	<rect x="946.6" y="804.4" class="st4" width="0" height="21.8"/>
	<path class="st5" d="M869.1,828.5c-0.5,0.3-1,0.6-1.6,0.9l0,0C868,829.1,868.5,828.8,869.1,828.5z"/>
	<polygon class="st5" points="944.5,804.6 944.5,804.6 944.5,804.6 	"/>
	<path d="M867.5,829.4c-0.2,0.1-0.4,0.2-0.6,0.3l0,0C867.1,829.6,867.3,829.5,867.5,829.4z"/>
	<path d="M859.8,836.7L859.8,836.7c-0.2,0.3-0.4,0.5-0.5,0.8l0,0C859.4,837.2,859.6,837,859.8,836.7z"/>
	<rect x="974.7" y="945.5" class="st4" width="0" height="21.8"/>
	<path class="st2" d="M859.2,837.5c-0.5,0.9-1,1.8-1.5,2.7C858.2,839.3,858.7,838.4,859.2,837.5L859.2,837.5z"/>
	<path class="st2" d="M860.6,835.5c-0.3,0.4-0.5,0.8-0.8,1.2l0,0C860,836.3,860.3,835.8,860.6,835.5z"/>
	<path class="st5" d="M892.5,972.7c-0.2,0.2-0.4,0.3-0.6,0.5l0,0C892.2,973,892.3,972.8,892.5,972.7z"/>
	<path class="st5" d="M898.8,969L898.8,969c-1.1,0.4-2.2,1-3.2,1.6l0,0C896.6,970,897.7,969.4,898.8,969z"/>
	<path class="st5" d="M906.5,967.3c-0.7,0.1-1.5,0.1-2.2,0.2l0,0C905,967.4,905.8,967.4,906.5,967.3z"/>
	<path class="st5" d="M903.4,967.7c-1.2,0.2-2.4,0.5-3.6,0.9C901,968.2,902.2,967.9,903.4,967.7z"/>
	<polygon class="st5" points="972.6,945.7 972.6,945.7 972.6,945.7 	"/>
	<path d="M889.8,975.3L889.8,975.3c-0.2,0.3-0.5,0.6-0.7,0.8l0,0C889.3,975.9,889.6,975.6,889.8,975.3z"/>
	<path d="M904.3,967.5L904.3,967.5l-0.9,0.2l0,0L904.3,967.5z"/>
	<path d="M895.6,970.6c-0.2,0.1-0.4,0.2-0.5,0.3C895.2,970.8,895.4,970.7,895.6,970.6z"/>
	<path d="M892,973.2c-0.3,0.2-0.5,0.5-0.8,0.7l0,0C891.5,973.6,891.7,973.4,892,973.2z"/>
	<path d="M898.9,969L898.9,969L898.9,969L898.9,969z"/>
	<path class="st2" d="M889.1,976.2c-0.1,0.2-0.3,0.3-0.4,0.5C888.8,976.5,889,976.3,889.1,976.2z"/>
	<path class="st2" d="M890.6,974.5c-0.2,0.3-0.5,0.5-0.8,0.8l0,0C890.1,975,890.3,974.8,890.6,974.5z"/>
	<polygon class="st4" points="888.3,1020.1 904.8,1103 904.8,1103 904.8,1103 	"/>
	<path class="st2" d="M904.8,1103c0.4,1.8,0.9,3.6,1.5,5.4C905.7,1106.6,905.2,1104.8,904.8,1103z"/>
	<path class="st3" d="M838.9,772.2c2.5,12.3,11.1,23,21.9,28.5c4.8,2.5,10.1,3.8,15.5,3.9h68.1l4.3,21.4h-68.1
		c-4,0-7.9,0.8-11.5,2.5c-0.5,0.3-1,0.6-1.6,0.9c-0.2,0.1-0.4,0.2-0.6,0.3c-0.9,0.5-1.7,1.1-2.5,1.8c-1.4,1.2-2.7,2.5-3.8,4
		c-0.3,0.4-0.5,0.8-0.8,1.2s-0.4,0.5-0.6,0.8c-0.5,0.9-1,1.8-1.5,2.7c-1.2,2.7-1.9,5.5-2.2,8.5c0,0.4,0,0.7,0,1.1s0,0.8-0.1,1.3
		c0,0.2,0,0.5,0,0.7c0,1.1,0.1,2.1,0.2,3.2c0.1,1.1,0.3,2.2,0.5,3.3l11,55.1c0.9,4.4,2.5,8.7,4.9,12.5c3.5,5.8,8.3,10.6,14.1,14.2
		c5.5,3.5,11.9,5.4,18.4,5.5h68.1l4.3,21.4h-68.1c-0.8,0-1.5,0.1-2.2,0.2s-1.5,0.1-2.2,0.2l-0.9,0.2c-1.2,0.2-2.4,0.5-3.6,0.9
		c-0.1,0-0.2,0.1-0.3,0.2s-0.3,0.1-0.5,0.2h-0.1c-1.1,0.4-2.2,1-3.2,1.6c-0.2,0.1-0.4,0.2-0.5,0.3c-0.1,0-0.2,0.1-0.3,0.2
		c-0.8,0.5-1.5,1-2.2,1.6c-0.2,0.2-0.4,0.3-0.6,0.5s-0.5,0.5-0.8,0.7s-0.4,0.4-0.6,0.6s-0.5,0.5-0.7,0.8s-0.5,0.6-0.7,0.8
		s-0.3,0.3-0.4,0.5c-3.9,5.1-5.8,11.9-5,19.5c0.1,1.1,0.3,2.2,0.5,3.3l4.1,20.6l16.5,82.9c0.4,1.8,0.9,3.6,1.5,5.4
		c5.5,15.3,20.6,27,35.9,27h334.6c15,0,25.3-11.1,25.2-25.8c0-2.2-0.2-4.4-0.7-6.5l-26.8-134.4c-7.9-39.7-10.1-71.9-49.1-71.9
		c-5.6,0-11-4.6-12.4-10.4c0-0.1-0.1-0.3-0.1-0.4c-1.2-6,2.5-10.8,8.2-10.8c37.8,0,29-30.2,21.2-68.2c-0.2-1.2-0.5-2.5-0.8-3.7
		l-26.8-134.4c-1.6-7.8-5.5-15-11.2-20.6c-0.9-0.9-1.8-1.8-2.8-2.6c-2.5-2.1-5.2-3.9-8.2-5.4c-4.7-2.4-10-3.7-15.3-3.8H842.8
		c-1.5,0-3,0.1-4.4,0.4c-0.3,0-0.6,0.1-0.9,0.2c-1,0.2-1.9,0.5-2.8,0.8c-0.4,0.1-0.7,0.2-1.1,0.3l-0.6,0.3l0,0
		c-1.1,0.4-2.2,1-3.2,1.6c-0.2,0.1-0.4,0.2-0.6,0.3l-0.2,0.1c-1,0.6-2,1.4-2.9,2.2c-0.3,0.2-0.5,0.5-0.8,0.7
		c-0.5,0.5-0.9,0.9-1.4,1.4c-0.2,0.3-0.5,0.6-0.7,0.8s-0.2,0.3-0.3,0.5c-0.3,0.4-0.6,0.8-0.9,1.2c-0.2,0.3-0.4,0.5-0.5,0.8
		s-0.2,0.5-0.4,0.7c-0.4,0.6-0.7,1.3-1.1,2v0c-0.2,0.5-0.4,1-0.6,1.5s-0.4,0.9-0.5,1.4c-0.1,0.2-0.1,0.5-0.2,0.7s0,0.2-0.1,0.3l0,0
		c0,0.2-0.1,0.4-0.1,0.5c-0.1,0.5-0.3,1.1-0.4,1.6c0,0.2-0.1,0.5-0.1,0.7s-0.1,0.4-0.1,0.5s-0.1,0.6-0.1,1s-0.1,0.8-0.1,1.2
		s0,0.8-0.1,1.3c0,0.2,0,0.5,0,0.7c0,2.2,0.2,4.4,0.7,6.5L838.9,772.2z"/>
	<polygon points="573.6,633.6 573.6,633.6 573.6,633.6 	"/>
	<path d="M484.6,657.2L484.6,657.2c0.8-0.8,1.8-1.5,2.7-2.2C486.3,655.7,485.4,656.4,484.6,657.2z"/>
	<path d="M510.9,654.8c-3.8-2-8-3-12.3-3.1c-2.6,0-5.2,0.4-7.6,1.4c2.4-0.9,5-1.4,7.6-1.4C502.9,651.8,507.1,652.9,510.9,654.8z"/>
	<path d="M483,658.9L483,658.9c-0.2,0.3-0.4,0.5-0.6,0.8l0,0C482.6,659.4,482.8,659.2,483,658.9z"/>
	<path class="st2" d="M482.4,659.7L482.4,659.7c-0.7,0.9-1.3,1.9-1.8,2.9l0,0C481.1,661.6,481.7,660.6,482.4,659.7z"/>
	<path class="st2" d="M483.3,658.5c-0.1,0.1-0.2,0.2-0.3,0.3l0,0C483.1,658.8,483.2,658.7,483.3,658.5z"/>
	<path d="M264.9,644.3c-0.2,0.3-0.4,0.5-0.5,0.8l0,0C264.5,644.8,264.7,644.6,264.9,644.3z"/>
	<path d="M260.9,655.3L260.9,655.3c0.1-0.4,0.1-0.8,0.2-1.1C261,654.5,260.9,654.9,260.9,655.3z"/>
	<path d="M261.8,650.8c-0.1,0.3-0.2,0.7-0.3,1l0,0C261.6,651.5,261.7,651.2,261.8,650.8L261.8,650.8z"/>
	<path d="M272.6,637L272.6,637c-0.2,0.1-0.4,0.2-0.6,0.3l0,0C272.2,637.2,272.4,637.1,272.6,637z"/>
	<path d="M269,639.6l-0.8,0.7l0,0C268.5,640.1,268.7,639.8,269,639.6L269,639.6z"/>
	<path d="M276.5,635.2L276.5,635.2l-0.6,0.3l0,0L276.5,635.2z"/>
	<path d="M266.9,641.7L266.9,641.7c-0.2,0.3-0.5,0.6-0.7,0.9l0,0C266.4,642.3,266.6,642,266.9,641.7z"/>
	<path class="st2" d="M266.1,642.6c-0.2,0.3-0.4,0.6-0.6,0.8C265.7,643.2,265.9,642.9,266.1,642.6z"/>
	<path class="st2" d="M264.4,645.1c0,0.1-0.1,0.2-0.2,0.3C264.2,645.3,264.3,645.2,264.4,645.1z"/>
	<path class="st2" d="M262.9,647.9c-0.4,1-0.8,2-1.1,3l0,0C262.1,649.8,262.5,648.8,262.9,647.9z"/>
	<polygon class="st4" points="278.4,751 346.2,1087 346.2,1087 346.2,1087 	"/>
	<path class="st2" d="M351.6,1100.3L351.6,1100.3c0.7,1.1,1.5,2.2,2.3,3.3l0,0C353.1,1102.5,352.3,1101.4,351.6,1100.3z"/>
	<path class="st2" d="M346.2,1087L346.2,1087c0.3,1.4,0.7,2.8,1.1,4.2l0,0C346.9,1089.8,346.5,1088.4,346.2,1087z"/>
	<path class="st2" d="M348.8,1095c0,0.1,0.1,0.2,0.1,0.4l0,0C348.9,1095.2,348.9,1095.1,348.8,1095z"/>
	<path class="st2" d="M354.7,1104.5c0.6,0.7,1.2,1.4,1.8,2.1C355.9,1105.9,355.3,1105.2,354.7,1104.5z"/>
	<path class="st2" d="M357.5,1107.6c0.1,0.2,0.3,0.3,0.4,0.5C357.8,1107.9,357.6,1107.8,357.5,1107.6z"/>
	<path class="st3" d="M278.4,751l67.9,336c0.3,1.4,0.7,2.8,1.1,4.2c0.1,0.4,0.3,0.8,0.4,1.2c0.3,0.9,0.7,1.7,1,2.6
		c0,0.1,0.1,0.2,0.1,0.4c0.2,0.4,0.3,0.8,0.5,1.1c0.6,1.3,1.3,2.5,2,3.7c0,0,0,0.1,0,0.1v0.1c0.7,1.1,1.5,2.2,2.3,3.3
		c0.2,0.3,0.5,0.6,0.8,1c0.6,0.7,1.2,1.4,1.8,2.1l0.2,0.2l0,0l0.8,0.8c0.1,0.2,0.3,0.3,0.4,0.5c7.3,7,16.8,11.2,25.9,11.2
		c6.4,0.1,12.6-2.3,17.3-6.6l144.1-135c1.2-1.1,2.5-2,3.9-2.9c2.7-1.6,5.7-2.7,8.8-3.3c1.6-0.3,3.2-0.4,4.8-0.4
		c1.5,0,3.1,0.1,4.6,0.4c3.7,0.6,7.2,1.7,10.5,3.3c1.7,0.8,3.3,1.8,4.9,2.9l197.5,134.8c1.2,0.8,2.3,1.5,3.6,2.1
		c0.5,0.3,1,0.6,1.5,0.9c4.6,2.3,9.7,3.6,14.8,3.6c16.1,0,28.5-13.3,24.7-32.5l-85-420.8c-2.2-10-8-18.9-16.3-24.9
		c-0.9-0.7-1.8-1.3-2.8-1.8c-5.5-3.5-11.9-5.4-18.4-5.5H573.6l16.5,82.9h-20.4l-49.1-54.2c-2.7-3-6-5.6-9.7-7.4c-3.8-2-8-3-12.3-3.1
		c-2.6,0-5.2,0.4-7.6,1.4c-0.2,0.1-0.3,0.2-0.5,0.2c-1,0.4-2,0.9-2.9,1.5c-0.1,0-0.2,0.1-0.3,0.2c-1,0.6-1.9,1.3-2.7,2.2
		c-0.4,0.4-0.9,0.9-1.2,1.4c-0.1,0.1-0.2,0.2-0.3,0.3s-0.4,0.5-0.6,0.8c-0.7,0.9-1.3,1.9-1.8,2.9l-26,53.9h-20.5l-16.5-82.9H285.8
		c-1.5,0-3,0.1-4.4,0.4l-0.9,0.2c-1.3,0.3-2.7,0.6-4,1.1l-0.6,0.3c-0.3,0.1-0.6,0.3-0.9,0.4c-0.8,0.3-1.6,0.7-2.4,1.1
		c-0.2,0.1-0.4,0.2-0.6,0.3s-0.1,0.1-0.2,0.2c-1,0.6-2,1.3-2.9,2.1c-0.3,0.2-0.5,0.5-0.8,0.7c-0.5,0.5-0.9,0.9-1.4,1.4
		c-0.2,0.3-0.5,0.6-0.7,0.9s-0.4,0.6-0.6,0.8s-0.4,0.6-0.6,0.8l0,0c-0.2,0.3-0.4,0.5-0.5,0.8c0,0.1-0.1,0.2-0.2,0.3
		c-0.5,0.8-0.9,1.6-1.3,2.5l0,0c-0.4,1-0.8,2-1.1,3c-0.1,0.3-0.2,0.7-0.3,1c-0.2,0.7-0.4,1.4-0.5,2.2l0,0c0,0,0,0.1,0,0.1
		c-0.1,0.4-0.1,0.8-0.2,1.1c-0.1,0.7-0.2,1.5-0.2,2.2c0,0.4,0,0.8-0.1,1.3c0,0.2,0,0.5,0,0.7c0,2.2,0.2,4.4,0.7,6.5L278.4,751z"/>
	<g>
		<defs>
			<path id="SVGID_00000044146393632884625870000013376590405140628411_" d="M278.4,751l67.9,336c0.3,1.4,0.7,2.8,1.1,4.2
				c0.1,0.4,0.3,0.8,0.4,1.2c0.3,0.9,0.7,1.7,1,2.6c0,0.1,0.1,0.2,0.1,0.4c0.2,0.4,0.3,0.8,0.5,1.1c0.6,1.3,1.3,2.5,2,3.7
				c0,0,0,0.1,0,0.1v0.1c0.7,1.1,1.5,2.2,2.3,3.3c0.2,0.3,0.5,0.6,0.8,1c0.6,0.7,1.2,1.4,1.8,2.1l0.2,0.2l0,0l0.8,0.8
				c0.1,0.2,0.3,0.3,0.4,0.5c7.3,7,16.8,11.2,25.9,11.2c6.4,0.1,12.6-2.3,17.3-6.6l144.1-135c1.2-1.1,2.5-2,3.9-2.9
				c2.7-1.6,5.7-2.7,8.8-3.3c1.6-0.3,3.2-0.4,4.8-0.4c1.5,0,3.1,0.1,4.6,0.4c3.7,0.6,7.2,1.7,10.5,3.3c1.7,0.8,3.3,1.8,4.9,2.9
				l197.5,134.8c1.2,0.8,2.3,1.5,3.6,2.1c0.5,0.3,1,0.6,1.5,0.9c4.6,2.3,9.7,3.6,14.8,3.6c16.1,0,28.5-13.3,24.7-32.5l-85-420.8
				c-2.2-10-8-18.9-16.3-24.9c-0.9-0.7-1.8-1.3-2.8-1.8c-5.5-3.5-11.9-5.4-18.4-5.5H573.6l16.5,82.9h-20.4l-49.1-54.2
				c-2.7-3-6-5.6-9.7-7.4c-3.8-2-8-3-12.3-3.1c-2.6,0-5.2,0.4-7.6,1.4c-0.2,0.1-0.3,0.2-0.5,0.2c-1,0.4-2,0.9-2.9,1.5
				c-0.1,0-0.2,0.1-0.3,0.2c-1,0.6-1.9,1.3-2.7,2.2c-0.4,0.4-0.9,0.9-1.2,1.4c-0.1,0.1-0.2,0.2-0.3,0.3s-0.4,0.5-0.6,0.8
				c-0.7,0.9-1.3,1.9-1.8,2.9l-26,53.9h-20.5l-16.5-82.9H285.8c-1.5,0-3,0.1-4.4,0.4l-0.9,0.2c-1.3,0.3-2.7,0.6-4,1.1l-0.6,0.3
				c-0.3,0.1-0.6,0.3-0.9,0.4c-0.8,0.3-1.6,0.7-2.4,1.1c-0.2,0.1-0.4,0.2-0.6,0.3s-0.1,0.1-0.2,0.2c-1,0.6-2,1.3-2.9,2.1
				c-0.3,0.2-0.5,0.5-0.8,0.7c-0.5,0.5-0.9,0.9-1.4,1.4c-0.2,0.3-0.5,0.6-0.7,0.9s-0.4,0.6-0.6,0.8s-0.4,0.6-0.6,0.8l0,0
				c-0.2,0.3-0.4,0.5-0.5,0.8c0,0.1-0.1,0.2-0.2,0.3c-0.5,0.8-0.9,1.6-1.3,2.5l0,0c-0.4,1-0.8,2-1.1,3c-0.1,0.3-0.2,0.7-0.3,1
				c-0.2,0.7-0.4,1.4-0.5,2.2l0,0c0,0,0,0.1,0,0.1c-0.1,0.4-0.1,0.8-0.2,1.1c-0.1,0.7-0.2,1.5-0.2,2.2c0,0.4,0,0.8-0.1,1.3
				c0,0.2,0,0.5,0,0.7c0,2.2,0.2,4.4,0.7,6.5L278.4,751z"/>
		</defs>
		<clipPath id="SVGID_00000054981901892834920510000012756412257456367256_">
			<use xlink:href="#SVGID_00000044146393632884625870000013376590405140628411_"  style="overflow:visible;"/>
		</clipPath>
		<g style="clip-path:url(#SVGID_00000054981901892834920510000012756412257456367256_);">
			
				<linearGradient id="SVGID_00000180352555128289911810000013218575733664951742_" gradientUnits="userSpaceOnUse" x1="179.41" y1="986.66" x2="1882.1" y2="986.66" gradientTransform="matrix(1 0 0 -1 0 1920)">
				<stop  offset="1.000000e-02" style="stop-color:#FF6EFF"/>
				<stop  offset="1" style="stop-color:#0AB7F6"/>
			</linearGradient>
			
				<rect x="179.4" y="227.9" style="fill:url(#SVGID_00000180352555128289911810000013218575733664951742_);" width="1702.7" height="1410.9"/>
		</g>
	</g>
	<g>
		<defs>
			<path id="SVGID_00000072973177964388341190000014380385049264011943_" d="M838.9,772.2c2.5,12.3,11.1,23,21.9,28.5
				c4.8,2.5,10.1,3.8,15.5,3.9h68.1l4.3,21.4h-68.1c-4,0-7.9,0.8-11.5,2.5c-0.5,0.3-1,0.6-1.6,0.9c-0.2,0.1-0.4,0.2-0.6,0.3
				c-0.9,0.5-1.7,1.1-2.5,1.8c-1.4,1.2-2.7,2.5-3.8,4c-0.3,0.4-0.5,0.8-0.8,1.2s-0.4,0.5-0.6,0.8c-0.5,0.9-1,1.8-1.5,2.7
				c-1.2,2.7-1.9,5.5-2.2,8.5c0,0.4,0,0.7,0,1.1s0,0.8-0.1,1.3c0,0.2,0,0.5,0,0.7c0,1.1,0.1,2.1,0.2,3.2c0.1,1.1,0.3,2.2,0.5,3.3
				l11,55.1c0.9,4.4,2.5,8.7,4.9,12.5c3.5,5.8,8.3,10.6,14.1,14.2c5.5,3.5,11.9,5.4,18.4,5.5h68.1l4.3,21.4h-68.1
				c-0.8,0-1.5,0.1-2.2,0.2s-1.5,0.1-2.2,0.2l-0.9,0.2c-1.2,0.2-2.4,0.5-3.6,0.9c-0.1,0-0.2,0.1-0.3,0.2s-0.3,0.1-0.5,0.2h-0.1
				c-1.1,0.4-2.2,1-3.2,1.6c-0.2,0.1-0.4,0.2-0.5,0.3c-0.1,0-0.2,0.1-0.3,0.2c-0.8,0.5-1.5,1-2.2,1.6c-0.2,0.2-0.4,0.3-0.6,0.5
				s-0.5,0.5-0.8,0.7s-0.4,0.4-0.6,0.6s-0.5,0.5-0.7,0.8s-0.5,0.6-0.7,0.8s-0.3,0.3-0.4,0.5c-3.9,5.1-5.8,11.9-5,19.5
				c0.1,1.1,0.3,2.2,0.5,3.3l4.1,20.6l16.5,82.9c0.4,1.8,0.9,3.6,1.5,5.4c5.5,15.3,20.6,27,35.9,27h334.6c15,0,25.3-11.1,25.2-25.8
				c0-2.2-0.2-4.4-0.7-6.5l-26.8-134.4c-7.9-39.7-10.1-71.9-49.1-71.9c-5.6,0-11-4.6-12.4-10.4c0-0.1-0.1-0.3-0.1-0.4
				c-1.2-6,2.5-10.8,8.2-10.8c37.8,0,29-30.2,21.2-68.2c-0.2-1.2-0.5-2.5-0.8-3.7l-26.8-134.4c-1.6-7.8-5.5-15-11.2-20.6
				c-0.9-0.9-1.8-1.8-2.8-2.6c-2.5-2.1-5.2-3.9-8.2-5.4c-4.7-2.4-10-3.7-15.3-3.8H842.8c-1.5,0-3,0.1-4.4,0.4
				c-0.3,0-0.6,0.1-0.9,0.2c-1,0.2-1.9,0.5-2.8,0.8c-0.4,0.1-0.7,0.2-1.1,0.3l-0.6,0.3l0,0c-1.1,0.4-2.2,1-3.2,1.6
				c-0.2,0.1-0.4,0.2-0.6,0.3l-0.2,0.1c-1,0.6-2,1.4-2.9,2.2c-0.3,0.2-0.5,0.5-0.8,0.7c-0.5,0.5-0.9,0.9-1.4,1.4
				c-0.2,0.3-0.5,0.6-0.7,0.8s-0.2,0.3-0.3,0.5c-0.3,0.4-0.6,0.8-0.9,1.2c-0.2,0.3-0.4,0.5-0.5,0.8s-0.2,0.5-0.4,0.7
				c-0.4,0.6-0.7,1.3-1.1,2v0c-0.2,0.5-0.4,1-0.6,1.5s-0.4,0.9-0.5,1.4c-0.1,0.2-0.1,0.5-0.2,0.7s0,0.2-0.1,0.3l0,0
				c0,0.2-0.1,0.4-0.1,0.5c-0.1,0.5-0.3,1.1-0.4,1.6c0,0.2-0.1,0.5-0.1,0.7s-0.1,0.4-0.1,0.5s-0.1,0.6-0.1,1s-0.1,0.8-0.1,1.2
				s0,0.8-0.1,1.3c0,0.2,0,0.5,0,0.7c0,2.2,0.2,4.4,0.7,6.5L838.9,772.2z"/>
		</defs>
		<clipPath id="SVGID_00000096061756795227153130000005827382632899490707_">
			<use xlink:href="#SVGID_00000072973177964388341190000014380385049264011943_"  style="overflow:visible;"/>
		</clipPath>
		<g style="clip-path:url(#SVGID_00000096061756795227153130000005827382632899490707_);">
			
				<linearGradient id="SVGID_00000158716352542701184840000002470699255991319968_" gradientUnits="userSpaceOnUse" x1="179.41" y1="986.66" x2="1882.1" y2="986.66" gradientTransform="matrix(1 0 0 -1 0 1920)">
				<stop  offset="1.000000e-02" style="stop-color:#FF6EFF"/>
				<stop  offset="1" style="stop-color:#0AB7F6"/>
			</linearGradient>
			
				<rect x="179.4" y="227.9" style="fill:url(#SVGID_00000158716352542701184840000002470699255991319968_);" width="1702.7" height="1410.9"/>
			<path class="st3" d="M1821.4,883.6c-1.8-8.9-4.1-17.7-6.6-26.3c-10.7-35.7-27.8-69.2-50.4-98.8c-13.9-18.3-29.6-35.2-46.9-50.4
				c-4.5-3.9-9.1-7.7-13.7-11.4c-3.5-2.7-7.1-5.4-10.7-8c-10.9-7.9-22.3-15-34.1-21.5c-9.1-5-18.4-9.5-28-13.5
				c-3.1-1.3-6.3-2.6-9.4-3.7c-6.3-2.4-12.6-4.5-18.9-6.3c-6.3-1.8-12.7-3.4-19.1-4.8c-1.9-0.4-3.8-0.8-5.6-1.1
				c-9.2-1.7-18.5-2.9-27.8-3.6c-5.9-0.4-11.8-0.7-17.8-0.7H1324c-1.5,0-3,0.1-4.4,0.4l-0.4,0.1l-0.4,0.1c-0.2,0-0.5,0.1-0.8,0.1
				c-1.1,0.2-2.1,0.6-3.2,0.9l-0.2,0.1l-0.4,0.2c-0.6,0.2-1.1,0.4-1.7,0.7c-0.8,0.4-1.7,0.9-2.4,1.4c-1,0.6-1.9,1.4-2.8,2.1
				c-0.3,0.2-0.5,0.5-0.8,0.7l0,0c-0.3,0.3-0.5,0.5-0.8,0.8s-0.4,0.4-0.6,0.6s-0.5,0.6-0.7,0.8s-0.3,0.3-0.4,0.5
				c-0.3,0.4-0.6,0.8-0.8,1.3s-0.4,0.5-0.5,0.8s-0.4,0.7-0.6,1c-0.3,0.6-0.6,1.1-0.9,1.7l0,0c0,0,0,0.1,0,0.1
				c-0.4,0.8-0.7,1.7-1,2.5c0,0.1-0.1,0.2-0.1,0.3c0,0.1-0.1,0.2-0.1,0.4l-0.2,0.7l0,0c-0.2,0.7-0.4,1.4-0.5,2.2l0,0
				c-0.1,0.4-0.1,0.8-0.2,1.2l0,0c-0.1,0.7-0.2,1.4-0.2,2.2l0,0c0,0.4,0,0.8-0.1,1.3c0,0.2,0,0.5,0,0.7c0,2.2,0.2,4.4,0.7,6.5
				l86.7,435.1c0.2,1.1,0.5,2.2,0.8,3.3c0.1,0.4,0.3,0.7,0.4,1.1c1.1,3.2,2.5,6.3,4.4,9.1c0.9,1.4,1.8,2.7,2.9,4
				c0.9,1.1,1.8,2.1,2.7,3.1c7.1,7.2,16.7,11.8,26.3,11.8h208.3c5.4,0,10.7-0.2,16-0.5c36.7-2.4,69.1-13.4,97.3-33
				c32.3-22.3,55.3-52.6,69.1-90.8c11.9-33,15.3-68.5,10.2-106.6C1823.7,896,1822.7,889.8,1821.4,883.6z"/>
		</g>
	</g>
	<g>
		<defs>
			<path id="SVGID_00000013167324795132031150000004900421852297256356_" d="M1821.4,883.6c-1.8-8.9-4.1-17.7-6.6-26.3
				c-10.7-35.7-27.8-69.2-50.4-98.8c-13.9-18.3-29.6-35.2-46.9-50.4c-4.5-3.9-9.1-7.7-13.7-11.4c-3.5-2.7-7.1-5.4-10.7-8
				c-10.9-7.9-22.3-15-34.1-21.5c-9.1-5-18.4-9.5-28-13.5c-3.1-1.3-6.3-2.6-9.4-3.7c-6.3-2.4-12.6-4.5-18.9-6.3
				c-6.3-1.8-12.7-3.4-19.1-4.8c-1.9-0.4-3.8-0.8-5.6-1.1c-9.2-1.7-18.5-2.9-27.8-3.6c-5.9-0.4-11.8-0.7-17.8-0.7H1324
				c-1.5,0-3,0.1-4.4,0.4l-0.4,0.1l-0.4,0.1c-0.2,0-0.5,0.1-0.8,0.1c-1.1,0.2-2.1,0.6-3.2,0.9l-0.2,0.1l-0.4,0.2
				c-0.6,0.2-1.1,0.4-1.7,0.7c-0.8,0.4-1.7,0.9-2.4,1.4c-1,0.6-1.9,1.4-2.8,2.1c-0.3,0.2-0.5,0.5-0.8,0.7l0,0
				c-0.3,0.3-0.5,0.5-0.8,0.8s-0.4,0.4-0.6,0.6s-0.5,0.6-0.7,0.8s-0.3,0.3-0.4,0.5c-0.3,0.4-0.6,0.8-0.8,1.3s-0.4,0.5-0.5,0.8
				s-0.4,0.7-0.6,1c-0.3,0.6-0.6,1.1-0.9,1.7l0,0c0,0,0,0.1,0,0.1c-0.4,0.8-0.7,1.7-1,2.5c0,0.1-0.1,0.2-0.1,0.3
				c0,0.1-0.1,0.2-0.1,0.4l-0.2,0.7l0,0c-0.2,0.7-0.4,1.4-0.5,2.2l0,0c-0.1,0.4-0.1,0.8-0.2,1.2l0,0c-0.1,0.7-0.2,1.4-0.2,2.2l0,0
				c0,0.4,0,0.8-0.1,1.3c0,0.2,0,0.5,0,0.7c0,2.2,0.2,4.4,0.7,6.5l86.7,435.1c0.2,1.1,0.5,2.2,0.8,3.3c0.1,0.4,0.3,0.7,0.4,1.1
				c1.1,3.2,2.5,6.3,4.4,9.1c0.9,1.4,1.8,2.7,2.9,4c0.9,1.1,1.8,2.1,2.7,3.1c7.1,7.2,16.7,11.8,26.3,11.8h208.3
				c5.4,0,10.7-0.2,16-0.5c36.7-2.4,69.1-13.4,97.3-33c32.3-22.3,55.3-52.6,69.1-90.8c11.9-33,15.3-68.5,10.2-106.6
				C1823.7,896,1822.7,889.8,1821.4,883.6z"/>
		</defs>
		<clipPath id="SVGID_00000080173764238052801010000016110435332383238079_">
			<use xlink:href="#SVGID_00000013167324795132031150000004900421852297256356_"  style="overflow:visible;"/>
		</clipPath>
		<g style="clip-path:url(#SVGID_00000080173764238052801010000016110435332383238079_);">
			
				<linearGradient id="SVGID_00000181073323833087799740000016747575934511367332_" gradientUnits="userSpaceOnUse" x1="179.41" y1="986.66" x2="1882.1" y2="986.66" gradientTransform="matrix(1 0 0 -1 0 1920)">
				<stop  offset="1.000000e-02" style="stop-color:#FF6EFF"/>
				<stop  offset="1" style="stop-color:#0AB7F6"/>
			</linearGradient>
			
				<rect x="179.4" y="227.9" style="fill:url(#SVGID_00000181073323833087799740000016747575934511367332_);" width="1702.7" height="1410.9"/>
		</g>
	</g>
</g>
</svg>
